<svg width="212" height="60" viewBox="0 0 212 60" fill="none" xmlns="http://www.w3.org/2000/svg">
<path d="M16.458 26L9.698 7.488H6.864L0.13 26H3.9L5.018 22.724H11.596L12.688 26H16.458ZM10.634 19.682H6.032L8.372 12.948L10.634 19.682ZM33.9741 26L27.3961 14.846L33.5321 7.488H29.1381L22.6121 15.548V7.488H18.9981V26H22.6121V20.436L25.0041 17.576L29.7621 26H33.9741ZM50.8491 26L44.0891 7.488H41.2551L34.5211 26H38.2911L39.4091 22.724H45.9871L47.0791 26H50.8491ZM45.0251 19.682H40.4231L42.7631 12.948L45.0251 19.682ZM66.3173 18.408V15.704H59.3233V18.72H62.7293V19.422C62.7293 20.384 62.4953 21.216 61.8973 21.892C61.2993 22.542 60.4153 22.932 59.3233 22.932C58.3353 22.932 57.5293 22.568 57.0093 21.97C56.3073 21.19 56.1253 20.306 56.1253 16.744C56.1253 13.182 56.3073 12.324 57.0093 11.544C57.5293 10.946 58.3353 10.556 59.3233 10.556C61.1693 10.556 62.2353 11.518 62.6513 13.26H66.2913C65.7973 10.14 63.6133 7.332 59.3233 7.332C57.2433 7.332 55.6313 8.06 54.3313 9.36C52.4593 11.232 52.5113 13.546 52.5113 16.744C52.5113 19.942 52.4593 22.256 54.3313 24.128C55.6313 25.428 57.2953 26.156 59.3233 26.156C61.2993 26.156 63.0673 25.584 64.5493 24.05C65.8493 22.698 66.3173 21.086 66.3173 18.408ZM73.8686 26V7.488H70.2546V26H73.8686ZM94.3745 26L91.0465 22.074C92.3465 20.618 92.8925 18.72 93.0225 16.328H89.8245C89.7725 17.654 89.4865 18.772 88.8885 19.578L85.7685 15.886C86.2365 15.574 87.0945 14.924 87.0945 14.924C88.2385 14.092 88.9925 13.13 88.9925 11.7C88.9925 9.178 87.1725 7.332 84.2605 7.332C81.1665 7.332 79.3205 9.126 79.3205 11.648C79.3205 13.416 80.4125 14.716 81.1665 15.574C79.5545 16.64 77.8385 18.174 77.8385 20.54C77.8385 24.024 79.8665 26.156 83.9485 26.156C86.6005 26.156 87.8745 25.064 88.7325 24.388L90.0845 26H94.3745ZM85.7945 11.726C85.7945 12.376 85.3265 12.87 84.7285 13.286C84.7285 13.286 84.2085 13.65 83.9485 13.806C83.2985 13.052 82.7265 12.402 82.7265 11.726C82.7265 10.868 83.2465 10.218 84.2605 10.218C85.2225 10.218 85.7945 10.868 85.7945 11.726ZM86.6785 21.996C85.8205 22.75 85.0145 23.088 83.9225 23.088C82.3625 23.088 81.1145 22.022 81.1145 20.488C81.1145 19.162 81.8685 18.434 82.9865 17.654L86.6785 21.996ZM110.305 7.488H106.535L102.817 19.552L99.0988 7.488H95.3548L101.465 26H104.169L110.305 7.488ZM124.996 26V22.776H116.416V18.278H123.722V15.054H116.416V10.712H124.996V7.488H112.802V26H124.996ZM142.974 26V7.488H139.36V18.824L132.028 7.488H128.804V26H132.418V14.638L139.75 26H142.974ZM159.457 10.712V7.488H146.171V10.712H151.007V26H154.621V10.712H159.457ZM176 19.656V7.488H172.412V19.526C172.412 21.658 171.138 22.932 169.188 22.932C167.238 22.932 165.99 21.658 165.99 19.526V7.488H162.376V19.656C162.376 23.582 165.392 26.156 169.188 26.156C172.984 26.156 176 23.582 176 19.656ZM194.303 26L190.169 18.018C191.963 17.368 193.549 15.756 193.549 13.156C193.549 10.062 191.313 7.488 187.543 7.488H180.289V26H183.903V18.616H186.503L190.117 26H194.303ZM189.935 13.156C189.935 14.586 188.895 15.6 187.309 15.6H183.903V10.712H187.309C188.895 10.712 189.935 11.726 189.935 13.156ZM209.755 26V22.776H201.175V18.278H208.481V15.054H201.175V10.712H209.755V7.488H197.561V26H209.755ZM15.444 43.26C15.444 40.114 13.156 37.488 9.334 37.488H2.158V56H5.772V49.032H9.334C13.156 49.032 15.444 46.406 15.444 43.26ZM11.83 43.26C11.83 44.768 10.79 45.782 9.152 45.782H5.772V40.712H9.152C10.79 40.712 11.83 41.752 11.83 43.26ZM32.7582 56L28.6242 48.018C30.4182 47.368 32.0042 45.756 32.0042 43.156C32.0042 40.062 29.7682 37.488 25.9982 37.488H18.7442V56H22.3582V48.616H24.9582L28.5722 56H32.7582ZM28.3902 43.156C28.3902 44.586 27.3502 45.6 25.7642 45.6H22.3582V40.712H25.7642C27.3502 40.712 28.3902 41.726 28.3902 43.156ZM49.0679 46.744C49.0679 43.546 49.0939 41.232 47.2219 39.36C45.9219 38.06 44.3359 37.332 42.2299 37.332C40.1239 37.332 38.5119 38.06 37.2119 39.36C35.3399 41.232 35.3919 43.546 35.3919 46.744C35.3919 49.942 35.3399 52.256 37.2119 54.128C38.5119 55.428 40.1239 56.156 42.2299 56.156C44.3359 56.156 45.9219 55.428 47.2219 54.128C49.0939 52.256 49.0679 49.942 49.0679 46.744ZM45.4539 46.744C45.4539 50.306 45.2459 51.164 44.5439 51.944C44.0239 52.542 43.2179 52.932 42.2299 52.932C41.2419 52.932 40.4099 52.542 39.8899 51.944C39.1879 51.164 39.0059 50.306 39.0059 46.744C39.0059 43.182 39.1879 42.324 39.8899 41.544C40.4099 40.946 41.2419 40.556 42.2299 40.556C43.2179 40.556 44.0239 40.946 44.5439 41.544C45.2459 42.324 45.4539 43.182 45.4539 46.744ZM61.349 49.916V37.488H57.735V49.76C57.735 51.892 56.591 52.932 54.823 52.932C53.627 52.932 53.055 52.49 52.457 51.892L50.065 54.258C51.443 55.636 52.821 56.156 54.823 56.156C58.255 56.156 61.349 53.998 61.349 49.916ZM77.8783 56V52.776H69.2983V48.278H76.6043V45.054H69.2983V40.712H77.8783V37.488H65.6843V56H77.8783ZM94.6865 50.306H91.0205C90.6565 51.788 89.7205 52.932 87.9005 52.932C86.9125 52.932 86.1065 52.568 85.5865 51.97C84.8845 51.19 84.6765 50.306 84.6765 46.744C84.6765 43.182 84.8845 42.298 85.5865 41.518C86.1065 40.92 86.9125 40.556 87.9005 40.556C89.7205 40.556 90.6565 41.7 91.0205 43.182H94.6865C94.0365 39.308 91.3325 37.332 87.8745 37.332C85.8465 37.332 84.1825 38.06 82.8825 39.36C81.0105 41.232 81.0625 43.546 81.0625 46.744C81.0625 49.942 81.0105 52.256 82.8825 54.128C84.1825 55.428 85.8465 56.156 87.8745 56.156C91.3065 56.156 94.0365 54.18 94.6865 50.306ZM109.47 40.712V37.488H96.1837V40.712H101.02V56H104.634V40.712H109.47Z" fill="black"/>
</svg>
