<svg width="225" height="47" viewBox="0 0 225 47" fill="none" xmlns="http://www.w3.org/2000/svg">
<path d="M13.7499 44.95C11.0832 45.2833 8.76657 45.1333 6.7999 44.5C4.83324 43.9 3.31657 42.9333 2.2499 41.6C1.18324 40.2333 0.649902 38.6167 0.649902 36.75C0.649902 34.3167 1.5999 31.9167 3.4999 29.55C5.43324 27.1833 8.13324 25.2333 11.5999 23.7V17.3C9.7999 17.4333 8.0499 17.5333 6.3499 17.6C4.6499 17.6333 3.06657 17.6167 1.5999 17.55L1.2999 10.5C2.4999 10.6333 3.9999 10.6833 5.7999 10.65C7.63324 10.5833 9.56657 10.4833 11.5999 10.35V3H18.3999V9.55C21.7332 9.08333 24.3166 8.48333 26.1499 7.75L26.7999 14.45C24.4999 15.2833 21.6999 15.95 18.3999 16.45V21.65C19.4666 21.4833 20.5499 21.35 21.6499 21.25C22.7499 21.15 23.8999 21.1 25.0999 21.1C28.4999 21.1 31.3499 21.6333 33.6499 22.7C35.9832 23.7667 37.7332 25.1833 38.8999 26.95C40.0999 28.7167 40.6999 30.6667 40.6999 32.8C40.6999 36.1333 39.6999 38.8 37.6999 40.8C35.7332 42.7667 32.9832 43.75 29.4499 43.75C26.8166 43.75 24.5832 43.1 22.7499 41.8C20.9499 40.4667 19.6666 38.5333 18.8999 36C19.8999 35.7 21.0332 35.2833 22.2999 34.75C23.5999 34.1833 24.6832 33.5833 25.5499 32.95C26.2832 35.25 27.5666 36.4 29.3999 36.4C30.6332 36.4 31.5166 36.0167 32.0499 35.25C32.5832 34.45 32.8499 33.55 32.8499 32.55C32.8499 31.1833 32.2666 29.9833 31.0999 28.95C29.9332 27.9167 27.9332 27.4 25.0999 27.4C23.8999 27.4 22.7332 27.4667 21.5999 27.6C20.4999 27.7333 19.4332 27.9333 18.3999 28.2V40.25C18.3999 41.7167 18.0499 42.8167 17.3499 43.55C16.6832 44.2833 15.4832 44.75 13.7499 44.95ZM39.0499 21.55C38.4166 20.95 37.6166 20.3 36.6499 19.6C35.7166 18.9 34.6999 18.2 33.5999 17.5C32.5332 16.8 31.4666 16.1667 30.3999 15.6C29.3666 15 28.4499 14.55 27.6499 14.25L31.4999 8.7C32.7666 9.2 34.1166 9.85 35.5499 10.65C37.0166 11.4167 38.4166 12.25 39.7499 13.15C41.1166 14.05 42.2832 14.95 43.2499 15.85C42.7832 16.3167 42.2499 16.9333 41.6499 17.7C41.0832 18.4333 40.5499 19.1667 40.0499 19.9C39.5832 20.6 39.2499 21.15 39.0499 21.55ZM9.4999 38.4C10.8999 38.5333 11.5999 38.1333 11.5999 37.2V31.15C10.3999 31.95 9.46657 32.8 8.7999 33.7C8.13324 34.6 7.7999 35.4833 7.7999 36.35C7.7999 36.8833 7.91657 37.35 8.1499 37.75C8.41657 38.1167 8.86657 38.3333 9.4999 38.4Z" fill="white"/>
<path d="M61.6499 46.95C61.4166 46.4167 61.0332 45.7833 60.4999 45.05C59.9999 44.3167 59.4499 43.6 58.8499 42.9C58.2499 42.1667 57.6999 41.6 57.1999 41.2C60.3999 39.8333 62.9499 38.0667 64.8499 35.9C66.7832 33.7333 67.9666 30.9 68.3999 27.4H59.8999V20.5H68.5999V14.1H66.8999C66.2666 15.2333 65.6332 16.2667 64.9999 17.2C64.3999 18.1333 63.8166 18.8833 63.2499 19.45C62.4166 18.7833 61.4332 18.1333 60.2999 17.5C59.1666 16.8667 58.0666 16.4167 56.9999 16.15C57.9332 15.15 58.8332 13.9833 59.6999 12.65C60.5666 11.3167 61.3499 9.91667 62.0499 8.45C62.7832 6.98333 63.3832 5.56667 63.8499 4.2C64.3499 2.8 64.6999 1.56667 64.8999 0.5L72.0499 2.25C71.8832 2.98333 71.6332 3.78333 71.2999 4.65C70.9999 5.51667 70.6499 6.43333 70.2499 7.4H81.4999V14.1H75.5999V20.5H82.6999V27.4H75.6999C76.1999 28.5 76.9166 29.7333 77.8499 31.1C78.8166 32.4667 79.8499 33.7833 80.9499 35.05C82.0499 36.2833 83.0332 37.3 83.8999 38.1V6.55H103.3V42.05H83.8999V38.95C83.2999 39.3833 82.6332 39.8833 81.8999 40.45C81.1999 41.0167 80.5332 41.6 79.8999 42.2C79.2666 42.7667 78.7666 43.2833 78.3999 43.75C77.5332 42.7833 76.6166 41.6167 75.6499 40.25C74.6832 38.8833 73.7666 37.4833 72.8999 36.05C71.6999 38.45 70.1332 40.5667 68.1999 42.4C66.2999 44.2333 64.1166 45.75 61.6499 46.95ZM91.0999 35.35H96.2499V13.4H91.0999V35.35Z" fill="white"/>
<path d="M137.9 46.35C137.767 45.6833 137.517 44.8833 137.15 43.95C136.817 43.05 136.4 42.15 135.9 41.25C135.433 40.3167 134.933 39.55 134.4 38.95C139.7 39.1833 143.767 38.65 146.6 37.35C149.467 36.05 150.9 34.1833 150.9 31.75C150.9 30.5167 150.383 29.5167 149.35 28.75C148.317 27.9833 146.917 27.6 145.15 27.6C143.683 27.6 142.117 27.8 140.45 28.2C138.817 28.6 137.267 29.3 135.8 30.3C134.333 31.2667 133.117 32.6 132.15 34.3L125.55 31.45C126.217 30.25 126.783 28.7833 127.25 27.05C127.717 25.2833 128.1 23.45 128.4 21.55C128.733 19.65 128.95 17.85 129.05 16.15C129.15 14.45 129.15 13.05 129.05 11.95L136.8 12.9C136.833 14.5 136.717 16.2833 136.45 18.25C136.183 20.2167 135.783 22.1833 135.25 24.15C136.95 23.1167 138.683 22.3333 140.45 21.8C142.25 21.2333 143.917 20.95 145.45 20.95C148.183 20.95 150.567 21.4333 152.6 22.4C154.667 23.3333 156.267 24.6333 157.4 26.3C158.533 27.9333 159.1 29.8 159.1 31.9C159.1 34.5 158.35 36.8667 156.85 39C155.35 41.1333 153.033 42.85 149.9 44.15C146.767 45.4833 142.767 46.2167 137.9 46.35ZM146.15 14.2C144.983 13.3 143.55 12.3833 141.85 11.45C140.183 10.5167 138.467 9.7 136.7 9C134.967 8.3 133.433 7.83333 132.1 7.6L135.8 1.25C136.7 1.48333 137.783 1.85 139.05 2.35C140.317 2.81667 141.633 3.36667 143 4C144.367 4.6 145.65 5.21667 146.85 5.85C148.05 6.48333 149.05 7.06667 149.85 7.6L146.15 14.2Z" fill="white"/>
<path d="M202.75 44C199.55 44 197.083 43.7167 195.35 43.15C193.617 42.6167 192.4 41.7 191.7 40.4C191.033 39.0667 190.7 37.2333 190.7 34.9V22.45C188.667 22.6833 186.783 22.95 185.05 23.25C183.35 23.5167 181.883 23.8 180.65 24.1L180.05 16.9C181.25 16.7333 182.767 16.55 184.6 16.35C186.433 16.15 188.467 15.95 190.7 15.75V5.3H197.7V15.15C199.267 15.0167 200.85 14.9 202.45 14.8C204.083 14.6667 205.683 14.55 207.25 14.45V3.8H214.4V14C216.567 13.8667 218.533 13.7667 220.3 13.7C222.1 13.6333 223.567 13.6 224.7 13.6V20.9C222.1 20.7 218.667 20.65 214.4 20.75V23.65C214.4 26.5833 213.7 28.7833 212.3 30.25C210.933 31.6833 208.467 32.5333 204.9 32.8C204.733 31.7333 204.417 30.5667 203.95 29.3C203.483 28 202.917 26.9667 202.25 26.2C203.983 26.2 205.25 26.0167 206.05 25.65C206.85 25.25 207.25 24.5833 207.25 23.65V21.05C205.683 21.1167 204.083 21.2167 202.45 21.35C200.85 21.45 199.267 21.5833 197.7 21.75V33.8C197.7 35.0333 198.05 35.8833 198.75 36.35C199.45 36.7833 200.9 37 203.1 37C204.433 37 206 36.9333 207.8 36.8C209.6 36.6333 211.383 36.4333 213.15 36.2C214.917 35.9333 216.417 35.6333 217.65 35.3C217.45 35.9667 217.25 36.7833 217.05 37.75C216.883 38.7167 216.767 39.6667 216.7 40.6C216.633 41.5 216.617 42.25 216.65 42.85C214.617 43.2167 212.35 43.5 209.85 43.7C207.383 43.9 205.017 44 202.75 44Z" fill="white"/>
</svg>
