<svg width="372" height="198" viewBox="0 0 372 198" fill="none" xmlns="http://www.w3.org/2000/svg">
<path d="M46.1561 77.658C45.8828 76.2367 45.3088 74.5147 44.4341 72.492C43.6141 70.4694 42.6574 68.7747 41.5641 67.408C48.2334 66.588 53.0714 64.7567 56.0781 61.914C59.1394 59.0714 60.6701 55.4634 60.6701 51.09C60.6701 46.8807 58.9208 43.628 55.4221 41.332C53.3994 44.94 51.2128 48.302 48.8621 51.418C46.5114 54.534 44.0514 57.322 41.4821 59.782C41.7554 60.6567 42.0561 61.5587 42.3841 62.488C42.7121 63.3627 43.0674 64.21 43.4501 65.03C42.4114 65.3034 41.2088 65.7407 39.8421 66.342C38.4754 66.9434 37.1634 67.572 35.9061 68.228C34.7034 68.8294 33.7194 69.4034 32.9541 69.95C32.7354 69.5127 32.5168 69.0754 32.2981 68.638C32.1341 68.2007 31.9701 67.7634 31.8061 67.326C29.0181 68.966 26.2301 70.1687 23.4421 70.934C20.6541 71.6447 17.9481 71.8087 15.3241 71.426C13.2468 71.1527 11.3334 70.0594 9.58409 68.146C7.83476 66.2327 6.96009 63.4174 6.96009 59.7C6.96009 55.7094 7.80742 52.0194 9.50209 48.63C11.1968 45.186 13.5201 42.1247 16.4721 39.446C19.4788 36.7674 22.8954 34.5807 26.7221 32.886C26.7221 29.934 26.8041 27.0367 26.9681 24.194C23.9614 24.4127 21.1461 24.522 18.5221 24.522C15.8981 24.522 13.7114 24.4127 11.9621 24.194L11.2241 13.288C13.3014 13.5614 15.7888 13.7527 18.6861 13.862C21.5834 13.9167 24.6448 13.8894 27.8701 13.78C28.1434 11.976 28.3894 10.254 28.6081 8.61403C28.8814 6.91936 29.1548 5.3067 29.4281 3.77603L40.5801 5.82603C40.3614 6.97403 40.1154 8.14936 39.8421 9.35203C39.6234 10.5 39.4321 11.6754 39.2681 12.878C43.1494 12.4407 46.8941 11.8667 50.5021 11.156C54.1648 10.4454 57.2808 9.59803 59.8501 8.61403L60.8341 19.11C58.1008 19.9847 54.7114 20.8047 50.6661 21.57C46.6208 22.2807 42.4114 22.8547 38.0381 23.292C37.9834 24.3307 37.9288 25.3967 37.8741 26.49C37.8194 27.5287 37.7648 28.5947 37.7101 29.688C38.8581 29.524 40.0334 29.3874 41.2361 29.278C42.4388 29.1687 43.6414 29.114 44.8441 29.114C46.3201 29.114 47.7961 29.196 49.2721 29.36C49.6548 28.3214 50.0101 27.2827 50.3381 26.244C50.7208 25.2054 51.0761 24.1394 51.4041 23.046L62.3921 25.998C61.6814 28.13 60.8614 30.18 59.9321 32.148C64.0321 34.0067 67.2301 36.6034 69.5261 39.938C71.8221 43.2727 72.9701 47.0447 72.9701 51.254C72.9701 56.174 71.8768 60.4927 69.6901 64.21C67.5034 67.9274 64.4148 70.9067 60.4241 73.148C56.4334 75.444 51.6774 76.9474 46.1561 77.658ZM21.3101 60.356C23.2234 60.028 25.7381 58.7707 28.8541 56.584C28.0341 52.4294 27.4601 48.1107 27.1321 43.628C24.3988 45.3774 22.2121 47.4547 20.5721 49.86C18.9868 52.2654 18.1941 54.7527 18.1941 57.322C18.1941 58.6887 18.4401 59.5907 18.9321 60.028C19.4241 60.4654 20.2168 60.5747 21.3101 60.356ZM38.6121 47.236C39.7054 45.9787 40.7441 44.6394 41.7281 43.218C42.7668 41.742 43.7508 40.2114 44.6801 38.626C43.4774 38.626 42.3021 38.6807 41.1541 38.79C40.0608 38.8994 38.9674 39.0634 37.8741 39.282C38.0381 41.9607 38.2841 44.612 38.6121 47.236Z" fill="white"/>
<path d="M112.166 74.87C111.51 74.214 110.553 73.476 109.296 72.656C108.039 71.836 106.727 71.0707 105.36 70.36C104.048 69.5947 102.9 69.0754 101.916 68.802C105.305 65.0847 108.503 60.3834 111.51 54.698C114.517 48.958 117.113 42.9447 119.3 36.658C116.676 36.986 114.134 37.3687 111.674 37.806C109.269 38.1887 107.219 38.626 105.524 39.118C105.469 38.1887 105.305 37.0134 105.032 35.592C104.813 34.116 104.54 32.6947 104.212 31.328C103.939 29.9067 103.638 28.8134 103.31 28.048C104.513 27.9387 106.125 27.802 108.148 27.638C110.171 27.474 112.412 27.31 114.872 27.146C117.387 26.9274 119.901 26.736 122.416 26.572C123.345 23.2374 124.083 19.9847 124.63 16.814C125.231 13.6434 125.641 10.6367 125.86 7.79403L137.832 9.92603C137.176 14.846 136.055 20.1214 134.47 25.752C135.345 25.6974 136.11 25.67 136.766 25.67C137.477 25.67 138.105 25.67 138.652 25.67C140.948 25.67 142.998 26.0254 144.802 26.736C146.661 27.4467 148.137 28.6767 149.23 30.426C150.378 32.1754 151.061 34.608 151.28 37.724C151.553 40.7854 151.253 44.694 150.378 49.45C149.503 54.4247 148.547 58.5247 147.508 61.75C146.469 64.9207 145.239 67.408 143.818 69.212C142.451 70.9614 140.811 72.1914 138.898 72.902C136.985 73.6127 134.716 73.968 132.092 73.968C128.812 73.968 125.942 73.476 123.482 72.492C123.537 71.4534 123.537 70.2507 123.482 68.884C123.482 67.4627 123.427 66.0687 123.318 64.702C123.209 63.2807 123.017 62.078 122.744 61.094C124.001 61.4767 125.395 61.8047 126.926 62.078C128.457 62.3514 129.769 62.488 130.862 62.488C131.682 62.488 132.42 62.324 133.076 61.996C133.787 61.668 134.47 61.012 135.126 60.028C135.782 59.044 136.438 57.5407 137.094 55.518C137.75 53.4954 138.406 50.762 139.062 47.318C139.773 43.874 140.046 41.332 139.882 39.692C139.773 37.9974 139.335 36.8767 138.57 36.33C137.805 35.7834 136.793 35.51 135.536 35.51C134.989 35.51 134.361 35.51 133.65 35.51C132.939 35.51 132.174 35.5374 131.354 35.592C129.659 40.676 127.719 45.678 125.532 50.598C123.4 55.4634 121.186 60.0007 118.89 64.21C116.594 68.3647 114.353 71.918 112.166 74.87ZM170.55 54.042C169.73 52.566 168.555 50.7894 167.024 48.712C165.548 46.58 163.881 44.448 162.022 42.316C160.218 40.1294 158.469 38.1614 156.774 36.412C155.079 34.608 153.658 33.2687 152.51 32.394L161.53 24.932C162.678 25.916 164.127 27.2827 165.876 29.032C167.625 30.7814 169.429 32.6674 171.288 34.69C173.147 36.7127 174.869 38.708 176.454 40.676C178.094 42.644 179.379 44.366 180.308 45.842L170.55 54.042Z" fill="white"/>
<path d="M250.5 77.33C243.339 77.7127 237.161 77.3847 231.968 76.346C226.829 75.3074 222.866 73.394 220.078 70.606C217.29 67.818 215.896 64.0734 215.896 59.372C215.896 55.8734 217.017 52.8667 219.258 50.352C221.499 47.7827 224.533 45.8967 228.36 44.694C232.241 43.4367 236.587 43.0267 241.398 43.464C240.851 42.644 240.305 41.824 239.758 41.004C239.266 40.1294 238.747 39.2547 238.2 38.38C233.335 39.2 228.524 39.856 223.768 40.348C219.067 40.7854 214.885 40.9767 211.222 40.922L209.09 30.262C212.151 30.3714 215.787 30.262 219.996 29.934C224.205 29.606 228.524 29.0867 232.952 28.376C232.569 27.5014 232.187 26.654 231.804 25.834C231.421 24.9594 231.066 24.112 230.738 23.292C227.567 23.6747 224.506 24.0027 221.554 24.276C218.657 24.4947 216.087 24.6314 213.846 24.686L211.55 14.272C213.737 14.3267 216.142 14.2994 218.766 14.19C221.445 14.026 224.205 13.78 227.048 13.452C226.064 10.336 225.353 7.6027 224.916 5.25203L236.888 3.85803C237.052 6.0447 237.626 8.64136 238.61 11.648C241.507 11.1014 244.268 10.4727 246.892 9.76203C249.516 9.05136 251.757 8.31336 253.616 7.54803L256.568 17.88C254.819 18.4814 252.687 19.0827 250.172 19.684C247.712 20.2854 245.061 20.8594 242.218 21.406C242.601 22.226 242.956 23.046 243.284 23.866C243.667 24.6314 244.049 25.424 244.432 26.244C248.204 25.424 251.675 24.522 254.846 23.538C258.017 22.554 260.613 21.5427 262.636 20.504L266.572 30.508C264.44 31.5467 261.925 32.5307 259.028 33.46C256.185 34.3894 253.124 35.2367 249.844 36.002C251.593 38.6807 253.397 41.168 255.256 43.464C257.115 45.76 259.028 47.6734 260.996 49.204L253.288 57.076C250.5 55.2174 247.63 53.9874 244.678 53.386C241.781 52.7847 239.102 52.648 236.642 52.976C234.182 53.304 232.187 53.9874 230.656 55.026C229.18 56.01 228.442 57.2127 228.442 58.634C228.442 60.8754 229.535 62.5427 231.722 63.636C233.963 64.6747 237.052 65.3034 240.988 65.522C244.924 65.7407 249.434 65.6587 254.518 65.276C253.862 66.3147 253.233 67.5994 252.632 69.13C252.031 70.606 251.539 72.082 251.156 73.558C250.773 75.0887 250.555 76.346 250.5 77.33ZM265.752 20.75C264.713 19.0554 263.401 17.306 261.816 15.502C260.231 13.698 258.782 12.222 257.47 11.074L262.8 6.72803C263.565 7.38403 264.495 8.31336 265.588 9.51603C266.681 10.7187 267.747 11.9487 268.786 13.206C269.825 14.4634 270.645 15.5294 271.246 16.404L265.752 20.75ZM273.542 14.354C272.503 12.6594 271.191 10.91 269.606 9.10603C268.021 7.30203 266.572 5.82603 265.26 4.67803L270.59 0.332031C271.355 0.988029 272.285 1.91736 273.378 3.12003C274.471 4.3227 275.537 5.5527 276.576 6.81003C277.615 8.06737 278.435 9.13336 279.036 10.008L273.542 14.354Z" fill="white"/>
<path d="M344.308 77.166C339.497 77.166 335.179 76.7014 331.352 75.772C327.58 74.8427 324.573 73.3394 322.332 71.262C320.091 69.1847 318.97 66.424 318.97 62.98C318.97 60.2467 319.763 57.7594 321.348 55.518C322.933 53.2767 325.12 51.254 327.908 49.45C330.751 47.5914 334.003 45.8967 337.666 44.366V43.956C337.666 42.5347 337.201 41.4414 336.272 40.676C335.397 39.9107 334.304 39.4734 332.992 39.364C330.641 39.0907 328.564 39.3094 326.76 40.02C325.011 40.7307 323.015 42.2067 320.774 44.448C320.118 45.0494 319.189 45.924 317.986 47.072C316.783 48.22 315.553 49.368 314.296 50.516C313.093 51.664 312.109 52.5934 311.344 53.304L302.652 44.612C306.315 42.3707 309.813 39.446 313.148 35.838C316.483 32.1754 319.407 28.2667 321.922 24.112C316.127 24.3854 311.918 24.4674 309.294 24.358L308.802 12.878C310.715 13.042 313.285 13.124 316.51 13.124C319.79 13.124 323.289 13.042 327.006 12.878C328.099 9.6527 328.755 6.5367 328.974 3.53003L340.946 4.18603C340.837 5.49803 340.673 6.81003 340.454 8.12203C340.235 9.43403 339.935 10.746 339.552 12.058C343.433 11.7847 347.014 11.4294 350.294 10.992C353.629 10.5547 356.171 10.09 357.92 9.59803L358.576 20.668C357.045 20.9414 355.05 21.242 352.59 21.57C350.13 21.8434 347.424 22.1167 344.472 22.39C341.575 22.6634 338.568 22.9367 335.452 23.21C334.905 24.4127 334.304 25.588 333.648 26.736C332.992 27.884 332.309 29.0047 331.598 30.098C333.074 29.77 334.55 29.606 336.026 29.606C339.251 29.606 342.094 30.3987 344.554 31.984C347.069 33.5147 348.681 36.248 349.392 40.184C352.344 39.2547 355.351 38.4074 358.412 37.642C361.528 36.822 364.644 36.0294 367.76 35.264L371.204 46.416C367.268 46.8534 363.469 47.4547 359.806 48.22C356.198 48.9307 352.836 49.7234 349.72 50.598V61.094H337.748V55.026C335.561 56.1194 333.839 57.24 332.582 58.388C331.325 59.4814 330.696 60.52 330.696 61.504C330.696 63.1987 331.68 64.3194 333.648 64.866C335.616 65.358 338.923 65.604 343.57 65.604C345.483 65.604 347.697 65.4674 350.212 65.194C352.781 64.9207 355.296 64.5927 357.756 64.21C360.271 63.7727 362.375 63.308 364.07 62.816C363.906 63.8 363.742 65.112 363.578 66.752C363.469 68.3374 363.387 69.9227 363.332 71.508C363.277 73.0387 363.277 74.2687 363.332 75.198C360.708 75.7994 357.619 76.264 354.066 76.592C350.567 76.9747 347.315 77.166 344.308 77.166Z" fill="white"/>
<path d="M5.32009 196.576L0.89209 185.178C2.31342 184.741 3.89876 184.139 5.64809 183.374C7.39742 182.609 8.92809 181.871 10.2401 181.16V162.792H2.69609V152.46H20.9001V173.944C22.9774 170.828 24.4261 167.247 25.2461 163.202C26.1208 159.102 26.5581 154.346 26.5581 148.934V141.144H20.1621V135.65C19.1781 136.579 18.1668 137.591 17.1281 138.684C16.0894 139.723 15.2421 140.679 14.5861 141.554C13.0554 139.531 11.1421 137.454 8.84609 135.322C6.60476 133.19 4.36342 131.413 2.12209 129.992L10.0761 121.874C11.2241 122.53 12.4814 123.405 13.8481 124.498C15.2694 125.591 16.6634 126.739 18.0301 127.942C19.4514 129.145 20.6814 130.32 21.7201 131.468H28.9361V122.53H39.9241V131.468H47.5501V135.896C48.5888 133.655 49.4361 131.331 50.0921 128.926C50.8028 126.521 51.2948 124.252 51.5681 122.12L61.5721 123.678C61.3534 124.771 61.1074 125.892 60.8341 127.04C60.6154 128.133 60.3421 129.227 60.0141 130.32H77.3981V139.996H56.2421C55.9688 140.543 55.6681 141.117 55.3401 141.718C55.0668 142.265 54.7661 142.811 54.4381 143.358H73.2161L76.0861 146.474C75.3208 147.786 74.4188 149.262 73.3801 150.902C72.3414 152.487 71.3301 154.018 70.3461 155.494C69.3621 156.915 68.5421 158.063 67.8861 158.938V159.594H77.3981V169.106H67.8861V176.896C67.8861 179.848 67.0388 181.98 65.3441 183.292C63.6494 184.549 61.0801 185.178 57.6361 185.178H53.5361C53.4814 184.194 53.3448 183.073 53.1261 181.816C52.9074 180.559 52.6341 179.301 52.3061 178.044C52.0328 176.787 51.7048 175.775 51.3221 175.01H54.6021C55.5861 175.01 56.2968 174.873 56.7341 174.6C57.1714 174.272 57.3901 173.643 57.3901 172.714V169.106H48.9441V159.594H57.3901V155.822H59.1941C59.6314 155.221 60.0414 154.619 60.4241 154.018C60.8614 153.362 61.2168 152.788 61.4901 152.296H50.7481V148.688C50.6388 148.852 50.4201 149.098 50.0921 149.426C49.3268 148.77 48.5614 148.169 47.7961 147.622C47.7961 151.777 47.7414 155.74 47.6321 159.512C47.5228 163.284 47.3314 166.591 47.0581 169.434C46.8394 172.277 46.5661 174.436 46.2381 175.912C45.5821 178.919 44.4068 181.051 42.7121 182.308C41.0721 183.511 38.7214 184.112 35.6601 184.112H32.7081C32.6534 183.401 32.5168 182.472 32.2981 181.324C32.1341 180.121 31.9428 178.946 31.7241 177.798C31.5054 176.595 31.2594 175.611 30.9861 174.846C29.5648 177.853 27.8974 180.477 25.9841 182.718C24.5081 181.187 22.8134 179.903 20.9001 178.864C21.0641 181.543 23.3601 183.483 27.7881 184.686C32.2161 185.834 38.7214 186.408 47.3041 186.408C54.6841 186.408 61.0254 186.299 66.3281 186.08C71.6854 185.807 75.8674 185.397 78.8741 184.85C78.5461 185.67 78.1908 186.791 77.8081 188.212C77.4254 189.579 77.0974 191 76.8241 192.476C76.5508 194.007 76.3868 195.346 76.3321 196.494H47.3041C41.3454 196.494 36.3434 196.193 32.2981 195.592C28.3074 195.045 25.0548 194.225 22.5401 193.132C20.0254 192.039 18.0301 190.754 16.5541 189.278C14.9688 190.481 13.1648 191.765 11.1421 193.132C9.11942 194.499 7.17876 195.647 5.32009 196.576ZM31.2321 174.272H33.8561C35.3321 174.272 36.2341 174.081 36.5621 173.698C36.9448 173.261 37.1908 172.577 37.3001 171.648C37.5188 170.445 37.7101 168.942 37.8741 167.138C38.0381 165.334 38.1748 163.448 38.2841 161.48C38.4481 159.457 38.5301 157.571 38.5301 155.822H35.8241C35.4961 159.266 34.9494 162.546 34.1841 165.662C33.4734 168.723 32.4894 171.593 31.2321 174.272ZM36.0701 146.638H46.1561C44.7348 145.873 43.3681 145.244 42.0561 144.752C42.9854 143.768 43.8874 142.565 44.7621 141.144H36.0701V146.638Z" fill="white"/>
<path d="M139.636 192.804C136.629 192.585 133.951 191.875 131.6 190.672C129.304 189.469 127.5 187.857 126.188 185.834C124.931 183.811 124.329 181.515 124.384 178.946C124.439 176.65 125.177 174.545 126.598 172.632C128.074 170.664 130.097 169.106 132.666 167.958C135.29 166.81 138.351 166.236 141.85 166.236C142.451 166.236 143.053 166.236 143.654 166.236C144.255 166.236 144.829 166.263 145.376 166.318C145.321 165.225 145.267 164.077 145.212 162.874C145.157 161.617 145.103 160.305 145.048 158.938C144.501 158.938 143.982 158.965 143.49 159.02C143.053 159.02 142.615 159.02 142.178 159.02C139.39 159.02 137.067 158.719 135.208 158.118C133.349 157.517 131.764 156.615 130.452 155.412C129.195 154.155 127.992 152.651 126.844 150.902L134.552 144.26C135.536 145.463 136.493 146.365 137.422 146.966C138.406 147.513 139.991 147.786 142.178 147.786C142.561 147.786 142.943 147.786 143.326 147.786C143.763 147.731 144.228 147.704 144.72 147.704C144.72 146.665 144.693 145.599 144.638 144.506C144.638 143.413 144.638 142.265 144.638 141.062C142.123 141.171 139.636 141.281 137.176 141.39C134.716 141.445 132.475 141.445 130.452 141.39L129.96 130.402C132.092 130.621 134.607 130.703 137.504 130.648C140.456 130.539 143.408 130.375 146.36 130.156C149.367 129.937 152.127 129.664 154.642 129.336C157.211 129.008 159.207 128.707 160.628 128.434L162.104 139.176C160.519 139.559 158.578 139.859 156.282 140.078C156.227 141.226 156.2 142.374 156.2 143.522C156.2 144.67 156.2 145.818 156.2 146.966C158.824 146.693 161.393 146.392 163.908 146.064C166.477 145.681 168.691 145.217 170.55 144.67L170.714 155.74C168.91 156.177 166.723 156.587 164.154 156.97C161.639 157.353 159.097 157.681 156.528 157.954C156.637 159.977 156.747 161.917 156.856 163.776C156.965 165.58 157.047 167.275 157.102 168.86C160.273 170.008 163.252 171.429 166.04 173.124C168.828 174.819 171.534 176.677 174.158 178.7C173.338 179.356 172.463 180.285 171.534 181.488C170.605 182.691 169.757 183.948 168.992 185.26C168.227 186.517 167.653 187.611 167.27 188.54C165.739 187.119 164.127 185.807 162.432 184.604C160.792 183.347 159.097 182.199 157.348 181.16C156.801 185.533 154.997 188.649 151.936 190.508C148.929 192.312 144.829 193.077 139.636 192.804ZM108.476 193.624C108.093 191.437 107.765 188.622 107.492 185.178C107.219 181.679 107.027 177.825 106.918 173.616C106.809 169.352 106.781 164.979 106.836 160.496C106.891 155.959 107 151.531 107.164 147.212C107.383 142.893 107.656 138.903 107.984 135.24C108.367 131.577 108.804 128.516 109.296 126.056L120.776 128.762C120.175 130.621 119.655 133.19 119.218 136.47C118.781 139.695 118.453 143.331 118.234 147.376C118.015 151.367 117.879 155.521 117.824 159.84C117.824 164.104 117.906 168.286 118.07 172.386C118.234 176.431 118.48 180.121 118.808 183.456C119.136 186.791 119.546 189.469 120.038 191.492L108.476 193.624ZM167.844 139.012C167.133 137.153 166.149 135.213 164.892 133.19C163.635 131.113 162.459 129.391 161.366 128.024L167.27 124.662C167.926 125.427 168.691 126.493 169.566 127.86C170.441 129.227 171.288 130.621 172.108 132.042C172.928 133.463 173.557 134.666 173.994 135.65L167.844 139.012ZM176.618 134.01C175.907 132.151 174.923 130.211 173.666 128.188C172.409 126.111 171.233 124.389 170.14 123.022L176.044 119.66C176.7 120.425 177.465 121.491 178.34 122.858C179.215 124.225 180.062 125.619 180.882 127.04C181.702 128.461 182.331 129.664 182.768 130.648L176.618 134.01ZM140.538 182.554C142.451 182.554 143.791 182.171 144.556 181.406C145.376 180.586 145.786 178.973 145.786 176.568C145.021 176.404 144.228 176.267 143.408 176.158C142.643 176.049 141.877 175.967 141.112 175.912C139.527 175.803 138.16 176.049 137.012 176.65C135.919 177.197 135.317 178.017 135.208 179.11C135.153 180.258 135.645 181.133 136.684 181.734C137.723 182.281 139.007 182.554 140.538 182.554Z" fill="white"/>
<path d="M239.758 197.724C238.938 196.904 237.79 196.057 236.314 195.182C234.838 194.362 233.28 193.597 231.64 192.886C230.055 192.175 228.579 191.683 227.212 191.41C230.765 189.497 233.991 187.037 236.888 184.03C239.84 181.023 242.191 177.607 243.94 173.78C245.689 169.953 246.564 165.826 246.564 161.398C246.564 159.157 246.017 157.517 244.924 156.478C243.885 155.385 242.409 154.838 240.496 154.838C238.091 154.838 235.603 155.166 233.034 155.822C230.519 156.478 228.141 157.325 225.9 158.364C223.659 159.403 221.718 160.523 220.078 161.726C219.75 160.851 219.149 159.703 218.274 158.282C217.454 156.806 216.579 155.357 215.65 153.936C214.721 152.46 213.873 151.367 213.108 150.656C217.263 148.688 221.636 146.966 226.228 145.49C230.875 144.014 235.631 143.276 240.496 143.276C246.017 143.276 250.473 144.861 253.862 148.032C257.251 151.203 258.946 155.658 258.946 161.398C258.946 166.591 258.099 171.484 256.404 176.076C254.764 180.668 252.495 184.795 249.598 188.458C246.755 192.121 243.475 195.209 239.758 197.724ZM248.696 140.078C247.275 139.75 245.471 139.258 243.284 138.602C241.152 137.946 238.883 137.208 236.478 136.388C234.127 135.568 231.913 134.748 229.836 133.928C227.759 133.108 226.091 132.397 224.834 131.796L230.574 121.382C231.613 121.874 233.061 122.475 234.92 123.186C236.779 123.897 238.829 124.635 241.07 125.4C243.311 126.111 245.471 126.767 247.548 127.368C249.625 127.969 251.375 128.407 252.796 128.68L248.696 140.078Z" fill="white"/>
<path d="M313.804 196.33C311.563 196.33 309.485 195.756 307.572 194.608C305.659 193.515 304.128 192.011 302.98 190.098C301.887 188.185 301.34 186.053 301.34 183.702C301.34 181.406 301.887 179.329 302.98 177.47C304.128 175.557 305.631 174.053 307.49 172.96C309.403 171.812 311.508 171.238 313.804 171.238C316.155 171.238 318.259 171.812 320.118 172.96C322.031 174.053 323.535 175.557 324.628 177.47C325.776 179.329 326.35 181.406 326.35 183.702C326.35 186.053 325.776 188.185 324.628 190.098C323.535 192.011 322.031 193.515 320.118 194.608C318.205 195.756 316.1 196.33 313.804 196.33ZM313.804 191C315.827 191 317.521 190.289 318.888 188.868C320.309 187.392 321.02 185.697 321.02 183.784C321.02 181.816 320.337 180.121 318.97 178.7C317.603 177.224 315.881 176.486 313.804 176.486C311.781 176.486 310.059 177.197 308.638 178.618C307.271 180.039 306.588 181.761 306.588 183.784C306.588 185.752 307.271 187.447 308.638 188.868C310.059 190.289 311.781 191 313.804 191Z" fill="white"/>
</svg>
