<svg width="470" height="41" viewBox="0 0 470 41" fill="none" xmlns="http://www.w3.org/2000/svg">
<g clip-path="url(#clip0_201_2290)">
<path d="M21.8113 0C27.2893 0 30.8119 2.75454 32.2713 2.75454C33.5006 2.75454 33.8384 2.36413 34.7874 2.36413C37.1382 2.36413 40.1575 5.90672 40.1575 12.1532C40.1575 15.356 38.2525 18.06 34.9599 18.06C29.2016 18.06 30.6537 8.10457 20.697 8.10457C16.3908 8.10457 14.6008 12.1532 14.6008 15.2476C14.6008 23.569 19.022 30.6542 26.8508 30.6542C33.9535 30.6542 35.0174 26.7718 36.75 26.7718C38.3747 26.7718 39.1511 28.6805 39.1511 30.0903C39.1511 32.5629 36.5774 37.7394 33.7809 37.7394C31.883 37.7394 27.9651 41 21.3656 41C9.61883 41 0 31.6591 0 20.359C0 9.0589 10.7906 0 21.8113 0Z" fill="white"/>
<path d="M42.271 20.359C42.271 8.43714 51.7245 0 63.9098 0C79.3445 0 85.2754 13.6643 85.2754 20.9229C85.2754 33.0111 74.6501 41 63.2412 41C51.8323 41 42.271 32.3387 42.271 20.359ZM61.3433 8.3793C58.2089 8.3793 56.6489 11.6399 56.6489 14.3945C56.6489 19.1733 60.0062 32.6135 66.0449 32.6135C69.4597 32.6135 70.9118 29.6348 70.9118 26.5983C70.9118 21.4796 67.8925 8.3793 61.3505 8.3793H61.3433Z" fill="white"/>
<path d="M102.22 24.4077C101.882 23.6775 101.271 21.9857 100.264 21.9857C98.5319 21.9857 99.0927 29.4107 99.0927 31.2688C99.0927 37.2839 102.673 34.4716 102.673 37.5081C102.673 40.7108 96.6916 40.8265 94.5061 40.8265C92.5507 40.8265 87.4609 40.6602 87.4609 37.7322C87.4609 34.5294 90.8182 37.1683 91.2639 32.5557C91.7096 27.8346 92.2128 22.6003 92.2128 14.4451C92.2128 11.0688 91.99 9.32643 91.3717 8.0323C90.811 6.85385 87.6263 6.45621 87.6263 4.14992C87.6263 0.94713 92.8239 0.159085 97.3026 0.159085C103.845 0.159085 103.737 1.28693 105.412 4.14992C107.367 7.46838 110.839 16.6936 113.298 17.2503C115.031 17.6407 117.324 10.8374 119.337 7.12858C122.191 1.84362 122.248 0.151855 129.624 0.151855C132.083 0.151855 137.676 0.31814 137.676 3.86073C137.676 6.10918 135.16 6.55743 134.599 8.47332C134.153 10.0494 133.758 16.6863 133.758 19.2167C133.758 20.0626 134.096 26.2441 134.319 31.4784C134.484 35.5849 137.841 34.6812 137.841 37.2116C137.841 40.9783 130.178 40.8121 127.719 40.8121C125.426 40.8121 117.762 41.0362 117.762 37.4358C117.762 35.4693 120.279 35.1295 120.667 33.3293C120.89 32.3749 122.011 22.7015 120.049 22.7015C118.316 22.7015 116.526 27.6539 115.182 30.5169C113.952 33.1051 111.939 39.5179 110.149 39.2938C109.258 39.1781 108.805 39.2938 105.455 31.7026L102.213 24.3933L102.22 24.4077Z" fill="white"/>
<path d="M144.045 17.7129C144.045 10.5699 143.484 8.93597 142.873 8.15515C141.586 6.52122 139.408 6.35494 139.408 4.21493C139.408 0.16626 150.817 0.16626 151.931 0.16626C155.289 0.16626 162.168 0.281936 162.168 4.10648C162.168 6.13082 160.041 6.01514 158.754 7.48278C157.69 8.71907 157.632 13.7799 157.632 17.7201V23.2871C157.632 33.3003 158.301 33.0762 159.422 33.7485C160.817 34.5944 162.161 34.8764 162.161 36.6187C162.161 38.3611 161.658 40.8337 149.408 40.8337C147.057 40.8337 140.012 40.7759 140.012 37.1754C140.012 35.3752 141.91 35.0933 142.809 34.0233C143.477 33.2352 144.038 31.153 144.038 23.2798V17.7129H144.045Z" fill="white"/>
<path d="M193.649 14.3438C194.318 14.9078 196.108 16.5345 197.114 16.5345C198.509 16.5345 198.566 14.2282 198.566 13.2738C198.566 11.864 198.509 9.4493 198.063 8.15517C197.279 5.79104 194.318 6.63692 194.318 3.60042C194.318 -6.03497e-06 200.018 0.166279 202.369 0.166279C204.72 0.166279 210.924 -0.115682 210.924 3.7667C210.924 6.96949 207.962 5.79104 207.006 8.37929C206.28 10.4036 206.28 13.8884 206.28 16.0284V30.5964C206.28 33.1268 206.618 40.8337 202.865 40.8337C201.744 40.8337 200.795 40.1613 199.961 39.4311L182.679 23.851C181.895 23.1208 180.443 21.7688 179.264 21.7688C177.531 21.7688 177.474 25.4271 177.474 26.6055C177.474 28.1816 177.531 30.2638 177.862 31.7242C178.703 35.3246 181.665 33.9727 181.665 36.7272C181.665 40.4939 175.907 40.8337 173.276 40.8337C170.644 40.8337 164.944 40.4939 164.944 36.8429C164.944 33.8642 168.186 35.0427 168.746 31.4422C169.135 29.0203 169.25 25.4777 169.25 22.9473C169.25 18.8986 169.25 14.7921 168.631 10.7434C167.74 5.11867 163.707 7.30929 163.707 3.94022C163.707 -0.0506145 171.255 0.173508 173.772 0.173508C177.237 0.173508 177.855 0.397631 180.371 2.64609L193.627 14.3438H193.649Z" fill="white"/>
<path d="M237.883 32.787C239.838 32.787 241.297 31.3266 241.297 29.3022C241.297 24.6318 235.424 29.1866 235.424 24.0173C235.424 19.9108 243.871 19.6288 246.718 19.6288C257.228 19.6288 257.846 22.6075 257.846 24.2414C257.846 25.7018 256.617 26.714 255.273 26.9381C253.82 27.1044 253.705 27.3864 253.317 28.8468C251.139 37.0598 243.253 40.9928 235.309 40.9928C223.454 40.9928 213.109 32.7291 213.109 20.294C213.109 7.85875 223.116 0 235.086 0C240.01 0 242.692 1.51825 244.144 1.51825C245.151 1.51825 246.603 0.672368 247.609 0.672368C251.074 0.672368 253.145 6.40557 253.145 9.27579C253.145 12.146 251.743 14.8427 248.723 14.8427C243.188 14.8427 243.188 7.02733 235.582 7.02733C230.715 7.02733 227.588 11.076 227.588 17.0406C227.588 28.6226 234.295 32.787 237.875 32.787H237.883Z" fill="white"/>
<path d="M278.249 13.1003C278.249 7.25146 283.842 0 294.69 0C298.27 0 302.296 1.57609 303.137 1.57609C303.92 1.57609 304.704 0.788044 305.876 0.788044C307.781 0.788044 312.029 5.11867 312.029 9.83971C312.029 11.7484 310.8 13.6643 308.73 13.6643C304.984 13.6643 302.799 7.25145 296.983 7.25145C295.25 7.25145 293.403 8.0395 293.403 10.0638C293.403 14.5101 301.066 13.3245 307.551 17.6551C311.016 19.9614 312.748 22.7738 312.748 26.9887C312.748 33.5678 307.378 40.9928 294.352 40.9928C290.664 40.9928 284.345 40.0384 281.153 38.2961C278.471 36.7778 277.185 30.8133 277.185 27.9503C277.185 26.432 277.853 24.9138 279.535 24.9138C283.504 24.9138 282.835 33.857 293.122 33.857C294.352 33.857 297.429 33.2352 297.429 31.1025C297.429 27.0538 289.765 28.066 283.561 23.063C280.484 20.5904 278.249 17.1562 278.249 13.1076V13.1003Z" fill="white"/>
<path d="M315.272 20.359C315.272 8.43714 324.725 0 336.911 0C352.345 0 358.269 13.6643 358.269 20.9229C358.269 33.0111 347.644 41 336.235 41C324.826 41 315.265 32.3387 315.265 20.359H315.272ZM334.344 8.3793C331.21 8.3793 329.643 11.6399 329.643 14.3945C329.643 19.1733 333 32.6135 339.039 32.6135C342.453 32.6135 343.905 29.6348 343.905 26.5983C343.905 21.4796 340.886 8.3793 334.344 8.3793Z" fill="white"/>
<path d="M361.008 20.359C361.008 8.43714 370.462 0 382.647 0C398.082 0 404.005 13.6643 404.005 20.9229C404.005 33.0111 393.38 41 381.971 41C370.562 41 361.001 32.3387 361.001 20.359H361.008ZM380.08 8.3793C376.946 8.3793 375.379 11.6399 375.379 14.3945C375.379 19.1733 378.736 32.6135 384.775 32.6135C388.19 32.6135 389.642 29.6348 389.642 26.5983C389.642 21.4796 386.622 8.3793 380.08 8.3793Z" fill="white"/>
<path d="M436.111 14.3438C436.78 14.9078 438.57 16.5345 439.576 16.5345C440.971 16.5345 441.029 14.2282 441.029 13.2738C441.029 11.864 440.971 9.4493 440.525 8.15517C439.742 5.79104 436.78 6.63692 436.78 3.60042C436.78 -6.03497e-06 442.481 0.166279 444.832 0.166279C447.182 0.166279 453.386 -0.115682 453.386 3.7667C453.386 6.96949 450.425 5.79104 449.468 8.37929C448.742 10.4036 448.742 13.8884 448.742 16.0284V30.5964C448.742 33.1268 449.08 40.8337 445.328 40.8337C444.206 40.8337 443.257 40.1613 442.416 39.4311L425.134 23.851C424.35 23.1208 422.898 21.7688 421.719 21.7688C419.986 21.7688 419.929 25.4271 419.929 26.6055C419.929 28.1816 419.986 30.2638 420.317 31.7242C421.158 35.3246 424.12 33.9727 424.12 36.7272C424.12 40.4939 418.362 40.8337 415.731 40.8337C413.099 40.8337 407.399 40.4939 407.399 36.8429C407.399 33.8642 410.641 35.0427 411.202 31.4422C411.59 29.0203 411.705 25.4777 411.705 22.9473C411.705 18.8986 411.705 14.7921 411.087 10.7434C410.188 5.11867 406.162 7.30929 406.162 3.94022C406.162 -0.0506145 413.711 0.173508 416.227 0.173508C419.692 0.173508 420.31 0.397631 422.826 2.64609L436.083 14.3438H436.111Z" fill="white"/>
<path d="M467.146 19.4047C466.643 20.4747 464.687 24.1257 463.285 24.1257C461.883 24.1257 459.928 20.4675 459.425 19.4047C457.858 16.3104 456.571 12.0954 456.571 8.60342C456.571 4.43908 458.526 0 463.278 0C468.03 0 469.985 4.44631 469.985 8.60342C469.985 12.0882 468.699 16.3104 467.131 19.4047H467.146ZM463.285 41C459.871 41 457.081 38.1876 457.081 34.7607C457.081 31.3338 459.878 28.5214 463.285 28.5214C466.693 28.5214 469.489 31.3338 469.489 34.7607C469.489 38.1876 466.693 41 463.285 41Z" fill="white"/>
</g>
<defs>
<clipPath id="clip0_201_2290">
<rect width="470" height="41" fill="white"/>
</clipPath>
</defs>
</svg>
