<svg width="714" height="299" viewBox="0 0 714 299" fill="none" xmlns="http://www.w3.org/2000/svg">
<g clip-path="url(#clip0_789_682)">
<path d="M365.745 14.9661C366.635 14.5385 367.455 14.1109 368.346 13.6833C368.417 14.0396 368.453 14.3603 368.524 14.6454C368.56 14.8948 368.595 15.1799 368.702 15.3937C368.916 15.7857 368.916 16.1777 368.702 16.5696C368.239 17.4248 367.776 18.2444 367.384 19.0996C367.134 19.5985 367.027 20.1686 366.849 20.7031C366.742 21.0595 366.707 21.4871 366.6 21.8434C366.208 22.9837 366.386 24.1953 366.208 25.3712C366.137 25.7275 366.101 26.1195 365.958 26.4402C365.46 27.8299 364.569 28.9345 363.464 29.861C363.108 30.1461 362.751 30.5024 362.787 31.0013C362.787 31.1082 362.858 31.2864 362.965 31.3576C363.464 31.7852 363.963 32.1772 364.462 32.6048C364.533 32.6761 364.64 32.783 364.64 32.8899C364.783 33.4244 365.175 33.6738 365.638 33.8876C366.208 34.1371 366.778 34.3509 367.241 34.7072C367.633 34.9923 367.954 35.4199 368.239 35.8119C368.916 36.8452 369.201 38.0568 369.486 39.2327C369.664 39.8385 369.557 40.5511 369.629 41.1926C369.7 41.9052 369.878 42.6179 370.021 43.3662C370.092 43.8294 370.128 44.3283 370.27 44.7916C370.377 45.1479 370.591 45.5042 370.805 45.7893C371.41 46.6445 371.945 47.5354 372.016 48.6044C372.016 48.7825 372.052 48.9607 372.016 49.1032C371.66 50.0653 371.731 51.0987 371.802 52.0965C371.802 52.3103 371.909 52.5597 372.052 52.7379C372.373 53.1655 372.836 53.5575 373.121 54.0207C373.37 54.4483 373.477 54.9472 373.62 55.4104C373.905 56.5507 374.19 57.691 374.475 58.8313C374.475 58.9025 374.582 58.9738 374.617 59.0451C375.686 60.2566 376.898 61.3612 378.145 62.4303C378.216 62.5015 378.323 62.5728 378.395 62.6797C378.858 63.428 379.571 63.9625 380.212 64.5683C381.103 65.4235 381.495 66.5638 381.709 67.7397C381.744 67.9891 381.53 68.3811 381.317 68.5949C381.103 68.8087 380.818 68.7018 380.533 68.5236C378.751 67.419 376.898 66.3856 374.831 65.8867C373.976 65.6729 373.085 65.5304 372.23 65.2097C371.161 64.8177 370.056 64.5326 369.13 63.7487C368.631 63.3211 367.99 63.1786 367.384 63.0004C366.564 62.751 365.816 62.8579 365.032 63.1786C364.212 63.5349 363.642 64.1407 363.215 64.8534C362.645 65.8155 361.861 66.4212 360.827 66.7419C360.115 66.9557 359.402 67.027 358.689 67.2052C357.727 67.4546 356.729 67.7041 355.803 68.096C354.876 68.488 354.092 69.1294 353.451 69.949C352.026 71.8376 350.137 73.0491 347.892 73.7618C346.894 74.0825 345.968 74.5814 344.97 74.8664C343.901 75.1515 343.117 75.7216 342.333 76.3987C341.122 77.4677 340.338 78.7861 339.946 80.3184C339.661 81.4943 339.055 82.5277 338.414 83.5254C338.164 83.9174 337.915 84.2737 337.665 84.6301C336.988 85.5922 336.454 86.5899 335.955 87.6233C334.957 89.797 333.532 91.6499 331.821 93.3247C331.002 94.1443 330.147 94.9995 329.434 95.926C328.828 96.7099 328.258 97.5295 327.866 98.4203C327.046 100.273 326.298 102.198 325.657 104.122C325.229 105.369 325.158 106.687 325.372 108.041C325.479 108.718 325.728 109.253 326.12 109.787C326.761 110.714 327.438 111.605 327.973 112.603C328.686 113.921 329.042 115.311 328.792 116.843C328.579 118.411 329.078 119.836 329.79 121.19C331.501 124.362 333.959 126.785 336.953 128.745C338.449 129.707 339.946 130.598 341.442 131.524C341.87 131.809 342.298 132.13 342.583 132.522C343.331 133.626 344.364 133.912 345.612 133.733C346.431 133.626 347.251 133.555 348.07 133.626C348.605 133.662 349.104 133.947 349.603 134.197C349.852 134.304 349.674 135.087 349.389 135.159C349.068 135.266 348.783 135.337 348.462 135.444C348.106 135.586 347.75 135.729 347.322 135.907C347.75 136.228 348.07 136.513 348.427 136.762C349.068 137.19 349.709 137.617 350.493 137.831C351.42 138.045 352.097 138.722 352.881 139.257C354.484 140.326 356.195 141.181 358.119 141.145C359.473 141.145 360.792 140.753 361.861 139.684C362.573 138.972 363.428 138.401 364.319 137.974C366.208 137.047 368.096 136.085 370.092 135.444C370.983 135.159 371.66 134.482 372.373 133.947C372.551 133.805 372.693 133.662 372.907 133.555C373.727 133.092 374.332 132.415 374.867 131.631C375.33 130.99 375.829 130.384 376.364 129.778C377.753 128.246 378.608 126.428 379.285 124.504C379.642 123.471 380.069 122.473 380.533 121.511C380.889 120.763 380.996 120.014 381.067 119.23C381.067 118.874 381.138 118.518 381.174 118.161C381.174 117.769 381.423 117.449 381.744 117.235C381.887 117.164 382.065 117.128 382.243 117.164C382.421 117.164 382.599 117.306 382.778 117.377C383.348 117.663 383.348 117.663 383.704 117.092C384.559 115.738 385.414 114.349 386.305 112.995C386.59 112.567 387.089 112.246 387.481 111.89C388.265 112.531 388.336 112.638 387.98 113.565C387.446 114.954 386.947 116.308 386.341 117.663C386.02 118.34 385.557 118.945 385.129 119.551C384.631 120.299 384.132 121.048 383.668 121.796C383.526 122.046 383.348 122.295 383.241 122.58C382.849 123.72 381.958 124.611 381.459 125.68C380.853 126.999 379.891 128.103 379 129.208C378.038 130.384 377.29 131.667 376.684 133.021C376.114 134.232 375.401 135.337 374.225 136.05C373.548 136.442 372.765 136.762 372.016 137.047C370.306 137.653 368.56 138.188 366.956 139.114C365.673 139.862 364.426 140.682 363.143 141.43C362.324 141.893 361.433 142.25 360.578 142.642C360.115 142.856 359.616 143.141 359.152 143.319C358.796 143.461 358.404 143.675 358.012 143.64C356.836 143.64 355.66 143.782 354.484 143.533C353.879 143.39 353.202 143.39 352.596 143.248C350.992 142.82 349.389 142.285 347.999 141.323C343.367 138.081 338.841 134.767 334.779 130.776C331.964 127.996 329.648 124.896 327.545 121.582C326.619 120.121 325.55 118.732 324.588 117.271C323.911 116.202 323.234 115.061 322.735 113.885C322.343 112.995 322.307 111.961 322.378 110.963C322.521 109.609 322.735 108.255 322.806 106.901C322.877 105.868 323.234 104.941 323.626 104.05C324.374 102.304 325.158 100.558 325.87 98.8123C326.512 97.2088 327.438 95.7834 328.543 94.465C329.47 93.3603 330.36 92.2201 331.287 91.1154C332.32 89.9039 332.997 88.5498 333.461 87.0175C333.817 85.8416 334.316 84.737 334.708 83.5611C334.921 82.9197 335.171 82.2783 335.242 81.6368C335.634 78.7149 337.06 76.3274 339.198 74.3319C340.195 73.4054 341.193 72.5146 342.155 71.5525C343.01 70.6973 343.866 69.8421 344.507 68.7731C344.721 68.4167 345.006 68.2386 345.362 68.096C346.253 67.7753 347.144 67.3833 348.035 67.1339C349.424 66.7419 350.814 66.3856 352.204 66.0649C352.667 65.958 353.095 65.8155 353.451 65.4948C353.7 65.281 353.986 65.0672 354.164 64.7821C354.271 64.6395 354.235 64.4258 354.271 64.2119C354.092 64.2119 353.914 64.1407 353.772 64.2119C352.311 64.7821 350.85 65.4591 349.282 65.7442C347.928 65.9936 346.681 66.5281 345.327 66.8488C344.685 66.9914 344.079 67.3477 343.474 67.6328C343.26 67.7397 343.117 67.9535 342.939 68.1317C342.262 68.7731 341.585 69.3788 340.908 70.0202C340.587 70.3053 340.302 70.6617 339.946 70.8755C339.411 71.1962 338.841 71.4812 338.235 71.6594C337.451 71.9088 336.988 72.479 336.454 73.0491C336.204 73.3342 335.955 73.6193 335.705 73.94C335.313 74.4388 334.708 74.5457 334.173 74.6883C333.746 74.7952 333.282 74.8664 332.855 74.9733C332.035 75.1515 331.358 75.6504 330.681 76.078C330.218 76.3987 329.755 76.7194 329.327 76.9688C328.935 76.5412 328.579 76.1492 328.258 75.7216C328.187 75.6504 328.151 75.5791 328.115 75.5078C327.866 75.0802 327.973 74.8664 328.507 74.8308C328.757 74.8308 328.971 74.7595 328.935 74.4745C328.935 74.3676 328.65 74.2607 328.472 74.2607C328.294 74.2607 328.115 74.3319 327.902 74.3676C327.438 74.4745 327.225 74.3676 327.011 73.94C326.654 73.156 326.476 72.3364 326.583 71.4812C326.619 71.1249 326.868 70.8042 327.046 70.4835C327.26 70.0915 327.617 69.7352 327.51 69.2363C327.581 69.3076 327.688 69.3788 327.759 69.4501C328.115 69.8064 328.543 69.8064 328.864 69.4501C328.935 69.3788 328.971 69.2007 328.935 69.0938C328.935 69.0581 328.792 69.0225 328.686 68.9512C328.543 68.88 328.401 68.7731 328.258 68.6662C328.115 68.5593 327.937 68.4167 327.723 68.2742C327.83 68.1317 327.937 67.8466 328.115 67.6684C328.222 67.5615 328.472 67.5615 328.65 67.5971C329.398 67.7397 330.111 67.9535 330.824 68.0604C331.287 68.1317 331.786 68.0604 332.285 68.0604C332.356 68.0604 332.427 68.0604 332.498 67.9891C332.677 67.8466 332.748 67.5972 333.069 67.7041C333.46 67.811 333.817 67.9535 334.102 68.2742C334.636 68.9869 334.886 69.8421 334.886 70.6973C334.886 71.5525 334.636 72.4077 334.458 73.2629C334.423 73.5124 334.28 73.7618 334.565 73.9043C334.85 74.0469 335.135 73.8331 335.242 73.5836C335.42 73.0847 335.634 72.5502 335.67 72.0157C335.741 71.1605 335.67 70.3053 335.634 69.4501C335.599 68.9156 335.385 68.3811 335.242 67.8466C335.1 67.3477 335.135 67.3834 335.563 67.2408C336.489 66.9201 337.416 66.5638 338.342 66.1718C338.592 66.0649 338.77 65.8155 339.055 65.4948C339.091 65.8155 339.198 66.0649 339.162 66.2787C339.019 67.3477 338.841 68.4524 338.734 69.557C339.483 69.1294 340.231 68.7374 340.623 68.0248C341.3 66.7776 341.656 65.4235 341.692 63.9981C341.692 63.7131 341.728 63.4636 341.763 63.1786C341.763 62.9648 341.799 62.751 341.763 62.5728C341.656 61.9314 341.514 61.7889 340.872 61.8245C340.73 61.8245 340.587 61.8245 340.445 61.8601C339.91 62.0027 339.518 61.7532 339.091 61.5038C338.948 61.3969 338.699 61.3612 338.485 61.3969C337.451 61.6107 336.454 61.8245 335.456 62.1096C335.064 62.2165 334.708 62.4303 334.387 62.6797C333.959 63.0004 333.496 63.1429 332.962 63.036C332 62.8579 331.287 62.3234 330.717 61.5394C330.396 61.0762 330.004 60.6486 329.648 60.221C329.042 59.5439 329.006 58.5818 329.363 57.7979C329.79 56.8001 330.432 55.9093 331.002 54.9828C331.109 54.8046 331.287 54.6265 331.465 54.5552C331.821 54.4127 332.249 54.4127 332.605 54.2345C332.89 54.092 333.14 53.8069 333.318 53.5218C333.496 53.2368 333.746 53.1299 334.138 53.0229C334.138 53.3793 334.138 53.7 334.031 53.9851C333.924 54.377 334.138 54.4483 334.423 54.5196C334.743 54.6265 334.957 54.6265 335.1 54.2701C335.242 53.8782 335.456 53.4862 335.634 53.0586C336.062 52.0608 336.881 51.3482 337.594 50.5642C338.057 50.0653 338.556 49.6021 338.948 49.1032C339.198 48.8182 339.34 48.4262 339.447 48.0699C339.875 46.7158 340.195 45.3261 340.623 44.0076C340.837 43.4018 341.122 42.8317 341.478 42.2972C341.87 41.7271 342.333 41.2282 342.761 40.658C343.153 40.1592 343.759 40.1592 344.293 40.0879C345.006 39.981 345.825 39.4109 346.004 38.7338C346.146 38.0924 346.289 37.4154 346.431 36.774C346.681 35.7762 347.144 35.0279 348.213 34.7785C348.248 34.7785 348.32 34.7428 348.355 34.7072C348.249 34.244 348.142 33.7807 347.999 33.3531C347.821 32.8186 347.999 32.391 348.355 32.0347C349.032 31.4289 349.745 30.8944 350.458 30.3243C350.672 30.1461 350.885 29.9323 350.957 29.6828C351.242 28.792 351.456 27.8655 351.776 26.9747C351.954 26.4758 352.204 25.9769 352.489 25.5493C352.917 24.9436 353.059 24.2665 353.166 23.5538C353.415 21.9503 353.415 20.3468 353.344 18.7433C353.308 18.0663 353.415 17.3892 353.843 16.8191C354.164 16.3915 354.413 15.9282 354.698 15.5006C355.161 14.8236 355.518 14.0753 355.767 13.2913C355.945 12.7212 356.266 12.1867 356.587 11.6878C357.121 10.797 357.691 9.90613 358.262 9.05092C358.511 8.69458 358.511 8.30261 358.547 7.91064C358.654 6.94853 358.796 5.95078 358.974 4.98867C359.046 4.73923 359.295 4.4898 359.544 4.276C360.043 3.84839 360.578 3.49205 361.077 3.10008C361.184 3.02881 361.397 2.95755 361.54 2.99318C362.181 3.17135 362.751 2.99318 363.357 2.70811C364.07 2.38741 364.462 1.88854 364.64 1.17586C364.711 0.926424 364.854 0.783889 365.103 0.676988C365.78 0.463186 366.457 0.213749 367.099 -0.0356867C367.455 -0.178222 367.669 -0.0356867 367.99 0.106848C368.631 0.498819 368.56 0.962058 368.453 1.56783C368.31 2.45867 368.203 3.38515 368.275 4.276C368.346 5.38064 368.096 6.41402 367.74 7.41176C367.348 8.51641 366.742 9.54979 366.03 10.5119C365.745 10.8682 365.709 11.4384 365.673 11.9372C365.673 12.2936 365.852 12.6856 365.852 13.0775C365.852 13.4695 365.78 13.8615 365.745 14.2534C365.745 14.4316 365.745 14.6098 365.745 14.8592V14.9661ZM366.956 6.30712C367.063 5.0243 367.17 4.02656 367.241 3.02881C367.241 2.67248 367.241 2.31614 367.206 1.99544C367.17 1.78163 366.956 1.60347 366.742 1.46093C366.671 1.38966 366.422 1.5322 366.279 1.60347C365.923 1.78163 365.78 2.13797 365.602 2.45867C365.353 2.92191 365.032 3.34952 364.676 3.74149C364.284 4.24036 363.714 4.63233 363.714 5.34501C363.714 5.45191 363.642 5.55881 363.571 5.66571C363.036 6.23585 362.502 6.80599 361.967 7.3405C361.469 7.83937 360.97 8.37388 360.506 8.87275C360.008 9.40725 359.544 9.97739 359.046 10.5119C358.796 10.797 358.796 10.9395 359.152 11.082C360.008 11.3671 360.613 12.0085 361.255 12.6143C361.718 13.0419 362.039 13.5764 362.645 13.7902C362.787 13.8258 362.93 13.8971 363.036 13.8615C363.82 13.7189 364.248 13.1844 364.177 12.4005C364.177 12.1511 363.999 11.866 363.856 11.6165C363.642 11.2602 363.714 11.0464 363.999 10.7613C364.604 10.1912 365.21 9.62106 365.816 9.01528C366.03 8.80148 366.244 8.55204 366.35 8.30261C366.635 7.5543 366.849 6.77036 366.992 6.27148L366.956 6.30712ZM370.733 50.2791C370.769 49.7446 370.876 49.3527 370.84 48.9607C370.733 48.1411 370.27 47.4285 369.807 46.787C369.094 45.8606 368.096 45.2548 367.099 44.6134C366.422 44.1858 365.673 44.1858 364.961 44.0432C364.854 44.0432 364.676 44.1145 364.64 44.2214C364.604 44.2927 364.676 44.4709 364.747 44.5421C364.961 44.8628 365.175 45.2192 365.388 45.5399C365.709 46.0031 365.994 46.4663 366.315 46.8939C366.493 47.1434 366.742 47.3572 366.885 47.6423C367.384 48.4975 368.096 49.0676 368.916 49.5665C369.451 49.8872 370.092 49.9941 370.769 50.2435L370.733 50.2791ZM362.894 48.8182C363.642 48.9251 363.999 48.64 363.999 47.9986C363.999 46.7158 363.571 45.6824 362.502 44.9697C361.825 44.5421 361.184 44.1145 360.542 43.6869C360.043 43.3306 359.544 42.9386 359.046 42.5466C358.939 42.4754 358.832 42.3685 358.689 42.2972C358.44 42.1903 358.226 42.3685 358.297 42.6179C358.475 43.2593 358.689 43.9007 358.903 44.5065C359.01 44.8272 359.188 45.1123 359.295 45.433C359.473 46.11 359.865 46.6089 360.4 47.0365C361.112 47.571 361.825 48.1055 362.538 48.6044C362.68 48.7113 362.858 48.7469 362.93 48.7825L362.894 48.8182ZM354.805 44.6847C354.805 44.6847 354.876 44.6134 354.948 44.5778C354.876 44.1145 354.948 43.6513 354.769 43.2237C354.413 42.3328 353.986 41.442 353.558 40.5511C353.202 39.8385 352.631 39.304 351.99 38.8764C351.634 38.6269 351.384 38.6982 351.313 39.1258C351.242 39.6247 351.206 40.1592 351.277 40.658C351.313 41.1213 351.491 41.5845 351.562 42.0478C351.669 42.6535 351.99 43.0455 352.453 43.4018C353.023 43.7938 353.594 44.1858 354.199 44.5421C354.378 44.649 354.627 44.6847 354.805 44.7203V44.6847ZM357.086 36.0969C357.086 36.0969 356.907 36.0969 356.801 36.0613C356.409 35.99 356.266 36.1682 356.409 36.5602C356.836 37.451 357.335 38.3419 358.119 38.9476C358.76 39.4821 359.437 39.981 360.079 40.4799C360.328 40.658 360.898 40.7649 361.041 40.6224C361.29 40.3373 361.184 40.0166 361.041 39.7316C360.934 39.4821 360.863 39.2327 360.72 38.9833C360.471 38.52 360.257 37.9855 359.901 37.6292C359.152 36.8096 358.19 36.3464 357.05 36.0969H357.086ZM361.789 37.2372C361.789 37.2372 361.718 37.3441 361.682 37.4154C361.789 37.5579 361.896 37.7361 361.967 37.8786C362.288 38.4131 362.609 38.9476 362.93 39.5178C363.25 40.0879 363.428 40.7293 363.82 41.2282C364.284 41.7627 364.925 42.1903 365.495 42.6179C365.638 42.7248 365.852 42.7604 366.065 42.7604C366.493 42.7604 366.6 42.5466 366.422 42.1547C366.208 41.6914 365.958 41.1925 365.852 40.6937C365.602 39.5534 364.818 38.8407 363.892 38.2349C363.5 37.9855 363.143 37.7717 362.716 37.5579C362.431 37.4154 362.074 37.3441 361.789 37.2372ZM344.364 42.0478C344.186 42.0478 344.115 42.0478 344.079 42.0834C343.652 42.3685 343.224 42.6179 342.797 42.903C341.906 43.4731 341.549 44.3639 341.336 45.3617C341.086 46.4307 341.193 47.4997 341.193 48.5687C341.193 48.6756 341.336 48.8538 341.407 48.8538C341.514 48.8538 341.692 48.7825 341.728 48.6756C342.084 47.963 342.476 47.2503 342.583 46.4307C342.761 45.0766 343.331 43.8294 344.044 42.6892C344.151 42.511 344.222 42.2972 344.364 42.0478ZM360.934 34.3509C361.041 34.6003 361.148 34.9566 361.326 35.2417C361.504 35.4911 361.789 35.705 362.074 35.9188C362.823 36.4889 363.571 37.0234 364.355 37.5579C364.462 37.6292 364.676 37.6292 364.818 37.6648C364.818 37.4866 364.889 37.2372 364.818 37.1303C364.426 36.4889 363.963 35.8831 363.535 35.2417C363.108 34.6003 362.716 33.9589 362.288 33.3531C362.11 33.0681 361.682 32.9968 361.54 33.2462C361.326 33.5669 361.184 33.9233 360.934 34.3865V34.3509ZM347.465 41.1213C347.465 41.1213 347.465 41.1213 347.429 41.1213C347.429 41.5133 347.322 41.9409 347.429 42.2972C347.536 42.8317 347.75 43.3306 347.963 43.8651C347.999 43.972 348.177 44.1145 348.249 44.1145C348.355 44.1145 348.534 43.9363 348.569 43.8294C348.712 43.2949 348.783 42.7248 348.997 42.1903C349.46 41.0144 349.139 39.8028 349.282 38.6269C349.282 38.52 349.211 38.3775 349.104 38.3419C349.032 38.3419 348.89 38.3775 348.819 38.4844C348.462 38.9833 348.106 39.4821 347.75 39.981C347.678 40.1235 347.643 40.3017 347.607 40.4442C347.571 40.658 347.536 40.9075 347.5 41.1213H347.465ZM352.097 33.8876C351.741 33.8876 351.562 33.9589 351.527 34.244C351.42 35.0635 351.634 35.8475 352.026 36.5602C352.097 36.6671 352.204 36.774 352.311 36.8809C353.308 37.5223 354.271 38.1637 355.268 38.7695C355.375 38.8407 355.589 38.6982 355.732 38.6269C355.732 38.6269 355.732 38.3419 355.66 38.3062C354.199 37.2016 353.415 35.5624 352.346 34.1727C352.275 34.0658 352.168 33.9945 352.097 33.9233V33.8876ZM365.388 34.6359C365.139 34.6003 364.961 34.7428 365.032 35.0279C365.068 35.1704 365.21 35.2773 365.246 35.4199C365.424 35.8475 365.709 36.2751 365.78 36.7383C365.958 37.8786 366.529 38.6626 367.669 38.9833C367.776 38.9833 367.954 38.9833 368.025 38.9833C368.096 38.912 368.132 38.7338 368.132 38.6269C368.132 38.4131 368.025 38.1637 368.025 37.9499C367.954 37.059 367.633 36.3107 366.956 35.705C366.921 35.6693 366.849 35.598 366.814 35.5624C366.493 35.0279 365.923 34.921 365.388 34.7072V34.6359ZM343.367 63.7487C343.367 63.7487 343.438 63.7487 343.509 63.7487C343.652 63.3567 343.866 63.0004 343.972 62.6084C344.258 61.3256 344.507 60.0784 344.756 58.7956C344.756 58.6887 344.721 58.4749 344.649 58.4393C344.543 58.4036 344.364 58.4393 344.258 58.5462C344.044 58.6531 343.901 58.8669 343.687 58.9382C342.797 59.3658 342.618 60.221 342.476 61.0405C342.476 61.1118 342.476 61.2187 342.547 61.29C342.975 61.8245 343.153 62.4303 343.224 63.1073C343.224 63.3211 343.331 63.4993 343.367 63.7131V63.7487ZM356.765 31.2507C356.765 31.2507 357.014 31.4645 357.121 31.5358C357.763 32.0347 358.404 32.5692 359.046 33.0681C359.117 33.1393 359.295 33.175 359.402 33.1393C360.008 32.9612 360.613 32.7474 361.184 32.5336C361.469 32.4266 361.504 32.1772 361.326 31.9634C360.863 31.5002 360.364 31.0726 359.687 31.0726C358.832 31.0726 357.941 31.1082 357.086 31.1438C357.014 31.1438 356.943 31.1795 356.801 31.2507H356.765ZM344.293 50.4573L344.436 50.5286C344.685 50.2435 344.935 49.9941 345.148 49.709C345.968 48.6044 345.897 47.2859 346.039 46.0031C346.039 45.7893 346.039 45.5399 346.039 45.3261C346.039 45.1835 345.861 45.0054 345.754 45.0054C345.647 45.0054 345.433 45.1479 345.398 45.2548C345.22 45.6468 345.077 46.0744 344.97 46.502C344.828 47.1434 344.685 47.7492 344.614 48.3906C344.507 49.0676 344.436 49.7446 344.364 50.4573H344.293ZM351.349 37.3085C351.206 37.0234 351.099 36.8452 351.028 36.6671C350.387 35.5268 349.816 34.4221 350.244 33.0681C350.315 32.8186 350.244 32.6761 349.995 32.6404C349.745 32.6048 349.496 32.783 349.46 33.0324C349.46 33.3531 349.389 33.6382 349.353 33.9589C349.353 34.2796 349.246 34.6003 349.353 34.921C349.531 35.6693 349.888 36.3107 350.387 36.8809C350.636 37.1659 350.921 37.3085 351.42 37.3441L351.349 37.3085ZM352.026 30.6093C352.026 30.6093 351.954 30.7162 351.954 30.7519C352.239 31.1438 352.596 31.5002 352.845 31.9278C353.273 32.7474 354.057 32.9612 354.841 33.1037C355.019 33.1037 355.197 33.0324 355.411 32.9612C355.34 32.783 355.34 32.5692 355.197 32.4267C354.627 31.714 353.843 31.322 353.023 30.8944C352.703 30.7519 352.346 30.7162 352.026 30.6093ZM346.467 53.8425C345.719 54.2701 345.077 54.6977 344.685 55.3391C344.115 56.23 344.151 56.2656 345.077 56.6932C345.54 56.907 345.79 56.7645 345.897 56.2656C346.039 55.5886 346.253 54.9115 346.396 54.2701C346.396 54.1632 346.396 54.0563 346.467 53.8425ZM355.91 33.2106C355.91 33.2106 355.91 33.2819 355.91 33.3175C356.587 34.244 357.513 34.8141 358.511 35.3486C358.618 35.4199 358.832 35.313 358.974 35.2773C358.939 35.0992 358.974 34.8854 358.832 34.8141C358.297 34.3509 357.798 33.852 357.228 33.46C356.872 33.2106 356.409 32.9612 355.91 33.2462V33.2106ZM362.181 4.7036C362.181 4.7036 362.146 4.56107 362.039 4.52543C361.825 4.45416 361.005 4.8105 360.934 5.0243C360.72 5.52318 360.471 5.98642 360.293 6.48529C360.257 6.59219 360.328 6.77036 360.364 6.91289C360.471 6.91289 360.613 6.84162 360.72 6.80599C360.792 6.80599 360.863 6.69909 360.934 6.62782C361.504 6.12895 362.039 5.59444 362.181 4.7036ZM339.661 51.9183C339.483 52.0252 339.376 52.0608 339.304 52.1321C338.77 52.5953 338.2 53.0586 337.665 53.5575C337.594 53.6287 337.487 53.8069 337.523 53.8782C337.594 53.9851 337.772 54.1632 337.879 54.1632C338.307 54.1632 338.734 54.0563 339.019 53.7C339.376 53.2368 339.447 52.631 339.625 51.9539L339.661 51.9183ZM330.182 73.9043C330.752 73.9756 330.93 73.8331 330.966 73.3698C330.966 73.0135 330.859 72.8709 330.467 72.8353C330.111 72.7997 329.719 73.156 329.683 73.4767C329.683 73.8331 329.897 73.8687 330.147 73.9043H330.182ZM332.783 57.5841C332.819 57.299 332.677 57.0852 332.427 57.1208C332.178 57.1921 331.893 57.299 331.714 57.4415C331.429 57.6197 331.501 58.1186 331.786 58.1898C332.178 58.2967 332.748 57.9404 332.819 57.5484L332.783 57.5841ZM331.216 58.7243C331.216 58.7243 331.144 58.5818 331.109 58.4749C331.002 58.2967 330.895 58.1542 330.752 57.976C330.717 57.9048 330.645 57.8335 330.61 57.8335C330.539 57.8335 330.432 57.9048 330.432 57.9404C330.36 58.2255 330.289 58.5105 330.289 58.7956C330.289 59.0807 330.467 59.2232 330.752 59.2232C331.037 59.2232 331.18 59.0807 331.251 58.7243H331.216Z" fill="#CB0F13"/>
<path d="M370.912 124.896C370.698 125.431 370.484 126.108 370.199 126.785C370.163 126.892 370.021 126.999 369.914 127.07C369.451 127.284 369.023 127.533 368.56 127.711C368.31 127.818 368.275 127.997 368.239 128.21C368.097 129.208 368.097 130.277 367.776 131.204C367.419 132.379 366.814 133.484 366.279 134.589C365.923 135.301 365.567 136.014 364.961 136.549C364.64 136.834 364.248 136.941 363.82 136.976C363.678 136.976 363.5 136.869 363.429 136.727C362.823 136.014 362.645 135.195 363.037 134.304C363.143 134.054 363.215 133.769 363.322 133.555C363.571 133.057 363.464 132.629 363.037 132.273C362.645 131.952 362.181 131.667 361.754 131.417C361.469 131.239 361.291 131.346 361.219 131.667C360.934 132.914 360.649 134.197 360.328 135.444C360.293 135.658 360.079 135.8 359.936 135.978C358.974 137.083 357.691 137.475 356.337 137.725C356.231 137.725 356.052 137.653 355.945 137.546C355.375 136.976 355.268 136.264 355.233 135.515C355.162 134.518 355.126 133.484 355.019 132.486C355.019 132.166 354.841 131.809 354.627 131.524C354.235 130.954 353.807 130.455 353.38 129.921C353.309 129.814 353.202 129.671 353.166 129.564C352.952 128.424 352.738 127.284 352.738 126.108C352.738 125.146 352.667 124.219 352.596 123.257C352.596 123.115 352.489 122.972 352.418 122.901C351.171 121.511 350.565 119.765 349.923 118.055C349.71 117.52 349.674 116.879 349.674 116.273C349.674 115.881 349.923 115.453 350.137 115.097C350.28 114.848 350.707 114.883 351.064 115.168C351.491 115.525 351.919 115.917 352.382 116.237C352.703 116.451 353.023 116.736 353.415 116.344C353.736 116.024 354.092 115.311 353.772 114.883C353.415 114.42 353.059 113.957 352.667 113.529C351.776 112.531 351.135 111.391 350.529 110.18C349.531 108.184 349.175 106.046 348.997 103.837C348.997 103.659 348.961 103.481 348.926 103.302C348.712 102.661 348.676 102.02 348.783 101.307C348.89 100.701 348.534 100.202 348.177 99.7746C347.536 98.955 346.894 98.1711 346.217 97.3515C345.54 96.5676 345.932 95.2848 346.894 94.9997C347.073 94.9641 347.286 94.9997 347.465 95.1066C348.142 95.3917 348.676 95.8549 348.997 96.5319C349.638 97.8148 350.28 99.1332 350.921 100.416C351.099 100.808 351.313 101.2 351.563 101.556C351.705 101.734 351.954 101.913 352.168 102.02C353.166 102.376 354.092 102.839 354.983 103.374C355.874 103.908 356.908 103.979 357.941 103.872C358.582 103.801 359.224 103.694 359.901 103.659C360.115 103.659 360.328 103.766 360.507 103.872C361.611 104.443 362.431 105.298 363.108 106.367C364.319 108.184 365.602 109.93 366.778 111.783C367.598 113.102 368.275 114.527 368.987 115.917C369.379 116.665 369.7 117.413 370.092 118.162C370.484 118.91 370.52 119.73 370.627 120.513C370.733 121.476 370.805 122.438 370.876 123.4C370.876 123.863 370.876 124.291 370.876 124.932L370.912 124.896Z" fill="#CB0F13"/>
<path d="M375.437 110.856C375.473 111.07 375.508 111.32 375.579 111.534C376.15 113.101 376.755 114.669 377.361 116.237C377.432 116.415 377.539 116.558 377.611 116.7C378.181 117.663 378.573 118.66 378.573 119.801C378.573 121.083 378.501 122.331 378.003 123.506C377.468 124.754 376.898 126.001 376.185 127.141C375.615 128.032 374.796 128.745 374.047 129.529C373.94 129.635 373.691 129.635 373.513 129.671C373.335 129.671 373.192 129.635 373.014 129.6C372.123 129.457 372.052 129.315 371.802 128.495C371.517 127.533 371.66 126.607 371.874 125.716C372.23 124.397 372.266 123.079 372.266 121.725C372.266 121.19 372.266 120.656 372.266 120.086C372.266 119.444 372.159 118.838 371.838 118.233C371.517 117.663 371.41 116.95 371.09 116.38C370.021 114.349 368.952 112.317 367.776 110.322C367.063 109.11 366.101 108.006 365.317 106.83C364.818 106.046 364.426 105.191 363.963 104.335C363.428 103.302 363.215 102.197 362.93 101.093C362.751 100.273 362.288 99.5249 361.896 98.7766C361.005 97.2444 359.58 96.6742 357.905 96.3892C357.228 96.2823 356.515 95.9616 355.91 95.6052C355.625 95.4271 355.482 94.9638 355.34 94.6431C354.912 93.7166 355.019 92.7902 355.161 91.8281C355.268 91.0441 355.161 90.2958 354.805 89.6188C354.52 89.1199 354.556 88.6567 354.698 88.1578C354.698 88.0509 354.841 87.9083 354.948 87.8371C355.91 87.2313 356.907 86.9106 358.048 87.2669C358.404 87.3738 358.725 87.5876 359.045 87.8014C359.651 88.229 360.186 88.6923 360.791 89.1199C360.934 89.2268 361.112 89.3337 361.29 89.2981C361.825 89.2981 362.359 89.2981 362.858 89.013C363.072 88.8705 363.321 88.7992 363.571 88.6923C364.39 88.2647 365.21 88.3003 366.065 88.5141C366.742 88.6923 367.241 89.2268 367.704 89.69C368.595 90.5452 369.201 91.6143 369.736 92.7189C369.949 93.2178 370.306 93.7166 370.733 94.073C371.874 94.9995 372.622 96.1754 373.299 97.4226C373.513 97.8502 373.833 98.2065 374.083 98.5985C374.225 98.8123 374.439 98.8835 374.617 98.741C374.724 98.6341 374.831 98.3847 374.796 98.2778C374.617 97.7433 374.439 97.2087 374.154 96.7099C373.655 95.7834 373.121 94.8569 372.586 93.9304C372.444 93.681 372.337 93.4316 372.23 93.1465C372.052 92.7545 371.909 92.3269 372.159 91.9706C372.479 91.4717 373.049 91.4717 373.584 91.6142C374.831 91.9706 375.936 92.5407 376.969 93.2534C377.967 93.9661 378.893 94.75 379.606 95.7834C379.784 96.0685 379.998 96.3179 380.247 96.5673C381.103 97.4226 381.459 98.4916 381.851 99.5962C381.958 99.9525 382.207 100.238 382.386 100.558C382.742 101.2 382.884 101.841 382.671 102.554C382.671 102.625 382.528 102.732 382.421 102.768C381.815 102.875 381.21 102.981 380.675 102.625C380.426 102.483 380.176 102.34 379.891 102.197C379.713 102.091 379.535 102.126 379.606 102.411C379.677 102.732 379.713 103.053 379.856 103.338C380.782 104.906 380.996 106.687 381.281 108.433C381.281 108.612 381.352 108.754 381.388 108.932C381.566 110.037 381.067 110.999 380.639 111.997C380.426 112.496 380.354 112.959 380.319 113.493C380.283 114.099 380.176 114.705 379.998 115.311C379.856 115.774 379.642 115.81 379.179 115.667C378.537 115.453 378.145 114.99 377.824 114.455C377.254 113.458 376.72 112.46 376.15 111.462C376.007 111.213 375.829 110.999 375.686 110.785C375.615 110.785 375.579 110.821 375.508 110.856H375.437Z" fill="#CB0F13"/>
<path d="M340.053 89.8686C339.625 89.7973 339.304 89.7617 338.948 89.726C338.877 89.726 338.806 89.726 338.77 89.726C338.485 89.5835 338.2 89.4053 337.95 89.2628C338.093 89.049 338.2 88.7639 338.378 88.6214C339.019 88.0513 339.696 87.5168 340.409 86.9822C341.193 86.4121 341.514 85.5925 341.478 84.7017C341.478 83.8108 341.727 83.2407 342.511 82.9556C343.723 82.4924 344.935 81.9223 346.217 81.6015C347.607 81.2452 348.854 82.1717 348.783 83.7039C348.783 84.3097 348.64 84.9155 348.534 85.5213C348.284 87.1604 347.999 88.7996 347.714 90.4031C347.714 90.5813 347.571 90.7594 347.5 90.9376C346.894 92.0779 345.897 92.8618 345.006 93.717C344.115 94.6079 343.509 95.6769 343.082 96.8172C343.01 96.9953 343.046 97.2091 343.082 97.3873C343.153 98.2425 342.725 98.9908 342.44 99.7391C342.013 100.844 341.478 101.948 341.193 103.089C340.837 104.407 340.658 105.761 340.48 107.115C340.338 108.256 340.338 109.432 340.124 110.572C339.875 111.997 339.269 113.351 338.592 114.634C337.986 115.739 337.345 116.808 336.81 117.948C336.561 118.482 336.382 119.017 335.884 119.373C335.349 119.765 334.779 119.623 334.458 119.053C333.995 118.233 333.496 117.449 333.068 116.63C332.712 115.846 332.427 115.026 332.142 114.206C331.928 113.565 331.714 112.959 331.287 112.425C330.538 111.427 330.253 110.251 329.861 109.075C329.434 107.721 329.576 106.403 329.612 105.049C329.612 103.873 330.04 102.768 330.218 101.628C330.467 100.131 330.788 98.6701 331.073 97.1735C331.18 96.7103 331.394 96.2827 331.821 95.9976C332.819 95.3205 333.852 94.6435 334.85 93.9665C336.347 92.9687 337.843 91.971 339.304 90.9376C339.589 90.7238 339.768 90.2962 340.053 89.8329V89.8686Z" fill="#CB0F13"/>
<path d="M347.393 111.997C347.286 112.247 347.108 112.46 347.073 112.71C346.859 113.779 346.823 114.884 347.073 115.917C347.215 116.594 347.643 117.2 347.963 117.841C348.533 118.874 349.175 119.872 349.745 120.906C350.28 121.832 350.351 122.865 350.422 123.899C350.493 124.612 350.707 125.289 350.814 126.001C350.957 126.963 351.099 127.925 351.17 128.888C351.242 129.565 351.242 130.277 351.17 130.954C351.099 131.703 350.814 131.881 350.066 131.774C348.925 131.631 347.785 131.453 346.716 131.061C346.146 130.847 345.505 130.776 344.899 130.634C344.685 130.598 344.471 130.491 344.293 130.384C343.687 129.957 343.082 129.529 342.511 129.066C342.048 128.674 341.763 128.175 341.514 127.605C341.157 126.75 340.587 126.037 339.803 125.609C338.877 125.075 338.235 124.398 337.95 123.364C337.808 122.83 337.63 122.26 337.451 121.725C337.451 121.654 337.416 121.583 337.451 121.511C337.665 120.478 337.843 119.409 338.164 118.376C338.342 117.805 338.734 117.307 339.019 116.772C339.269 116.273 339.625 115.774 339.732 115.24C340.053 113.85 340.516 112.532 341.086 111.213C341.763 109.645 341.906 107.935 342.084 106.26C342.298 104.514 342.511 102.768 342.796 101.058C342.903 100.416 343.295 99.8104 343.58 99.2047C343.794 98.7771 344.97 98.7058 345.291 99.0621C345.291 99.0621 345.291 99.0978 345.326 99.1334C345.932 100.024 346.538 100.915 347.108 101.842C347.251 102.055 347.251 102.34 347.286 102.554C347.286 102.697 347.286 102.875 347.358 103.017C347.75 103.623 347.75 104.265 347.464 104.906C347.001 105.904 347.251 106.866 347.536 107.828C347.821 108.826 348.427 109.574 349.068 110.358C349.852 111.32 350.244 112.46 350.422 113.636C350.422 113.85 350.208 114.135 350.03 114.313C349.923 114.385 349.638 114.349 349.46 114.278C348.925 113.957 348.391 113.601 347.856 113.28C347.75 113.209 347.714 113.066 347.678 112.959C347.571 112.674 347.464 112.354 347.393 112.068C347.322 112.068 347.286 112.068 347.215 112.068L347.393 111.997Z" fill="#CB0F13"/>
<path d="M373.691 73.4767C373.299 73.2985 372.871 73.1204 372.479 72.9066C371.09 72.087 369.7 72.3008 368.31 72.9066C367.776 73.156 367.206 73.3698 366.6 73.548C366.137 73.6905 365.816 73.4411 365.78 72.9422C365.709 72.4433 365.388 72.1939 364.925 72.3008C364.284 72.4433 363.607 72.6215 363.001 72.8353C362.252 73.1204 362.11 74.0468 362.644 74.617C362.716 74.6882 362.751 74.7239 362.787 74.7951C363.5 75.5435 363.571 76.0067 363.036 76.8975C362.858 77.2182 362.644 77.5033 362.466 77.824C362.252 78.1804 362.217 78.5011 362.431 78.893C362.751 79.4988 363.001 80.1402 363.215 80.8172C363.393 81.3518 363.749 81.7081 364.141 82.0288C364.212 82.1001 364.426 82.0644 364.533 82.0288C365.317 81.6012 366.172 81.6368 366.992 81.815C367.526 81.9219 367.989 82.3495 368.417 82.7058C369.308 83.4185 369.557 84.4519 369.522 85.5565C369.522 85.6991 369.308 85.9485 369.165 85.9485C368.631 86.0198 368.061 86.0554 367.526 85.9485C367.063 85.8772 366.635 85.6991 366.208 85.5565C364.818 85.0933 363.642 85.4853 362.644 86.483C362.359 86.7681 362.039 87.0532 361.789 87.3739C361.504 87.6946 361.112 87.7658 360.685 87.7302C360.257 87.6946 360.15 87.4808 360.399 87.1244C360.791 86.5899 361.219 86.0554 361.647 85.5565C361.86 85.3071 361.86 85.0933 361.825 84.8082C361.611 83.5254 360.328 82.9196 359.366 82.9909C358.155 83.0978 356.943 83.2047 355.767 83.3472C355.304 83.3829 354.983 83.276 354.841 82.7771C354.769 82.5633 354.627 82.3851 354.52 82.207C354.164 81.6012 354.164 81.5656 353.487 81.7437C352.703 81.9219 351.919 82.1001 351.17 82.3139C350.778 82.4208 350.493 82.2426 350.28 81.9575C350.208 81.8506 350.208 81.5656 350.28 81.423C350.529 80.9954 350.85 80.5678 351.17 80.1402C351.527 79.6413 351.634 79.1068 351.349 78.5367C351.242 78.3229 351.206 78.0735 351.063 77.8953C350.743 77.3964 350.743 76.8975 350.957 76.3274C351.277 75.5078 351.491 74.617 351.883 73.7974C352.061 73.4054 352.453 73.0135 352.845 72.7997C354.092 72.087 355.268 71.2674 356.373 70.3766C357.121 69.7708 357.905 69.557 358.903 69.5214C359.829 69.4857 360.756 69.165 361.647 68.8799C363.321 68.3454 364.961 67.9178 366.742 68.1673C367.491 68.2742 368.203 68.0604 368.88 67.8109C370.591 67.1339 371.802 67.6684 372.943 69.165C373.62 70.0559 374.19 71.0536 374.76 72.0157C374.938 72.3008 375.259 72.5859 375.009 72.9422C374.76 73.3342 374.404 73.4411 373.798 73.4054L373.691 73.4767Z" fill="#CB0F13"/>
<path d="M375.58 87.9088C375.081 88.2651 374.618 88.5858 374.154 88.8709C373.834 89.0847 373.477 89.0491 373.192 88.7996C372.551 88.2295 371.945 87.6237 371.339 87.0179C371.232 86.911 371.197 86.8041 371.09 86.6972C370.733 86.2696 370.627 85.5213 370.983 85.0581C371.09 84.9155 371.339 84.8443 371.624 84.6661C371.197 84.0603 370.805 83.4189 370.306 82.9201C369.593 82.1717 368.809 81.566 368.061 80.8533C367.42 80.2832 367.063 79.4992 366.885 78.7153C366.814 78.3589 367.028 77.8957 367.17 77.5037C367.384 76.9336 367.526 76.3634 367.277 75.7577C367.099 75.3301 367.17 75.1163 367.598 74.9737C368.31 74.7599 369.059 74.5105 369.807 74.4749C370.84 74.4392 371.874 74.5461 372.907 74.6174C373.299 74.6174 373.691 74.8312 374.119 74.9025C374.689 75.0094 375.259 75.1163 375.829 75.2588C377.896 75.722 379.535 76.8979 380.747 78.6084C381.067 79.036 381.067 79.6774 381.21 80.2119C381.245 80.4257 381.21 80.6395 381.281 80.8177C381.424 81.566 381.139 81.9579 380.426 82.3499C379.963 82.5993 379.927 82.7419 380.355 83.0626C380.747 83.3477 381.139 83.6684 381.53 83.9534C382.35 84.5236 382.635 85.3788 382.813 86.3053C382.92 86.9467 382.956 87.6237 382.956 88.3007C382.956 89.156 383.383 89.8686 383.74 90.5813C383.954 90.9733 384.132 91.3652 384.31 91.7928C384.524 92.3274 384.346 92.8262 384.132 93.2895C384.06 93.4676 383.847 93.6102 383.668 93.6814C382.065 94.2516 380.64 93.8596 379.464 92.755C379.25 92.5768 379.25 92.1848 379.143 91.8641C379 91.294 378.858 90.7238 378.68 90.1537C378.502 89.5123 378.395 89.441 377.718 89.441C377.219 89.441 376.72 89.441 376.364 89.0134C376.221 88.8352 376.114 88.6571 375.972 88.4789C375.865 88.3007 375.722 88.1226 375.615 87.9444L375.58 87.9088Z" fill="#CB0F13"/>
<path d="M385.842 80.4962C385.415 80.6744 385.058 80.8526 384.702 80.9595C383.49 81.3871 383.562 81.3514 383.241 80.2112C383.17 79.9974 383.134 79.7836 383.098 79.5697C382.991 78.9283 382.742 78.3938 382.136 78.0731C381.566 77.7881 381.566 77.2179 381.637 76.6834C381.78 75.8995 381.424 75.3293 380.925 74.8305C380.675 74.581 380.461 74.3316 380.248 74.0822C379.286 72.9419 378.323 71.766 377.397 70.6257C377.219 70.4119 377.041 70.1981 376.934 69.9486C376.862 69.7705 376.934 69.4854 377.041 69.3785C377.183 69.236 377.504 69.1647 377.646 69.236C378.787 69.7705 379.927 70.3406 380.782 71.374C381.174 71.8372 381.673 72.1936 382.101 72.6212C382.386 72.9062 382.564 73.2626 382.813 73.5833C383.277 74.1534 383.704 74.7236 384.203 75.2581C384.88 75.9707 385.486 76.7903 385.949 77.6812C386.056 77.895 386.27 78.0731 386.448 78.2513C386.876 78.6789 387.303 79.0709 387.731 79.4985C388.586 80.425 388.871 81.6009 389.085 82.8124C389.192 83.4182 389.156 84.0596 389.156 84.701C389.085 86.4471 388.942 88.1931 388.978 89.9392C388.978 90.6875 389.334 91.4002 389.548 92.1485C389.904 93.3244 390.261 94.5003 390.617 95.6762C390.795 96.2463 390.902 96.8165 391.116 97.3866C391.508 98.3487 391.544 99.3465 391.472 100.344C391.401 101.378 391.294 102.375 391.116 103.373C390.867 104.62 390.546 105.832 390.225 107.043C390.118 107.542 390.011 108.041 389.869 108.54C389.726 109.003 389.548 109.431 389.334 109.858C389.263 109.965 389.049 110.108 388.907 110.072C388.764 110.072 388.55 109.894 388.515 109.752C388.443 109.466 388.408 109.146 388.443 108.861C388.657 107.15 388.978 105.404 389.12 103.694C389.37 100.594 388.978 97.5648 387.909 94.6428C387.018 92.2197 386.412 89.6897 386.519 87.0528C386.519 86.4114 386.519 85.77 386.555 85.1286C386.555 84.4159 386.519 84.3447 385.878 84.1309C384.916 83.8458 384.916 83.24 385.415 82.6343C385.878 81.9928 386.056 81.3158 385.878 80.4606L385.842 80.4962Z" fill="#CB0F13"/>
<path d="M356.872 101.842C354.912 101.556 353.451 100.452 352.382 98.9196C351.776 98.0644 351.384 96.9954 350.992 95.9976C350.85 95.6057 350.85 95.1424 350.85 94.7148C350.85 94.0378 350.885 93.3607 350.992 92.7193C351.064 92.363 351.277 92.0067 351.491 91.7216C351.776 91.4009 352.24 91.5434 352.382 91.9354C352.489 92.2205 352.489 92.5412 352.56 92.8262C352.81 93.9665 352.952 95.1424 353.309 96.2114C353.522 96.8172 354.128 97.3161 354.556 97.8506C354.556 97.8862 354.627 97.9219 354.663 97.9575C355.482 98.884 356.516 99.3472 357.727 99.5254C358.511 99.6323 359.224 99.9886 359.865 100.487C360.222 100.737 360.257 101.129 359.865 101.378C359.509 101.592 359.117 101.77 358.725 101.806C358.119 101.877 357.478 101.806 356.872 101.842Z" fill="#CB0F13"/>
<path d="M344.293 81.0311C343.687 80.9599 343.26 80.2828 343.545 79.8196C344.186 78.7862 344.863 77.7885 345.505 76.7551C345.79 76.3275 346.182 76.1849 346.645 76.0424C346.788 76.0068 346.966 75.9355 347.037 75.8642C347.643 75.1872 348.498 74.9378 349.353 74.7952C349.674 74.724 349.852 74.9378 350.03 75.1516C350.173 75.401 350.387 75.6148 350.137 75.9355C350.066 76.0424 350.03 76.1493 349.959 76.2206C349.175 77.2183 349.211 78.4655 349.068 79.6414C348.997 80.1759 348.605 80.461 348.106 80.4254C347.607 80.4254 347.144 80.461 346.645 80.4254C345.861 80.4254 345.148 80.6392 344.471 80.9599C344.4 80.9599 344.329 80.9599 344.293 80.9955V81.0311Z" fill="#CB0F13"/>
<path d="M356.943 85.4494C356.694 85.8057 356.373 85.9482 355.981 86.0195C355.553 86.0908 355.09 86.1621 354.663 86.2333C354.556 86.2333 354.449 86.3402 354.377 86.4471C353.879 87.1598 353.415 87.8725 352.881 88.5495C351.919 89.7967 350.885 91.0082 349.923 92.2198C349.674 92.5405 349.353 92.5761 349.104 92.4336C348.926 92.3267 348.783 91.9703 348.783 91.7565C348.819 91.1151 348.961 90.4737 349.068 89.8323C349.068 89.6898 349.139 89.5473 349.175 89.3691C349.175 88.8346 349.389 88.407 349.745 88.015C349.888 87.8725 349.959 87.623 350.066 87.4449C350.422 86.7322 350.957 86.1977 351.598 85.8413C352.204 85.485 352.916 85.3068 353.594 85.0218C353.736 84.9861 353.879 84.9505 353.985 84.9149C354.627 84.6298 355.268 84.6298 355.91 84.7723C356.159 84.8436 356.444 84.8436 356.587 85.1287C356.622 85.2356 356.801 85.3068 356.943 85.4137V85.4494Z" fill="#CB0F13"/>
<path d="M386.163 98.0281C386.198 98.6339 386.27 99.2397 386.305 99.8455C386.341 100.38 386.376 100.914 386.412 101.413C386.412 101.948 386.056 102.233 385.664 102.447C385.45 102.589 384.916 102.233 384.737 101.841C384.595 101.52 384.524 101.2 384.381 100.914C384.167 100.38 383.953 99.8455 383.74 99.311C383.561 98.8477 383.419 98.3845 383.241 97.9212C383.241 97.85 383.241 97.7431 383.241 97.6718C383.419 97.2798 383.561 96.8522 383.775 96.4603C384.132 95.7832 384.559 95.1062 384.951 94.4291C385.058 94.2866 385.272 94.0728 385.45 94.1084C385.593 94.1084 385.842 94.3579 385.878 94.5004C386.02 95.1062 386.127 95.7476 386.198 96.3534C386.27 96.8879 386.27 97.458 386.305 97.9925C386.27 97.9925 386.198 97.9925 386.163 97.9925V98.0281Z" fill="#CB0F13"/>
<path d="M365.032 80.6394C364.462 80.5682 363.571 79.713 363.5 79.1428C363.5 79.0003 363.5 78.8221 363.607 78.7152C363.963 78.3589 364.319 78.0025 364.676 77.6818C364.961 77.4324 365.21 77.5393 365.281 77.8956C365.46 78.6083 365.602 79.3566 365.745 80.0693C365.78 80.3187 365.353 80.6394 365.032 80.6038V80.6394Z" fill="#CB0F13"/>
<path d="M56.8358 289.096C56.8358 289.809 56.6576 290.7 56.3369 291.698C56.0162 292.731 55.4817 293.693 54.8047 294.584C54.1276 295.475 53.2724 296.259 52.2747 296.936C51.2769 297.613 50.1723 297.934 48.8895 297.934C45.2192 297.934 42.5467 297.328 40.8006 296.081C39.0546 294.869 37.7718 292.874 36.9165 290.094C36.2039 287.814 35.4912 285.391 34.7429 282.754C34.0302 280.152 33.175 277.765 32.1773 275.556C31.1795 273.346 29.968 271.529 28.5426 270.068C27.1173 268.607 25.3 267.859 23.1619 267.859H20.4538C18.8502 267.859 17.8881 268.179 17.6743 268.857V288.384C17.6743 292.268 20.4181 294.228 25.9414 294.228V296.936H0.641407V294.228C5.9152 294.228 8.5521 292.268 8.5521 288.384V245.837C8.5521 241.989 5.7014 240.064 0 240.064V237.285H11.2246C13.2201 237.285 14.8949 237.285 16.249 237.249C17.6387 237.249 18.9571 237.178 20.24 237.107C21.5228 237.036 22.9125 237 24.3735 236.964C25.8345 236.964 27.6161 236.929 29.7185 236.929C32.2842 236.929 34.7073 237.321 36.9878 238.069C39.2684 238.817 41.2282 239.851 42.8674 241.169C44.5065 242.488 45.825 244.055 46.7871 245.837C47.7492 247.619 48.2124 249.579 48.2124 251.681C48.2124 253.783 47.8205 255.636 47.0365 257.24C46.2526 258.843 45.1479 260.269 43.7582 261.48C42.3329 262.692 40.6937 263.69 38.7695 264.545C36.8453 265.4 34.7073 266.041 32.3911 266.54V266.825C35.2774 268.215 37.6649 269.926 39.5534 271.992C41.442 274.059 42.7248 276.055 43.3663 277.979C43.7226 279.19 44.1502 280.616 44.6134 282.29C45.0767 283.965 45.6468 285.569 46.2882 287.065C46.9296 288.562 47.6423 289.845 48.4975 290.878C49.3527 291.912 50.3505 292.446 51.562 292.446C52.9874 292.446 54.0564 291.092 54.6978 288.384L56.7645 289.096H56.8358ZM24.5516 264.367C26.3333 264.367 28.0794 264.26 29.7542 264.01C31.429 263.761 32.9256 263.226 34.244 262.407C35.5625 261.552 36.6315 260.376 37.4511 258.808C38.2706 257.24 38.6626 255.138 38.6626 252.429C38.6626 250.149 38.2706 248.26 37.4511 246.764C36.6315 245.267 35.5981 244.091 34.3153 243.2C33.0325 242.345 31.6071 241.704 30.0392 241.347C28.4714 240.991 26.9391 240.813 25.4425 240.813H21.1308C18.8502 240.813 17.71 242.488 17.71 245.837V263.013C17.9594 263.903 18.6721 264.367 19.8836 264.367H24.5516Z" fill="white"/>
<path d="M78.501 296.936V294.227C84.0243 294.227 86.7681 292.268 86.7681 288.383V247.583C86.7681 242.523 83.8105 240.028 77.8596 240.028V237.32H125.146L125.858 254.139L123.079 254.496C122.544 251.253 121.725 248.723 120.656 246.941C119.587 245.16 118.268 243.806 116.736 242.95C115.204 242.095 113.458 241.561 111.462 241.418C109.467 241.276 107.329 241.204 104.977 241.204H102.447C97.8858 241.204 95.6052 242.558 95.6052 245.267V261.373C95.6052 263.155 96.3179 264.081 97.7789 264.081H100.843C102.34 264.081 103.73 264.01 105.013 263.867C106.295 263.725 107.436 263.333 108.433 262.692C109.431 262.05 110.215 261.088 110.856 259.805C111.498 258.522 111.925 256.776 112.175 254.531H115.489V277.836H112.175C111.925 275.627 111.569 273.881 111.106 272.562C110.643 271.279 109.93 270.282 109.039 269.604C108.148 268.927 107.044 268.464 105.725 268.25C104.407 268.037 102.803 267.93 100.879 267.93H99.81C97.0662 267.93 95.6765 268.927 95.6765 270.887V288.063C95.6765 291.484 98.0639 293.194 102.875 293.194H105.654C109.431 293.194 112.46 292.909 114.776 292.339C117.092 291.769 118.945 290.878 120.406 289.631C121.832 288.419 123.008 286.851 123.863 284.998C124.718 283.145 125.609 280.936 126.5 278.442L128.923 279.154L126.5 296.971H78.501V296.936Z" fill="white"/>
<path d="M189.001 255.494C187.79 250.648 185.794 246.764 182.979 243.842C180.164 240.92 176.672 239.495 172.538 239.495C169.118 239.495 166.409 240.385 164.343 242.203C162.312 243.984 161.278 246.265 161.278 249.044C161.278 251.218 162.026 253.071 163.487 254.675C164.948 256.278 167.158 257.703 170.08 258.951C173.75 260.518 177.064 261.801 180.057 262.87C183.05 263.904 185.616 265.151 187.754 266.505C189.892 267.895 191.531 269.605 192.707 271.707C193.883 273.81 194.453 276.661 194.453 280.26C194.453 282.469 194.097 284.678 193.42 286.816C192.743 288.99 191.674 290.914 190.213 292.624C188.787 294.335 186.899 295.725 184.583 296.758C182.266 297.791 179.487 298.326 176.28 298.326C174.178 298.326 172.36 298.183 170.828 297.863C169.296 297.578 168.013 297.186 166.944 296.794C165.911 296.366 165.055 295.938 164.485 295.546C163.879 295.119 163.452 294.834 163.238 294.656C162.098 295.511 160.957 296.259 159.817 296.901C158.677 297.542 157.537 298.041 156.396 298.326C155.719 293.765 155.256 289.738 154.9 286.246C154.579 282.754 154.401 279.654 154.401 277.017H157.358C157.358 279.654 157.893 282.077 158.962 284.251C160.031 286.424 161.421 288.313 163.096 289.881C164.77 291.449 166.659 292.66 168.761 293.515C170.864 294.371 172.895 294.834 174.89 294.834C176.137 294.834 177.527 294.62 179.059 294.192C180.592 293.765 182.017 293.123 183.371 292.233C184.725 291.342 185.865 290.201 186.792 288.812C187.718 287.422 188.182 285.783 188.182 283.859C188.182 281.471 187.54 279.369 186.257 277.587C184.975 275.805 182.908 274.38 180.093 273.382C176.779 272.171 173.643 271.066 170.614 270.068C167.585 269.035 164.913 267.823 162.597 266.434C160.28 265.044 158.427 263.262 157.073 261.124C155.684 258.986 155.007 256.207 155.007 252.715C155.007 250.185 155.47 247.94 156.361 245.909C157.252 243.878 158.463 242.131 159.995 240.67C161.528 239.209 163.309 238.069 165.34 237.25C167.372 236.43 169.51 236.038 171.719 236.038C174.284 236.038 176.494 236.501 178.311 237.428C180.128 238.354 181.839 239.174 183.407 239.887C185.26 238.39 187.22 237.357 189.251 236.751C190.106 239.495 190.676 242.417 191.032 245.517C191.389 248.617 191.567 251.931 191.567 255.53H188.859L189.001 255.494Z" fill="white"/>
<path d="M229.98 296.936V294.228C236.394 294.228 239.601 291.484 239.601 285.961V244.519C239.601 242.309 238.14 241.205 235.183 241.205C231.227 241.205 228.02 242.488 225.561 245.018C223.103 247.583 221.285 251.432 220.074 256.563L217.294 255.85L219.718 236.715C221.107 236.893 222.39 237.036 223.637 237.178C224.849 237.285 226.06 237.356 227.201 237.356H261.801C263.048 237.356 264.331 237.285 265.685 237.178C267.003 237.071 268.358 236.893 269.747 236.715V255.494L267.324 255.85C266.612 246.265 261.837 241.454 252.999 241.454C250.006 241.454 248.51 242.488 248.51 244.519V285.961C248.51 291.484 251.752 294.228 258.238 294.228V296.936H230.016H229.98Z" fill="white"/>
<path d="M318.387 296.936V294.227C319.243 294.121 320.098 293.978 321.024 293.871C321.951 293.764 322.806 293.586 323.554 293.408C324.303 293.23 324.944 293.016 325.443 292.731C325.942 292.446 326.191 292.161 326.191 291.769C326.12 291.519 326.084 291.199 326.049 290.735C326.049 290.272 325.87 289.738 325.55 289.061L321.488 278.014C320.81 276.446 318.993 275.662 316 275.662H302.602C300.321 275.662 298.931 276.446 298.468 277.978L295.404 287.279C295.154 287.813 295.047 288.597 295.047 289.595C295.047 292.339 297.684 293.729 302.958 293.729V296.864H282.718V293.729C284.464 293.622 285.925 293.016 287.172 291.947C288.384 290.878 289.417 289.31 290.272 287.279L311.866 235.931L314.575 237L335.884 290.415C336.739 291.662 337.38 292.446 337.879 292.766C337.986 292.873 338.485 293.052 339.376 293.265C340.231 293.479 341.442 293.8 343.01 294.192V296.9H318.387V296.936ZM310.548 248.652L302.637 267.538C301.96 268.963 301.64 269.997 301.64 270.602C301.64 271.493 302.744 271.956 304.953 271.956H316.285C318.067 271.956 318.993 271.6 318.993 270.887C318.993 270.602 318.672 269.605 317.995 267.93L310.548 248.688V248.652Z" fill="white"/>
<path d="M404.692 247.939C404.692 242.665 401.592 240.028 395.428 240.028V237.32H416.273V240.028C411.285 240.028 408.826 242.665 408.826 247.939V275.306C408.826 278.727 408.541 281.862 407.935 284.678C407.329 287.493 406.118 289.916 404.3 291.911C402.483 293.907 399.882 295.475 396.532 296.579C393.183 297.684 388.693 298.254 383.134 298.254C379.606 298.254 376.506 297.791 373.834 296.829C371.161 295.867 368.916 294.512 367.099 292.766C365.281 291.02 363.892 288.954 362.965 286.566C362.039 284.179 361.576 281.542 361.576 278.727V246.585C361.576 242.202 358.725 240.028 353.023 240.028V237.32H379V240.028C373.299 240.028 370.448 242.202 370.448 246.621V276.446C370.448 278.477 370.555 280.58 370.769 282.718C370.983 284.856 371.624 286.78 372.693 288.49C373.762 290.201 375.437 291.59 377.682 292.695C379.927 293.764 383.134 294.334 387.267 294.334C391.116 294.334 394.18 293.764 396.497 292.588C398.813 291.412 400.559 289.951 401.77 288.205C402.982 286.459 403.766 284.535 404.158 282.433C404.55 280.33 404.728 278.335 404.728 276.482V248.01L404.692 247.939Z" fill="white"/>
<path d="M490.748 289.096C490.748 289.809 490.57 290.7 490.249 291.698C489.928 292.696 489.394 293.693 488.717 294.584C488.04 295.475 487.185 296.259 486.187 296.936C485.189 297.577 484.084 297.934 482.802 297.934C479.131 297.934 476.459 297.328 474.713 296.081C472.967 294.834 471.684 292.874 470.864 290.094C470.152 287.814 469.439 285.391 468.691 282.754C467.942 280.117 467.123 277.765 466.125 275.556C465.127 273.382 463.916 271.529 462.49 270.068C461.065 268.607 459.248 267.859 457.11 267.859H454.401C452.798 267.859 451.836 268.179 451.622 268.857V288.384C451.622 292.268 454.366 294.228 459.889 294.228V296.936H434.518V294.228C439.792 294.228 442.429 292.268 442.429 288.384V245.837C442.429 241.989 439.578 240.064 433.876 240.064V237.285H445.101C447.097 237.285 448.771 237.285 450.125 237.249C451.515 237.249 452.834 237.178 454.116 237.107C455.399 237.036 456.789 237 458.25 236.964C459.711 236.964 461.493 236.929 463.595 236.929C466.161 236.929 468.584 237.321 470.864 238.069C473.145 238.817 475.105 239.851 476.744 241.169C478.383 242.488 479.701 244.055 480.664 245.837C481.626 247.619 482.089 249.579 482.089 251.681C482.089 253.783 481.697 255.636 480.913 257.24C480.129 258.843 479.024 260.269 477.635 261.48C476.209 262.692 474.57 263.69 472.646 264.545C470.722 265.4 468.584 266.041 466.268 266.54V266.825C469.154 268.215 471.541 269.926 473.43 271.992C475.318 274.059 476.601 276.055 477.243 277.979C477.599 279.19 478.027 280.616 478.49 282.29C478.953 283.965 479.523 285.569 480.165 287.065C480.806 288.562 481.519 289.845 482.374 290.878C483.229 291.912 484.227 292.446 485.438 292.446C486.864 292.446 487.933 291.092 488.574 288.384L490.641 289.096H490.748ZM458.464 264.367C460.245 264.367 461.991 264.26 463.666 264.01C465.341 263.761 466.838 263.226 468.156 262.407C469.475 261.552 470.544 260.376 471.363 258.808C472.183 257.24 472.575 255.138 472.575 252.429C472.575 250.149 472.183 248.26 471.363 246.764C470.544 245.267 469.51 244.091 468.227 243.2C466.945 242.345 465.519 241.704 463.951 241.347C462.383 240.991 460.851 240.813 459.355 240.813H455.043C452.762 240.813 451.622 242.488 451.622 245.837V263.013C451.871 263.903 452.584 264.367 453.796 264.367H458.464Z" fill="white"/>
<path d="M542.702 296.936V294.227C543.557 294.121 544.412 293.978 545.339 293.871C546.265 293.764 547.12 293.586 547.869 293.408C548.617 293.23 549.258 293.016 549.757 292.731C550.256 292.446 550.506 292.161 550.506 291.769C550.434 291.519 550.399 291.199 550.363 290.735C550.363 290.272 550.185 289.738 549.864 289.061L545.802 278.014C545.125 276.446 543.308 275.662 540.314 275.662H526.916C524.636 275.662 523.246 276.446 522.783 277.978L519.718 287.279C519.469 287.813 519.362 288.597 519.362 289.595C519.362 292.339 521.999 293.729 527.272 293.729V296.864H507.032V293.729C508.779 293.622 510.24 293.016 511.487 291.947C512.698 290.878 513.732 289.31 514.587 287.279L536.181 235.931L538.889 237L560.198 290.415C561.053 291.662 561.695 292.446 562.194 292.766C562.3 292.873 562.799 293.052 563.69 293.265C564.545 293.479 565.757 293.8 567.325 294.192V296.9H542.702V296.936ZM534.862 248.652L526.952 267.538C526.275 268.963 525.954 269.997 525.954 270.602C525.954 271.493 527.059 271.956 529.268 271.956H540.599C542.381 271.956 543.308 271.6 543.308 270.887C543.308 270.602 542.987 269.605 542.31 267.93L534.862 248.688V248.652Z" fill="white"/>
<path d="M636.062 297.934L596.331 247.298V283.538C596.331 290.665 599.431 294.228 605.595 294.228V296.936H584.001V294.228C589.026 294.228 591.556 290.665 591.556 283.502V243.771C591.556 241.241 588.598 239.993 582.647 239.993V237.285H599.074L634.245 282.148V249.9C634.245 243.307 631.18 239.993 625.087 239.993V237.285H646.681V239.993C641.158 239.993 638.414 243.307 638.414 249.9V297.257L636.062 297.898V297.934Z" fill="white"/>
<path d="M673.976 296.936V294.228C680.39 294.228 683.597 291.484 683.597 285.961V244.519C683.597 242.309 682.137 241.205 679.179 241.205C675.224 241.205 672.016 242.488 669.558 245.018C667.099 247.583 665.282 251.432 664.07 256.563L661.291 255.85L663.714 236.715C665.104 236.893 666.386 237.036 667.634 237.178C668.845 237.285 670.057 237.356 671.197 237.356H705.797C707.045 237.356 708.327 237.285 709.681 237.178C711 237.071 712.354 236.893 713.744 236.715V255.494L711.321 255.85C710.608 246.265 705.833 241.454 696.996 241.454C694.003 241.454 692.506 242.488 692.506 244.519V285.961C692.506 291.484 695.749 294.228 702.234 294.228V296.936H674.012H673.976Z" fill="white"/>
<path d="M220.181 164.842H214.337V170.686H220.181V164.842Z" fill="white"/>
<path d="M229.552 164.842H223.708V170.686H229.552V164.842Z" fill="white"/>
<path d="M192.921 190.07H182.267V202.791H176.316V173.108H182.267V185.366H192.921V173.108H198.872V202.791H192.921V190.07Z" fill="white"/>
<path d="M219.539 197.268H224.065L227.486 193.384V173.108H233.437V195.665L227.272 202.791H216.297L210.132 195.665V173.108H216.083V193.42L219.504 197.268H219.539Z" fill="white"/>
<path d="M255.458 202.791H249.507V178.632H240.991L243.521 173.108H261.409L263.939 178.632H255.423V202.791H255.458Z" fill="white"/>
<path d="M283.645 202.791H277.694V178.632H269.177L271.707 173.108H289.595L292.125 178.632H283.609V202.791H283.645Z" fill="white"/>
<path d="M315.715 185.188V190.747H305.916V197.268H319.528L316.998 202.791H300.036V173.108H315.858L318.601 178.632H305.916V185.188H315.715Z" fill="white"/>
<path d="M361.469 190.07H350.814V202.791H344.863V173.108H350.814V185.366H361.469V173.108H367.419V202.791H361.469V190.07Z" fill="white"/>
<path d="M393.931 195.558H384.025L382.172 201.509L381.744 202.792H375.58L376.007 201.509L385.201 174.392L385.664 173.073H392.221L392.684 174.392L401.913 201.509L402.341 202.792H396.283L395.855 201.509L393.895 195.558H393.931ZM385.664 190.427H392.292L388.978 180.129L385.664 190.427Z" fill="white"/>
<path d="M417.663 185.83L424.006 173.108H430.313L429.636 174.391L420.692 191.388V202.791H414.599V191.388L406.082 174.391L405.405 173.108H411.677L412.354 174.391L417.663 185.83Z" fill="white"/>
<path d="M451.622 195.558H441.716L439.863 201.509L439.435 202.792H433.271L433.698 201.509L442.892 174.392L443.355 173.073H449.911L450.375 174.392L459.604 201.509L460.031 202.792H453.974L453.546 201.509L451.586 195.558H451.622ZM443.355 190.427H449.983L446.669 180.129L443.355 190.427Z" fill="white"/>
<path d="M467.621 186.151V181.091L471.399 173.073H484.155L486.685 178.596H474.926L473.18 182.694L487.256 189.679V194.739L483.478 202.756H468.762L466.232 197.233H480.129L481.732 193.278L467.586 186.115L467.621 186.151Z" fill="white"/>
<path d="M512.983 190.07H502.329V202.791H496.378V173.108H502.329V185.366H512.983V173.108H518.934V202.791H512.983V190.07Z" fill="white"/>
<path d="M531.441 173.108H537.392V202.791H531.441V173.108Z" fill="white"/>
</g>
<defs>
<clipPath id="clip0_789_682">
<rect width="713.744" height="298.29" fill="white"/>
</clipPath>
</defs>
</svg>
