<svg width="210" height="50" viewBox="0 0 210 50" fill="none" xmlns="http://www.w3.org/2000/svg">
  <path d="M16.458 19L9.698 0.488H6.864L0.13 19H3.9L5.018 15.724H11.596L12.688 19H16.458ZM10.634 12.682H6.032L8.372 5.948L10.634 12.682ZM33.9741 19L27.3961 7.846L33.5321 0.488H29.1381L22.6121 8.548V0.488H18.9981V19H22.6121V13.436L25.0041 10.576L29.7621 19H33.9741ZM50.8491 19L44.0891 0.488H41.2551L34.5211 19H38.2911L39.4091 15.724H45.9871L47.0791 19H50.8491ZM45.0251 12.682H40.4231L42.7631 5.948L45.0251 12.682ZM66.3173 11.408V8.704H59.3233V11.72H62.7293V12.422C62.7293 13.384 62.4953 14.216 61.8973 14.892C61.2993 15.542 60.4153 15.932 59.3233 15.932C58.3353 15.932 57.5293 15.568 57.0093 14.97C56.3073 14.19 56.1253 13.306 56.1253 9.744C56.1253 6.182 56.3073 5.324 57.0093 4.544C57.5293 3.946 58.3353 3.556 59.3233 3.556C61.1693 3.556 62.2353 4.518 62.6513 6.26H66.2913C65.7973 3.14 63.6133 0.331999 59.3233 0.331999C57.2433 0.331999 55.6313 1.06 54.3313 2.36C52.4593 4.232 52.5113 6.546 52.5113 9.744C52.5113 12.942 52.4593 15.256 54.3313 17.128C55.6313 18.428 57.2953 19.156 59.3233 19.156C61.2993 19.156 63.0673 18.584 64.5493 17.05C65.8493 15.698 66.3173 14.086 66.3173 11.408ZM73.8686 19V0.488H70.2546V19H73.8686ZM94.3745 19L91.0465 15.074C92.3465 13.618 92.8925 11.72 93.0225 9.328H89.8245C89.7725 10.654 89.4865 11.772 88.8885 12.578L85.7685 8.886C86.2365 8.574 87.0945 7.924 87.0945 7.924C88.2385 7.092 88.9925 6.13 88.9925 4.7C88.9925 2.178 87.1725 0.331999 84.2605 0.331999C81.1665 0.331999 79.3205 2.126 79.3205 4.648C79.3205 6.416 80.4125 7.716 81.1665 8.574C79.5545 9.64 77.8385 11.174 77.8385 13.54C77.8385 17.024 79.8665 19.156 83.9485 19.156C86.6005 19.156 87.8745 18.064 88.7325 17.388L90.0845 19H94.3745ZM85.7945 4.726C85.7945 5.376 85.3265 5.87 84.7285 6.286C84.7285 6.286 84.2085 6.65 83.9485 6.806C83.2985 6.052 82.7265 5.402 82.7265 4.726C82.7265 3.868 83.2465 3.218 84.2605 3.218C85.2225 3.218 85.7945 3.868 85.7945 4.726ZM86.6785 14.996C85.8205 15.75 85.0145 16.088 83.9225 16.088C82.3625 16.088 81.1145 15.022 81.1145 13.488C81.1145 12.162 81.8685 11.434 82.9865 10.654L86.6785 14.996ZM110.305 0.488H106.535L102.817 12.552L99.0988 0.488H95.3548L101.465 19H104.169L110.305 0.488ZM124.996 19V15.776H116.416V11.278H123.722V8.054H116.416V3.712H124.996V0.488H112.802V19H124.996ZM142.974 19V0.488H139.36V11.824L132.028 0.488H128.804V19H132.418V7.638L139.75 19H142.974ZM159.457 3.712V0.488H146.171V3.712H151.007V19H154.621V3.712H159.457ZM176 12.656V0.488H172.412V12.526C172.412 14.658 171.138 15.932 169.188 15.932C167.238 15.932 165.99 14.658 165.99 12.526V0.488H162.376V12.656C162.376 16.582 165.392 19.156 169.188 19.156C172.984 19.156 176 16.582 176 12.656ZM194.303 19L190.169 11.018C191.963 10.368 193.549 8.756 193.549 6.156C193.549 3.062 191.313 0.488 187.543 0.488H180.289V19H183.903V11.616H186.503L190.117 19H194.303ZM189.935 6.156C189.935 7.586 188.895 8.6 187.309 8.6H183.903V3.712H187.309C188.895 3.712 189.935 4.726 189.935 6.156ZM209.755 19V15.776H201.175V11.278H208.481V8.054H201.175V3.712H209.755V0.488H197.561V19H209.755ZM15.444 36.26C15.444 33.114 13.156 30.488 9.334 30.488H2.158V49H5.772V42.032H9.334C13.156 42.032 15.444 39.406 15.444 36.26ZM11.83 36.26C11.83 37.768 10.79 38.782 9.152 38.782H5.772V33.712H9.152C10.79 33.712 11.83 34.752 11.83 36.26ZM32.7582 49L28.6242 41.018C30.4182 40.368 32.0042 38.756 32.0042 36.156C32.0042 33.062 29.7682 30.488 25.9982 30.488H18.7442V49H22.3582V41.616H24.9582L28.5722 49H32.7582ZM28.3902 36.156C28.3902 37.586 27.3502 38.6 25.7642 38.6H22.3582V33.712H25.7642C27.3502 33.712 28.3902 34.726 28.3902 36.156ZM49.0679 39.744C49.0679 36.546 49.0939 34.232 47.2219 32.36C45.9219 31.06 44.3359 30.332 42.2299 30.332C40.1239 30.332 38.5119 31.06 37.2119 32.36C35.3399 34.232 35.3919 36.546 35.3919 39.744C35.3919 42.942 35.3399 45.256 37.2119 47.128C38.5119 48.428 40.1239 49.156 42.2299 49.156C44.3359 49.156 45.9219 48.428 47.2219 47.128C49.0939 45.256 49.0679 42.942 49.0679 39.744ZM45.4539 39.744C45.4539 43.306 45.2459 44.164 44.5439 44.944C44.0239 45.542 43.2179 45.932 42.2299 45.932C41.2419 45.932 40.4099 45.542 39.8899 44.944C39.1879 44.164 39.0059 43.306 39.0059 39.744C39.0059 36.182 39.1879 35.324 39.8899 34.544C40.4099 33.946 41.2419 33.556 42.2299 33.556C43.2179 33.556 44.0239 33.946 44.5439 34.544C45.2459 35.324 45.4539 36.182 45.4539 39.744ZM61.349 42.916V30.488H57.735V42.76C57.735 44.892 56.591 45.932 54.823 45.932C53.627 45.932 53.055 45.49 52.457 44.892L50.065 47.258C51.443 48.636 52.821 49.156 54.823 49.156C58.255 49.156 61.349 46.998 61.349 42.916ZM77.8783 49V45.776H69.2983V41.278H76.6043V38.054H69.2983V33.712H77.8783V30.488H65.6843V49H77.8783ZM94.6865 43.306H91.0205C90.6565 44.788 89.7205 45.932 87.9005 45.932C86.9125 45.932 86.1065 45.568 85.5865 44.97C84.8845 44.19 84.6765 43.306 84.6765 39.744C84.6765 36.182 84.8845 35.298 85.5865 34.518C86.1065 33.92 86.9125 33.556 87.9005 33.556C89.7205 33.556 90.6565 34.7 91.0205 36.182H94.6865C94.0365 32.308 91.3325 30.332 87.8745 30.332C85.8465 30.332 84.1825 31.06 82.8825 32.36C81.0105 34.232 81.0625 36.546 81.0625 39.744C81.0625 42.942 81.0105 45.256 82.8825 47.128C84.1825 48.428 85.8465 49.156 87.8745 49.156C91.3065 49.156 94.0365 47.18 94.6865 43.306ZM109.47 33.712V30.488H96.1837V33.712H101.02V49H104.634V33.712H109.47Z" fill="#fff"/>
</svg>
