<svg width="398" height="138" viewBox="0 0 398 138" fill="none" xmlns="http://www.w3.org/2000/svg">
<g clip-path="url(#clip0_201_2257)">
<path d="M60.281 0V30.5643H60.5521C62.5296 27.6809 64.7583 25.5133 67.2317 24.0749C69.7051 22.6365 72.6943 21.914 76.206 21.914C83.8511 21.914 89.4725 24.9101 93.0768 30.909C96.6744 36.9078 98.4733 46.6651 98.4733 60.194C98.4733 73.7228 96.6744 83.4138 93.0768 89.2734C89.4791 95.1331 83.8511 98.0629 76.206 98.0629C72.4298 98.0629 69.2554 97.3868 66.6894 96.0346C64.1234 94.6824 61.8087 92.2961 59.7387 88.8691H59.4676V96.5781H41.6577V0H60.281ZM62.0997 78.1043C63.3165 82.1146 65.9884 84.1231 70.1283 84.1231C74.2683 84.1231 76.8078 82.1146 78.0247 78.1043C79.2416 74.094 79.8434 68.1217 79.8434 60.1807C79.8434 52.2397 79.235 46.274 78.0247 42.2571C76.8078 38.2468 74.1757 36.2383 70.1283 36.2383C66.0809 36.2383 63.3165 38.2468 62.0997 42.2571C60.8828 46.2674 60.281 52.2463 60.281 60.1807C60.281 68.1151 60.8894 74.0874 62.0997 78.1043Z" fill="white"/>
<path d="M108.995 44.365C108.995 40.1293 109.67 36.5897 111.019 33.746C112.368 30.9024 114.187 28.6089 116.482 26.8457C118.777 25.0891 121.475 23.8231 124.576 23.0608C127.678 22.2985 130.985 21.9141 134.497 21.9141C140.072 21.9141 144.569 22.4576 147.988 23.5381C151.407 24.6185 154.059 26.1563 155.95 28.1383C157.842 30.1202 159.125 32.4866 159.799 35.2375C160.474 37.9883 160.811 40.9844 160.811 44.2324V82.5057C160.811 85.9327 160.97 88.5908 161.281 90.4865C161.598 92.3823 162.2 94.4106 163.099 96.5715H145.29C144.661 95.3983 144.185 94.1587 143.874 92.8529C143.557 91.5471 143.266 90.2611 142.995 88.9951H142.724C140.568 92.78 138.068 95.2392 135.237 96.3661C132.4 97.4929 128.736 98.0563 124.239 98.0563C120.999 98.0563 118.254 97.4929 116.005 96.3661C113.757 95.2392 111.958 93.6815 110.609 91.6995C109.26 89.7176 108.268 87.4838 107.64 85.0047C107.011 82.5256 106.694 80.0664 106.694 77.6337C106.694 74.2068 107.051 71.2571 107.772 68.7714C108.493 66.2923 109.591 64.1711 111.079 62.4146C112.56 60.658 114.451 59.1931 116.746 58.0198C119.041 56.8466 121.805 55.8125 125.046 54.911L135.568 52.074C138.352 51.3515 140.29 50.3638 141.368 49.0978C142.446 47.8384 142.988 45.989 142.988 43.5497C142.988 40.7591 142.333 38.5716 141.031 36.9874C139.728 35.4098 137.499 34.621 134.351 34.621C131.474 34.621 129.312 35.4761 127.877 37.1929C126.435 38.9097 125.721 41.2032 125.721 44.0932V46.1216H108.989V44.365H108.995ZM138.954 62.5538C137.512 63.1437 136.209 63.5679 135.039 63.8397C131.263 64.6484 128.564 66.0006 126.944 67.8964C125.324 69.7922 124.517 72.3574 124.517 75.6054C124.517 78.4027 125.059 80.7889 126.137 82.7709C127.215 84.7528 129.014 85.7471 131.534 85.7471C132.79 85.7471 134.1 85.5416 135.449 85.1373C136.798 84.7329 138.035 84.0767 139.159 83.1752C140.283 82.2737 141.202 81.1005 141.923 79.6621C142.644 78.2237 143.001 76.5069 143.001 74.5249V60.1874C141.738 61.1817 140.389 61.9705 138.954 62.5538Z" fill="white"/>
<path d="M208.646 44.7693C208.421 43.0591 208.017 41.5014 207.429 40.1028C206.84 38.7042 206.013 37.5773 204.929 36.7222C203.851 35.8671 202.409 35.4363 200.61 35.4363C198.362 35.4363 196.517 35.9533 195.075 36.994C193.633 38.0347 192.555 39.5659 191.834 41.5942C191.113 43.6226 190.617 46.1944 190.353 49.3032C190.082 52.412 189.949 56.0909 189.949 60.3265C189.949 64.834 190.082 68.6918 190.353 71.8934C190.624 75.095 191.113 77.7331 191.834 79.8079C192.555 81.8826 193.567 83.3939 194.87 84.3418C196.173 85.2897 197.859 85.7603 199.929 85.7603C203.077 85.7603 205.372 84.4081 206.814 81.7036C208.249 78.9992 208.97 74.6707 208.97 68.7183H226.779C226.779 78.2767 224.643 85.5548 220.371 90.5594C216.099 95.564 209.009 98.0629 199.116 98.0629C194.44 98.0629 190.366 97.4995 186.901 96.3726C183.435 95.2458 180.558 93.2175 178.264 90.2876C175.969 87.3578 174.236 83.4337 173.066 78.5219C171.895 73.6102 171.313 67.4986 171.313 60.194C171.313 52.8893 172.034 46.5126 173.469 41.5942C174.904 36.6825 176.934 32.7584 179.54 29.8285C182.146 26.8987 185.254 24.8505 188.852 23.6772C192.449 22.504 196.411 21.9207 200.729 21.9207C209.366 21.9207 215.861 24.4461 220.226 29.4971C224.59 34.5481 226.773 41.402 226.773 50.0523H208.963C208.963 48.2493 208.851 46.4927 208.626 44.7759L208.646 44.7693Z" fill="white"/>
<path d="M235.569 43.6888C236.561 38.9096 238.174 34.9192 240.423 31.7176C242.672 28.516 245.621 26.0833 249.265 24.4129C252.909 22.7425 257.38 21.9139 262.69 21.9139C268.265 21.8278 272.901 22.5702 276.592 24.1478C280.282 25.7254 283.205 28.1382 285.361 31.3862C287.517 34.6342 289.051 38.6444 289.951 43.4236C290.85 48.2028 291.3 53.7907 291.3 60.1939C291.3 66.5971 290.804 71.9132 289.812 76.6924C288.82 81.4716 287.199 85.4619 284.958 88.6635C282.709 91.8651 279.759 94.2315 276.122 95.7627C272.478 97.2939 268.001 98.0629 262.697 98.0629C257.115 98.149 252.486 97.453 248.796 95.9682C245.105 94.4834 242.182 92.1369 240.026 88.9353C237.87 85.7337 236.336 81.7234 235.437 76.8979C234.537 72.0723 234.087 66.5043 234.087 60.1939C234.087 53.8835 234.577 48.4746 235.569 43.6954V43.6888ZM252.975 70.4681C253.154 73.6233 253.584 76.3278 254.258 78.5815C254.933 80.8352 255.945 82.5918 257.294 83.8578C258.643 85.1239 260.442 85.7536 262.69 85.7536C266.467 85.7536 269.079 83.7717 270.514 79.8012C271.949 75.8373 272.67 69.3015 272.67 60.1873C272.67 51.073 271.949 44.5439 270.514 40.5733C269.072 36.6095 266.467 34.6209 262.69 34.6209C260.442 34.6209 258.643 35.2506 257.294 36.5167C255.945 37.7827 254.933 39.5393 254.258 41.793C253.584 44.0467 253.154 46.7512 252.975 49.9064C252.797 53.0616 252.704 56.4885 252.704 60.1873C252.704 63.886 252.79 67.313 252.975 70.4681Z" fill="white"/>
<path d="M319.096 23.8032V32.3209H319.367C321.344 28.715 323.91 26.0768 327.058 24.4064C330.206 22.736 333.804 21.9075 337.851 21.9075C343.79 21.9075 348.353 23.5315 351.548 26.7795C354.742 30.0275 356.336 35.2972 356.336 42.6018V96.5649H337.712V46.3867C337.712 42.6018 337.084 39.9637 335.821 38.4722C334.558 36.9874 332.534 36.2384 329.75 36.2384C323.183 36.2384 319.903 40.2487 319.903 48.2759V96.5583H301.279V23.8032H319.089H319.096Z" fill="white"/>
<path d="M13.0482 129.151C13.0482 133.698 10.4624 136.005 5.7338 136.005H0V113.885H5.95866C9.99282 113.885 12.5191 116.132 12.5191 119.791C12.5191 121.654 11.5734 123.364 9.80765 124.12C11.5734 124.816 13.0548 126.426 13.0548 129.144L13.0482 129.151ZM8.60401 119.957C8.60401 118.439 7.90961 117.524 5.98511 117.524H3.84238V122.357H6.0777C8.00219 122.357 8.5974 121.216 8.5974 119.957H8.60401ZM9.1397 129.244C9.1397 126.937 8.13446 125.896 5.82639 125.896H3.84238V132.372H5.95204C8.18737 132.372 9.13308 131.08 9.13308 129.244H9.1397Z" fill="#DD0000"/>
<path d="M30.2365 129.151C30.2365 133.698 27.6506 136.005 22.9221 136.005H17.1816V113.885H23.1403C27.1745 113.885 29.7008 116.132 29.7008 119.791C29.7008 121.654 28.7551 123.364 26.9893 124.12C28.7551 124.816 30.2365 126.426 30.2365 129.144V129.151ZM25.7923 119.957C25.7923 118.439 25.0979 117.524 23.1734 117.524H21.0306V122.357H23.2726C25.1971 122.357 25.7923 121.216 25.7923 119.957ZM26.328 129.244C26.328 126.937 25.3161 125.896 23.0146 125.896H21.0306V132.372H23.1403C25.3822 132.372 26.328 131.08 26.328 129.244Z" fill="#DD0000"/>
<path d="M48.2446 124.922C48.2446 128.554 47.2989 131.716 45.6918 133.804L47.2328 136.363L44.5543 138.007L43.2647 135.826C42.5108 136.17 41.7238 136.363 40.9038 136.363C35.7652 136.363 33.5894 131.338 33.5894 124.988C33.5894 118.638 35.8247 113.547 40.9633 113.547C46.1019 113.547 48.2446 118.572 48.2446 124.922ZM44.2104 124.988C44.2104 120.282 43.2317 117.498 40.8971 117.498C38.5626 117.498 37.6169 120.215 37.6169 124.922C37.6169 129.628 38.5957 132.664 40.9567 132.664C41.0823 132.664 41.208 132.664 41.3336 132.631L39.7596 130.006L42.4381 128.362L43.6351 130.384C44.012 129.184 44.2038 127.474 44.2038 124.981L44.2104 124.988Z" fill="#DD0000"/>
<path d="M74.3543 128.017C74.3543 133.327 71.9603 136.356 67.3574 136.356C62.2188 136.356 60.043 131.332 60.043 124.981C60.043 118.631 62.2783 113.541 67.4169 113.541C70.7566 113.541 73.1838 115.31 74.1295 119.135L70.4392 120.335C69.8705 118.247 68.8652 117.491 67.3508 117.491C64.9832 117.491 64.0705 120.209 64.0705 124.915C64.0705 129.621 65.0493 132.405 67.4103 132.405C69.7713 132.405 70.5318 131.206 70.5318 127.918H67.3772V124.219H74.3411V128.011L74.3543 128.017Z" fill="#DD0000"/>
<path d="M91.7608 136.011H87.4753L84.0364 127.606H82.7468V136.011H78.8052V113.892H84.6712C88.9567 113.892 91.7013 116.199 91.7013 120.779C91.7013 123.874 90.1273 125.803 87.9845 126.818L91.7674 136.011H91.7608ZM87.7597 120.845C87.7597 118.857 86.847 117.75 84.4795 117.75H82.7468V123.914H84.6977C86.7148 123.914 87.7531 122.874 87.7531 120.852L87.7597 120.845Z" fill="#DD0000"/>
<path d="M99.9943 136.011H96.0527V113.892H99.9943V136.011Z" fill="#DD0000"/>
<path d="M116.111 136.011H105.265V113.892H109.207V132.154H116.111V136.011Z" fill="#DD0000"/>
<path d="M131.091 136.011H120.245V113.892H124.186V132.154H131.091V136.011Z" fill="#DD0000"/>
<path d="M147.141 130.039C147.141 133.705 144.621 136.356 140.521 136.356C137.525 136.356 135.442 134.778 133.934 132.883L136.613 130.006C137.935 131.709 139.357 132.531 140.68 132.531C142.32 132.531 143.14 131.617 143.14 130.132C143.14 128.866 142.353 127.858 139.767 126.532C136.487 124.829 134.503 123.152 134.503 119.486C134.503 116.165 136.963 113.547 140.68 113.547C143.424 113.547 145.124 114.654 146.705 116.709L144.086 119.334C142.789 117.882 142.095 117.372 140.587 117.372C139.324 117.372 138.504 118.194 138.504 119.301C138.504 120.626 139.258 121.448 141.659 122.748C145.474 124.802 147.141 126.32 147.141 130.046V130.039Z" fill="#DD0000"/>
<path d="M174.097 136.011H169.871L168.8 134.434C167.537 135.667 165.996 136.363 164.29 136.363C160.288 136.363 158.298 134.116 158.298 130.423C158.298 127.898 159.435 125.969 161.862 124.232L161.109 123.092C160.163 121.7 159.535 120.467 159.535 118.83C159.535 115.416 161.902 113.554 165.242 113.554C167.51 113.554 169.124 114.157 170.824 115.416L168.998 118.638C167.801 117.723 166.631 117.246 165.215 117.246C164.177 117.246 163.483 117.975 163.483 118.857C163.483 119.871 163.8 120.408 164.521 121.481L168.78 127.958C169.098 127.01 169.382 125.969 169.6 124.829L172.563 126.155C172.219 128.084 171.683 129.82 170.989 131.272L174.11 136.011H174.097ZM166.882 131.59L163.761 127.01C162.438 128.084 162.028 129.157 162.028 130.297C162.028 131.782 162.881 132.73 164.395 132.73C165.374 132.73 166.194 132.319 166.889 131.59H166.882Z" fill="#DD0000"/>
<path d="M199.579 124.922C199.579 131.305 197.337 136.363 192.231 136.363C187.126 136.363 184.917 131.338 184.917 124.988C184.917 118.638 187.152 113.547 192.291 113.547C197.43 113.547 199.572 118.572 199.572 124.922H199.579ZM195.545 124.988C195.545 120.282 194.566 117.498 192.231 117.498C189.897 117.498 188.951 120.215 188.951 124.922C188.951 129.628 189.93 132.412 192.291 132.412C194.652 132.412 195.538 129.694 195.538 124.988H195.545Z" fill="#DD0000"/>
<path d="M216.925 127.162C216.925 132.916 215.226 136.356 210.372 136.356C205.517 136.356 203.811 132.724 203.811 127.222V113.885H207.753V127.222C207.753 131.047 208.606 132.439 210.405 132.439C212.203 132.439 212.99 131.047 212.99 127.222V113.885H216.932V127.156L216.925 127.162Z" fill="#DD0000"/>
<path d="M233.763 117.683H229.194V136.011H225.252V117.683H220.682V113.892H233.763V117.683Z" fill="#DD0000"/>
<path d="M251.017 124.922C251.017 132.697 247.678 136.011 242.506 136.011H237.619V113.892H242.599C247.896 113.892 251.017 117.146 251.017 124.922ZM246.983 124.988C246.983 120.911 246.13 117.75 242.605 117.75H241.567V132.16H242.605C246.137 132.16 246.983 129.065 246.983 124.988Z" fill="#DD0000"/>
<path d="M269.211 124.922C269.211 131.305 266.976 136.363 261.864 136.363C256.752 136.363 254.549 131.338 254.549 124.988C254.549 118.638 256.785 113.547 261.923 113.547C267.062 113.547 269.205 118.572 269.205 124.922H269.211ZM265.177 124.988C265.177 120.282 264.198 117.498 261.864 117.498C259.529 117.498 258.583 120.215 258.583 124.922C258.583 129.628 259.562 132.412 261.923 132.412C264.284 132.412 265.17 129.694 265.17 124.988H265.177Z" fill="#DD0000"/>
<path d="M287.405 124.922C287.405 131.305 285.169 136.363 280.057 136.363C274.945 136.363 272.743 131.338 272.743 124.988C272.743 118.638 274.978 113.547 280.117 113.547C285.255 113.547 287.398 118.572 287.398 124.922H287.405ZM283.37 124.988C283.37 120.282 282.392 117.498 280.057 117.498C277.723 117.498 276.777 120.215 276.777 124.922C276.777 129.628 277.756 132.412 280.117 132.412C282.478 132.412 283.364 129.694 283.364 124.988H283.37Z" fill="#DD0000"/>
<path d="M304.685 136.011H300.4L296.961 127.606H295.671V136.011H291.729V113.892H297.596C301.881 113.892 304.626 116.199 304.626 120.779C304.626 123.874 303.052 125.803 300.909 126.818L304.692 136.011H304.685ZM300.684 120.845C300.684 118.857 299.771 117.75 297.404 117.75H295.671V123.914H297.629C299.646 123.914 300.684 122.874 300.684 120.852V120.845Z" fill="#DD0000"/>
<path d="M330.61 128.017C330.61 133.327 328.216 136.356 323.613 136.356C318.474 136.356 316.298 131.332 316.298 124.981C316.298 118.631 318.534 113.541 323.672 113.541C327.012 113.541 329.439 115.31 330.385 119.135L326.695 120.335C326.126 118.247 325.121 117.491 323.606 117.491C321.239 117.491 320.326 120.209 320.326 124.915C320.326 129.621 321.305 132.405 323.666 132.405C326.027 132.405 326.787 131.206 326.787 127.918H323.639V124.219H330.603V128.011L330.61 128.017Z" fill="#DD0000"/>
<path d="M346.66 136.011H335.061V113.892H346.376V117.683H339.002V122.357H343.949V126.088H339.002V132.22H346.66V136.011Z" fill="#DD0000"/>
<path d="M365.045 136.011H360.978L359.94 131.398H354.987L353.948 136.011H349.914L355.555 113.892H359.398L365.045 136.011ZM359.087 127.699L358.485 125.074C358.108 123.371 357.599 120.812 357.447 119.705C357.288 120.845 356.845 123.212 356.435 125.015L355.833 127.699H359.08H359.087Z" fill="#DD0000"/>
<path d="M381.949 136.011H377.664L374.231 127.606H372.935V136.011H368.994V113.892H374.86C379.145 113.892 381.89 116.199 381.89 120.779C381.89 123.874 380.316 125.803 378.166 126.818L381.949 136.011ZM377.948 120.845C377.948 118.857 377.036 117.75 374.668 117.75H372.935V123.914H374.893C376.91 123.914 377.948 122.874 377.948 120.852V120.845Z" fill="#DD0000"/>
<path d="M398 130.039C398 133.705 395.48 136.356 391.38 136.356C388.384 136.356 386.307 134.778 384.793 132.883L387.471 130.006C388.794 131.709 390.216 132.531 391.539 132.531C393.179 132.531 393.999 131.617 393.999 130.132C393.999 128.866 393.212 127.858 390.626 126.532C387.346 124.829 385.362 123.152 385.362 119.486C385.362 116.165 387.822 113.547 391.539 113.547C394.283 113.547 395.983 114.654 397.557 116.709L394.938 119.334C393.648 117.882 392.954 117.372 391.439 117.372C390.176 117.372 389.356 118.194 389.356 119.301C389.356 120.626 390.11 121.448 392.511 122.748C396.327 124.802 397.993 126.32 397.993 130.046L398 130.039Z" fill="#DD0000"/>
</g>
<defs>
<clipPath id="clip0_201_2257">
<rect width="398" height="138" fill="white"/>
</clipPath>
</defs>
</svg>
