<svg width="478" height="90" viewBox="0 0 478 90" fill="none" xmlns="http://www.w3.org/2000/svg">
<path d="M37.9834 83.0364C37.9834 83.5181 37.8701 84.099 37.6505 84.7791C37.4309 85.4591 37.0908 86.1037 36.6304 86.6988C36.1699 87.3009 35.6103 87.818 34.9515 88.2643C34.2927 88.7106 33.5419 88.9231 32.6989 88.9231C30.255 88.9231 28.4486 88.5122 27.2939 87.6905C26.1322 86.8688 25.268 85.537 24.7083 83.6952C24.2266 82.1722 23.7449 80.5429 23.2632 78.8003C22.7815 77.0577 22.2148 75.4568 21.549 73.9904C20.8902 72.5311 20.0755 71.3056 19.1121 70.321C18.1487 69.3434 16.9516 68.8476 15.5065 68.8476H13.7072C12.6234 68.8476 12.0071 69.0672 11.8441 69.5064V82.5477C11.8441 85.1545 13.6859 86.4508 17.3695 86.4508V88.2501H0.425029V86.4508C3.95277 86.4508 5.70955 85.1474 5.70955 82.5477V54.1274C5.70955 51.5631 3.80401 50.2809 0 50.2809V48.4178H7.50884C8.83351 48.4178 9.95276 48.4108 10.8737 48.3895C11.7945 48.3683 12.6871 48.3399 13.5513 48.2974C14.4085 48.2549 15.3365 48.2266 16.314 48.2053C17.2916 48.1841 18.4888 48.177 19.8913 48.177C21.6127 48.177 23.2349 48.4249 24.7579 48.9279C26.2809 49.4308 27.5914 50.118 28.6965 51.0034C29.7945 51.8818 30.6658 52.9232 31.3104 54.1274C31.948 55.3317 32.2738 56.628 32.2738 58.0306C32.2738 59.4332 32.0117 60.6728 31.4946 61.7567C30.9704 62.8405 30.2408 63.7826 29.2986 64.5831C28.3565 65.3836 27.2443 66.0636 25.9622 66.6232C24.68 67.1829 23.2562 67.6221 21.6977 67.9479V68.125C23.6174 69.0459 25.2113 70.2006 26.4722 71.5819C27.7331 72.9633 28.5832 74.295 29.0295 75.5772C29.2703 76.3777 29.5466 77.3411 29.8724 78.4603C30.1912 79.5795 30.5666 80.6421 30.9846 81.648C31.4025 82.6468 31.8984 83.504 32.458 84.2053C33.0177 84.9066 33.6977 85.2608 34.4982 85.2608C35.4616 85.2608 36.1629 84.3611 36.6021 82.5547L37.9834 83.0364ZM16.4132 66.5099C17.6174 66.5099 18.7792 66.432 19.8984 66.2691C21.0177 66.1061 22.0236 65.7519 22.902 65.1852C23.7804 64.6256 24.4958 63.8251 25.0342 62.7838C25.5726 61.7425 25.8417 60.3187 25.8417 58.5194C25.8417 56.9963 25.5726 55.7354 25.0342 54.7366C24.4958 53.7378 23.7945 52.9444 22.9303 52.3635C22.0661 51.7827 21.1168 51.3718 20.0755 51.131C19.0342 50.8901 18.0141 50.7697 17.0082 50.7697H14.1251C12.6021 50.7697 11.8441 51.8889 11.8441 54.1345V65.6103C12.0071 66.2124 12.4817 66.5099 13.2892 66.5099H16.4132Z" fill="white"/>
<path d="M52.4626 88.2644V86.4651C56.1462 86.4651 57.988 85.1617 57.988 82.5549V55.2893C57.988 51.9174 56.0045 50.2314 52.0376 50.2314V48.4321H83.6456L84.1273 59.6671L82.2642 59.9079C81.903 57.7473 81.3646 56.0614 80.642 54.8571C79.9195 53.6529 79.0482 52.7603 78.0281 52.1795C77.008 51.5986 75.8321 51.2586 74.5145 51.1594C73.1899 51.0602 71.7519 51.0106 70.1863 51.0106H68.5004C65.4543 51.0106 63.9313 51.9103 63.9313 53.7167V64.4699C63.9313 65.6741 64.413 66.2692 65.3764 66.2692H67.4166C68.4154 66.2692 69.3504 66.2196 70.2076 66.1204C71.0718 66.0212 71.8298 65.7591 72.4886 65.3412C73.1474 64.9232 73.6928 64.2786 74.1108 63.4215C74.5287 62.5643 74.8191 61.3884 74.9821 59.9079H77.2064V75.471H74.9821C74.8191 73.9905 74.5783 72.8146 74.2595 71.9575C73.9408 71.1003 73.4803 70.4344 72.8782 69.974C72.2761 69.5136 71.5323 69.216 70.6539 69.0744C69.7755 68.9327 68.6916 68.8618 67.4095 68.8618H66.6869C64.8451 68.8618 63.9242 69.5206 63.9242 70.8453V82.3211C63.9242 84.6021 65.5252 85.7426 68.7341 85.7426H70.5972C73.119 85.7426 75.1521 85.5513 76.6964 85.1688C78.2406 84.7863 79.4874 84.1912 80.4508 83.3695C81.4142 82.5478 82.1863 81.5135 82.7672 80.2739C83.3481 79.0342 83.936 77.5678 84.5381 75.889L86.1603 76.3707L84.5381 88.2715H52.4485L52.4626 88.2644Z" fill="white"/>
<path d="M126.318 60.5667C125.518 57.3223 124.172 54.7296 122.295 52.7887C120.41 50.8477 118.087 49.8701 115.324 49.8701C113.043 49.8701 111.216 50.4723 109.856 51.6694C108.495 52.8737 107.815 54.3967 107.815 56.2385C107.815 57.6765 108.304 58.9303 109.289 59.9929C110.273 61.0555 111.74 62.0047 113.709 62.8477C116.153 63.889 118.377 64.7603 120.382 65.4616C122.387 66.1629 124.101 66.9775 125.518 67.8984C126.942 68.8193 128.04 69.9811 128.826 71.3837C129.605 72.7863 129.995 74.6918 129.995 77.0932C129.995 78.5737 129.761 80.0401 129.301 81.4781C128.84 82.9232 128.132 84.2125 127.168 85.353C126.205 86.4934 124.951 87.4143 123.414 88.1156C121.87 88.8169 120.021 89.164 117.853 89.164C116.451 89.164 115.239 89.0649 114.219 88.8665C113.199 88.6682 112.335 88.4273 111.634 88.144C110.932 87.8606 110.38 87.5844 109.983 87.301C109.579 87.0176 109.303 86.8193 109.14 86.6989C108.382 87.2585 107.617 87.7614 106.859 88.2006C106.101 88.6398 105.336 88.9586 104.578 89.164C104.139 86.118 103.806 83.4262 103.586 81.0814C103.367 78.7367 103.253 76.6824 103.253 74.9256H105.237C105.237 76.6894 105.598 78.3046 106.321 79.7638C107.043 81.2231 107.964 82.4769 109.083 83.5182C110.203 84.5596 111.464 85.3742 112.866 85.9551C114.269 86.5359 115.629 86.8264 116.954 86.8264C117.796 86.8264 118.724 86.6847 119.745 86.4084C120.765 86.1322 121.728 85.6859 122.628 85.0909C123.527 84.4887 124.292 83.7308 124.909 82.8099C125.532 81.889 125.837 80.791 125.837 79.5088C125.837 77.9079 125.404 76.5124 124.547 75.3081C123.683 74.1109 122.316 73.1688 120.432 72.4887C118.229 71.6883 116.118 70.9516 114.092 70.2715C112.066 69.5915 110.288 68.7839 108.743 67.8418C107.199 66.8996 105.967 65.7237 105.046 64.2999C104.125 62.8831 103.664 61.013 103.664 58.6895C103.664 57.0106 103.962 55.4876 104.564 54.1275C105.166 52.7674 105.974 51.5986 107.001 50.6139C108.021 49.6364 109.211 48.8713 110.578 48.333C111.938 47.7946 113.362 47.5254 114.843 47.5254C116.564 47.5254 118.037 47.8371 119.263 48.4534C120.481 49.0767 121.615 49.6222 122.656 50.1039C123.896 49.1051 125.199 48.4038 126.559 48C127.119 49.8418 127.523 51.7969 127.763 53.8583C128.004 55.9197 128.125 58.1582 128.125 60.5596H126.318V60.5667Z" fill="white"/>
<path d="M153.719 88.2644V86.4651C158.005 86.4651 160.151 84.6233 160.151 80.9397V53.2349C160.151 51.7544 159.166 51.0106 157.204 51.0106C154.562 51.0106 152.415 51.8607 150.772 53.5679C149.129 55.268 147.91 57.8465 147.11 61.2892L145.247 60.8075L146.869 48.0071C147.79 48.1275 148.661 48.2267 149.483 48.3046C150.304 48.3825 151.098 48.425 151.856 48.425H174.992C175.834 48.425 176.692 48.3825 177.577 48.3046C178.455 48.2267 179.362 48.1275 180.283 48.0071V60.5667L178.661 60.8075C178.179 54.3967 174.992 51.1948 169.091 51.1948C167.093 51.1948 166.101 51.8748 166.101 53.2349V80.9397C166.101 84.6233 168.262 86.4651 172.59 86.4651V88.2644H153.719Z" fill="white"/>
<path d="M212.791 88.2644V86.4651C213.35 86.3872 213.938 86.3022 214.562 86.2243C215.185 86.1463 215.745 86.0472 216.248 85.9267C216.75 85.8063 217.168 85.6575 217.508 85.4734C217.848 85.2963 218.018 85.0838 218.018 84.8429C217.976 84.68 217.948 84.4533 217.926 84.1487C217.905 83.8512 217.799 83.4757 217.593 83.0365L214.887 75.6481C214.448 74.6068 213.223 74.0897 211.218 74.0897H202.264C200.741 74.0897 199.82 74.6068 199.501 75.6481L197.461 81.8677C197.298 82.229 197.22 82.7461 197.22 83.4261C197.22 85.2608 198.984 86.1747 202.505 86.1747V88.2786H188.982V86.1747C190.144 86.0967 191.135 85.693 191.957 84.9775C192.779 84.2549 193.466 83.2207 194.033 81.8606L208.455 47.5396L210.262 48.2621L224.5 83.9574C225.06 84.8004 225.499 85.3175 225.825 85.523C225.903 85.6009 226.236 85.7142 226.817 85.8559C227.397 85.9976 228.205 86.2101 229.253 86.4863V88.2856H212.791V88.2644ZM207.563 55.9976L202.278 68.6139C201.839 69.5773 201.619 70.2573 201.619 70.654C201.619 71.2562 202.363 71.5537 203.844 71.5537H211.416C212.621 71.5537 213.216 71.3128 213.216 70.8311C213.216 70.6328 212.996 69.9669 212.557 68.8477L207.57 55.9905L207.563 55.9976Z" fill="white"/>
<path d="M270.474 55.523C270.474 51.9953 268.413 50.2243 264.283 50.2243V48.425H278.224V50.2243C274.902 50.2243 273.237 51.9882 273.237 55.523V73.8205C273.237 76.1086 273.039 78.1912 272.635 80.0755C272.231 81.9598 271.424 83.5749 270.198 84.9208C268.973 86.2668 267.244 87.3081 264.998 88.0519C262.753 88.7957 259.771 89.1641 256.045 89.1641C253.679 89.1641 251.61 88.8453 249.825 88.2007C248.04 87.556 246.538 86.6564 245.32 85.4946C244.101 84.3329 243.173 82.9445 242.557 81.3435C241.934 79.7355 241.629 77.9929 241.629 76.1086V54.6234C241.629 51.6978 239.723 50.2314 235.919 50.2314V48.4321H253.289V50.2314C249.485 50.2314 247.579 51.6978 247.579 54.6234V74.5501C247.579 75.9173 247.65 77.3058 247.792 78.7367C247.934 80.1605 248.366 81.4427 249.081 82.5903C249.804 83.7308 250.916 84.6658 252.418 85.3884C253.919 86.1109 256.052 86.4722 258.814 86.4722C261.379 86.4722 263.433 86.0826 264.97 85.2963C266.514 84.5171 267.683 83.5395 268.484 82.3778C269.284 81.216 269.815 79.9268 270.078 78.5242C270.34 77.1216 270.467 75.7969 270.467 74.5501V55.5301L270.474 55.523Z" fill="white"/>
<path d="M327.98 83.0364C327.98 83.5181 327.867 84.099 327.648 84.7791C327.428 85.4591 327.088 86.1037 326.627 86.6988C326.167 87.3009 325.607 87.818 324.942 88.2643C324.283 88.7035 323.532 88.9231 322.689 88.9231C320.245 88.9231 318.439 88.5122 317.277 87.6905C316.115 86.8688 315.251 85.537 314.691 83.6952C314.21 82.1722 313.728 80.5429 313.246 78.8003C312.764 77.0577 312.198 75.4568 311.532 73.9904C310.873 72.5311 310.058 71.3056 309.095 70.321C308.132 69.3434 306.934 68.8476 305.489 68.8476H303.69C302.606 68.8476 301.99 69.0672 301.827 69.5064V82.5477C301.827 85.1545 303.669 86.4508 307.352 86.4508V88.2501H290.408V86.4508C293.936 86.4508 295.692 85.1474 295.692 82.5477V54.1274C295.692 51.5631 293.787 50.2809 289.983 50.2809V48.4178H297.492C298.816 48.4178 299.936 48.4108 300.857 48.3895C301.777 48.3683 302.67 48.3399 303.534 48.2974C304.391 48.2549 305.319 48.2266 306.297 48.2053C307.274 48.1841 308.472 48.177 309.874 48.177C311.596 48.177 313.218 48.4249 314.741 48.9279C316.264 49.4308 317.574 50.118 318.679 51.0034C319.777 51.8818 320.649 52.9232 321.293 54.1274C321.931 55.3317 322.257 56.628 322.257 58.0306C322.257 59.4332 321.995 60.6728 321.478 61.7567C320.96 62.8405 320.224 63.7826 319.282 64.5831C318.339 65.3836 317.227 66.0636 315.945 66.6232C314.663 67.1829 313.239 67.6221 311.681 67.9479V68.125C313.6 69.0459 315.194 70.2006 316.455 71.5819C317.716 72.9633 318.566 74.295 319.012 75.5772C319.253 76.3777 319.529 77.3411 319.855 78.4603C320.174 79.5795 320.55 80.6421 320.967 81.648C321.385 82.6468 321.881 83.504 322.441 84.2053C323.001 84.9066 323.681 85.2608 324.481 85.2608C325.444 85.2608 326.146 84.3611 326.585 82.5547L327.966 83.0364H327.98ZM306.41 66.5099C307.615 66.5099 308.776 66.432 309.895 66.2691C311.015 66.1061 312.021 65.7519 312.899 65.1852C313.777 64.6256 314.493 63.8251 315.031 62.7838C315.57 61.7425 315.846 60.3187 315.846 58.5194C315.846 56.9963 315.577 55.7354 315.031 54.7366C314.486 53.7378 313.792 52.9444 312.927 52.3635C312.063 51.7827 311.114 51.3718 310.073 51.131C309.031 50.8901 308.011 50.7697 307.005 50.7697H304.122C302.599 50.7697 301.841 51.8889 301.841 54.1345V65.6103C302.004 66.2124 302.479 66.5099 303.286 66.5099H306.41Z" fill="white"/>
<path d="M362.713 88.2644V86.4651C363.272 86.3872 363.86 86.3022 364.484 86.2243C365.107 86.1463 365.667 86.0472 366.17 85.9267C366.673 85.8063 367.091 85.6575 367.431 85.4734C367.771 85.2963 367.941 85.0838 367.941 84.8429C367.898 84.68 367.87 84.4533 367.849 84.1487C367.827 83.8512 367.721 83.4757 367.516 83.0365L364.81 75.6481C364.37 74.6068 363.145 74.0897 361.147 74.0897H352.193C350.67 74.0897 349.749 74.6068 349.431 75.6481L347.39 81.8677C347.228 82.229 347.15 82.7461 347.15 83.4261C347.15 85.2608 348.913 86.1747 352.434 86.1747V88.2786H338.911V86.1747C340.073 86.0967 341.065 85.693 341.886 84.9775C342.708 84.2549 343.395 83.2207 343.962 81.8606L358.385 47.5396L360.184 48.2621L374.422 83.9574C374.982 84.8004 375.421 85.3175 375.747 85.523C375.825 85.6009 376.158 85.7142 376.739 85.8559C377.32 85.9976 378.127 86.2101 379.176 86.4863V88.2856H362.713V88.2644ZM357.485 55.9976L352.2 68.6139C351.761 69.5773 351.542 70.2573 351.542 70.654C351.542 71.2562 352.285 71.5537 353.766 71.5537H361.338C362.543 71.5537 363.138 71.3128 363.138 70.8311C363.138 70.6328 362.918 69.9669 362.479 68.8477L357.492 55.9905L357.485 55.9976Z" fill="white"/>
<path d="M425.086 88.9303L398.529 55.098V79.3176C398.529 84.085 400.59 86.4722 404.72 86.4722V88.2715H390.297V86.4722C393.662 86.4722 395.348 84.085 395.348 79.3105V52.7674C395.348 51.0815 393.364 50.2385 389.397 50.2385V48.4392H400.384L423.889 78.425V56.8689C423.889 52.4557 421.848 50.2456 417.761 50.2456V48.4463H432.184V50.2456C428.5 50.2456 426.658 52.4557 426.658 56.8619V88.5194L425.1 88.9445L425.086 88.9303Z" fill="white"/>
<path d="M450.445 88.2644V86.4651C454.731 86.4651 456.878 84.6233 456.878 80.9397V53.2349C456.878 51.7544 455.893 51.0106 453.931 51.0106C451.288 51.0106 449.142 51.8607 447.499 53.5679C445.855 55.268 444.637 57.8465 443.836 61.2892L441.973 60.8075L443.595 48.0071C444.516 48.1275 445.388 48.2267 446.209 48.3046C447.031 48.3825 447.824 48.425 448.582 48.425H471.718C472.561 48.425 473.418 48.3825 474.304 48.3046C475.182 48.2267 476.089 48.1275 477.01 48.0071V60.5667L475.388 60.8075C474.906 54.3967 471.718 51.1948 465.817 51.1948C463.82 51.1948 462.828 51.8748 462.828 53.2349V80.9397C462.828 84.6233 464.988 86.4651 469.317 86.4651V88.2644H450.445Z" fill="white"/>
<path d="M147.159 0H143.263V3.8961H147.159V0Z" fill="white"/>
<path d="M153.407 0H149.511V3.8961H153.407V0Z" fill="white"/>
<path d="M128.939 16.8453H121.827V25.3459H117.86V5.51123H121.827V13.7001H128.939V5.51123H132.906V25.3459H128.939V16.8453Z" fill="white"/>
<path d="M146.727 21.6623H149.759L152.054 19.0555V5.51123H156.021V20.5856L151.912 25.3459H144.573L140.465 20.5856V5.51123H144.432V19.0838L146.727 21.6623Z" fill="white"/>
<path d="M170.727 25.3459H166.76V9.19481H161.065L162.765 5.51123H174.723L176.423 9.19481H170.727V25.3459Z" fill="white"/>
<path d="M189.563 25.3459H185.596V9.19481H179.9L181.601 5.51123H193.558L195.258 9.19481H189.563V25.3459Z" fill="white"/>
<path d="M211.013 13.5868V17.2987H204.467V21.6623H213.563L211.863 25.3459H200.529V5.51123H211.098L212.94 9.19481H204.467V13.5868H211.013Z" fill="white"/>
<path d="M241.579 16.8453H234.467V25.3459H230.5V5.51123H234.467V13.7001H241.579V5.51123H245.546V25.3459H241.579V16.8453Z" fill="white"/>
<path d="M263.284 20.5289H256.654L255.407 24.4959L255.124 25.3459H251.015L251.298 24.4959L257.447 6.3613L257.759 5.48291H262.151L262.463 6.3613L268.64 24.4959L268.923 25.3459H264.871L264.588 24.4959L263.284 20.5289ZM257.759 17.1004H262.179L259.969 10.2149L257.759 17.1004Z" fill="white"/>
<path d="M279.145 14.0118L283.395 5.51123H287.617L287.164 6.36129L281.185 17.7237V25.3459H277.105V17.7237L271.409 6.36129L270.956 5.51123H275.15L275.603 6.36129L279.145 14.0118Z" fill="white"/>
<path d="M301.841 20.5289H295.211L293.964 24.4959L293.68 25.3459H289.572L289.855 24.4959L296.004 6.3613L296.316 5.48291H300.708L301.019 6.3613L307.196 24.4959L307.48 25.3459H303.428L303.144 24.4959L301.841 20.5289ZM296.316 17.1004H300.736L298.526 10.2149L296.316 17.1004Z" fill="white"/>
<path d="M312.523 14.2385V10.8666L315.045 5.51123H323.574L325.274 9.19481H317.425L316.264 11.9433L325.671 16.6186V19.9905L323.149 25.3459H313.317L311.617 21.6623H320.911L321.987 19.0271L312.523 14.2385Z" fill="white"/>
<path d="M342.835 16.8453H335.723V25.3459H331.756V5.51123H335.723V13.7001H342.835V5.51123H346.802V25.3459H342.835V16.8453Z" fill="white"/>
<path d="M355.189 5.51123H359.156V25.3459H355.189V5.51123Z" fill="white"/>
</svg>
