<svg width="935" height="99" viewBox="0 0 935 99" fill="none" xmlns="http://www.w3.org/2000/svg">
<g clip-path="url(#clip0_287_1042)">
<path d="M113.53 0H98.44V15.09H113.53V0Z" fill="white"/>
<path d="M137.73 0H122.64V15.09H137.73V0Z" fill="white"/>
<path d="M42.93 65.2596H15.37V98.1996H0V21.3496H15.37V53.0796H42.93V21.3496H58.3V98.1996H42.93V65.2596Z" fill="white"/>
<path d="M111.87 83.9296H123.62L132.51 73.8296V21.3496H147.88V79.7596L131.96 98.1996H103.53L87.61 79.7596V21.3496H102.98V73.9396L111.87 83.9296Z" fill="white"/>
<path d="M204.85 98.1996H189.48V35.6196H167.41L174 21.3496H220.33L226.92 35.6196H204.85V98.1996Z" fill="white"/>
<path d="M277.85 98.1996H262.48V35.6196H240.41L247 21.3496H293.33L299.92 35.6196H277.85V98.1996Z" fill="white"/>
<path d="M360.96 52.6396V67.0196H335.6V83.9296H370.84L364.25 98.1996H320.34V21.3496H361.29L368.43 35.6196H335.6V52.6396H360.96Z" fill="white"/>
<path d="M479.41 65.2596H451.85V98.1996H436.48V21.3496H451.85V53.0796H479.41V21.3496H494.78V98.1996H479.41V65.2596Z" fill="white"/>
<path d="M563.5 79.54H537.81L532.98 94.91L531.88 98.2H515.96L517.06 94.91L540.88 24.65L542.09 21.25H559.11L560.32 24.65L584.25 94.91L585.35 98.2H569.65L568.55 94.91L563.5 79.54ZM542.09 66.26H559.22L550.66 39.58L542.1 66.26H542.09Z" fill="white"/>
<path d="M624.97 54.2896L641.44 21.3496H657.8L656.04 24.6396L632.87 68.6696V98.1996H617.06V68.6696L594.99 24.6396L593.23 21.3496H609.48L611.24 24.6396L624.96 54.2796L624.97 54.2896Z" fill="white"/>
<path d="M712.9 79.54H687.21L682.38 94.91L681.28 98.2H665.36L666.46 94.91L690.28 24.65L691.49 21.25H708.51L709.72 24.65L733.65 94.91L734.75 98.2H719.05L717.95 94.91L712.9 79.54ZM691.49 66.26H708.62L700.06 39.58L691.5 66.26H691.49Z" fill="white"/>
<path d="M754.29 55.1598V42.0898L764.06 21.3398H797.11L803.7 35.6098H773.29L768.79 46.2598L805.24 64.3798V77.4398L795.47 98.1898H757.37L750.78 83.9198H786.79L790.96 73.7098L754.29 55.1598Z" fill="white"/>
<path d="M871.75 65.2596H844.19V98.1996H828.82V21.3496H844.19V53.0796H871.75V21.3496H887.12V98.1996H871.75V65.2596Z" fill="white"/>
<path d="M919.61 21.3496H934.98V98.1996H919.61V21.3496Z" fill="white"/>
</g>
<defs>
<clipPath id="clip0_287_1042">
<rect width="934.98" height="98.2" fill="white"/>
</clipPath>
</defs>
</svg>
