<svg width="155" height="48" viewBox="0 0 155 48" fill="none" xmlns="http://www.w3.org/2000/svg">
<path d="M23.416 45.196C22.272 45.196 21.2493 45.0747 20.348 44.832C19.4813 44.624 18.5973 44.312 17.696 43.896C17.7653 43.376 17.8 42.6307 17.8 41.66C17.8 40.6893 17.7827 39.7013 17.748 38.696C17.7133 37.656 17.644 36.8067 17.54 36.148C18.1987 36.4947 19.0307 36.7893 20.036 37.032C21.076 37.24 22.0293 37.3267 22.896 37.292C24.352 37.2227 25.132 36.5813 25.236 35.368C25.3053 34.1547 24.976 33.0107 24.248 31.936C23.52 30.8267 22.4453 29.4227 21.024 27.724C19.7413 26.1987 18.736 24.7253 18.008 23.304C17.28 21.848 16.9507 20.34 17.02 18.78C17.0893 17.1853 17.644 15.4347 18.684 13.528L25.808 17.116C25.3227 17.9827 25.028 18.7107 24.924 19.3C24.82 19.8893 24.9587 20.5307 25.34 21.224C25.756 21.9173 26.5013 22.8707 27.576 24.084C29.032 25.6787 30.176 27.0653 31.008 28.244C31.8747 29.4227 32.4813 30.6013 32.828 31.78C33.2093 32.9587 33.4 34.3627 33.4 35.992C33.4 37.8987 32.932 39.5453 31.996 40.932C31.0947 42.284 29.8813 43.324 28.356 44.052C26.8653 44.8147 25.2187 45.196 23.416 45.196ZM44.736 39.892C44.112 38.9213 43.3147 37.864 42.344 36.72C41.3733 35.5413 40.316 34.38 39.172 33.236C38.028 32.0573 36.884 30.9827 35.74 30.012C34.6307 29.0413 33.6253 28.244 32.724 27.62L38.184 22.524C38.9813 23.0787 39.9347 23.8413 41.044 24.812C42.1533 25.748 43.28 26.788 44.424 27.932C45.6027 29.0413 46.6773 30.168 47.648 31.312C48.6533 32.4213 49.4333 33.4093 49.988 34.276L44.736 39.892ZM5.112 41.66L0.951996 34.484C1.472 34.172 2.23466 33.7387 3.24 33.184C4.24533 32.6293 5.35466 32.0227 6.568 31.364C7.816 30.6707 9.04666 29.9947 10.26 29.336C11.508 28.6773 12.652 28.088 13.692 27.568C14.732 27.0133 15.5293 26.58 16.084 26.268C16.188 26.788 16.3613 27.4813 16.604 28.348C16.8813 29.2147 17.176 30.064 17.488 30.896C17.8 31.728 18.06 32.3867 18.268 32.872C17.5053 33.3227 16.5347 33.9293 15.356 34.692C14.212 35.42 12.9987 36.2173 11.716 37.084C10.4333 37.916 9.20266 38.748 8.024 39.58C6.88 40.3773 5.90933 41.0707 5.112 41.66ZM29.968 15.036C29.3093 14.4813 28.408 13.8573 27.264 13.164C26.1547 12.436 24.924 11.7253 23.572 11.032C22.2547 10.304 20.972 9.66267 19.724 9.108C18.476 8.55333 17.4013 8.172 16.5 7.964L20.66 1.776C21.5613 2.088 22.636 2.53867 23.884 3.128C25.1667 3.68267 26.484 4.30666 27.836 5C29.188 5.65867 30.4187 6.31733 31.528 6.976C32.672 7.6 33.556 8.15467 34.18 8.64L29.968 15.036ZM86.128 47.588C83.4587 47.588 81.0667 47.068 78.952 46.028C76.872 45.0227 75.2253 43.532 74.012 41.556C72.8333 39.5453 72.244 37.1013 72.244 34.224C72.244 33.8427 72.2613 33.3747 72.296 32.82C72.3653 32.2653 72.4173 31.6413 72.452 30.948C70.3027 30.6707 68.2747 30.3413 66.368 29.96C64.496 29.544 62.988 29.1107 61.844 28.66L63.04 21.588C64.0453 22.0387 65.4493 22.4547 67.252 22.836C69.0547 23.2173 71.0133 23.5467 73.128 23.824C73.2667 22.784 73.388 21.7267 73.492 20.652C73.6307 19.5427 73.7693 18.4507 73.908 17.376C72.036 17.0987 70.2853 16.804 68.656 16.492C67.0267 16.18 65.7613 15.9027 64.86 15.66L66.108 8.484C67.0093 8.796 68.2227 9.108 69.748 9.42C71.2733 9.732 72.9373 10.0267 74.74 10.304C75.0173 8.08533 75.2427 6.10933 75.416 4.376C75.5893 2.608 75.6933 1.32533 75.728 0.527999L83.736 1.62C83.528 2.452 83.2853 3.71733 83.008 5.416C82.7307 7.11467 82.436 9.056 82.124 11.24C83.372 11.344 84.516 11.4307 85.556 11.5C86.6307 11.5693 87.5493 11.604 88.312 11.604L87.168 18.728C86.5093 18.728 85.66 18.6933 84.62 18.624C83.58 18.5547 82.4533 18.4507 81.24 18.312C81.1013 19.3867 80.98 20.4613 80.876 21.536C80.772 22.576 80.6853 23.5987 80.616 24.604C81.9333 24.6733 83.1467 24.7253 84.256 24.76C85.4 24.76 86.388 24.7253 87.22 24.656L86.284 31.728C85.4173 31.7627 84.4467 31.78 83.372 31.78C82.332 31.78 81.24 31.7453 80.096 31.676C80.0613 32.0573 80.044 32.4387 80.044 32.82C80.044 33.1667 80.044 33.5133 80.044 33.86C80.044 35.8707 80.512 37.3613 81.448 38.332C82.384 39.3027 83.944 39.788 86.128 39.788C88.2773 39.788 89.976 39.3373 91.224 38.436C92.5067 37.5347 93.148 36.1307 93.148 34.224C93.148 33.184 92.9227 32.0573 92.472 30.844C92.056 29.596 91.38 28.3827 90.444 27.204C89.508 25.9907 88.312 24.916 86.856 23.98C87.688 23.876 88.5373 23.6853 89.404 23.408C90.3053 23.096 91.1373 22.7493 91.9 22.368C92.6627 21.9867 93.252 21.64 93.668 21.328C96.0253 23.2347 97.8453 25.3493 99.128 27.672C100.411 29.96 101.052 32.2653 101.052 34.588C101.052 37.3267 100.393 39.6667 99.076 41.608C97.7587 43.5493 95.9733 45.0227 93.72 46.028C91.5013 47.068 88.9707 47.588 86.128 47.588ZM153.78 45.144C150.348 45.7333 147.02 46.1147 143.796 46.288C140.572 46.4613 137.573 46.392 134.8 46.08C132.027 45.768 129.6 45.1613 127.52 44.26C125.44 43.3587 123.811 42.1107 122.632 40.516C121.453 38.9213 120.864 36.9453 120.864 34.588C120.864 31.3987 121.869 28.7293 123.88 26.58C125.925 24.4307 128.733 22.576 132.304 21.016C131.784 19.456 131.316 17.5667 130.9 15.348C130.519 13.1293 130.259 10.772 130.12 8.276C129.981 5.78 129.981 3.35333 130.12 0.995999H138.388C138.18 2.79867 138.093 4.75733 138.128 6.872C138.197 8.98666 138.353 11.0667 138.596 13.112C138.839 15.1227 139.116 16.8733 139.428 18.364C141.161 17.8093 142.981 17.2893 144.888 16.804C146.829 16.284 148.84 15.764 150.92 15.244L152.272 23.252C149.325 23.5293 146.448 23.9973 143.64 24.656C140.867 25.3147 138.353 26.1293 136.1 27.1C133.881 28.036 132.113 29.1107 130.796 30.324C129.479 31.5027 128.82 32.7507 128.82 34.068C128.82 35.316 129.496 36.356 130.848 37.188C132.235 37.9853 134.124 38.5227 136.516 38.8C138.943 39.0773 141.716 39.06 144.836 38.748C147.991 38.436 151.319 37.812 154.82 36.876C154.577 37.5693 154.369 38.4187 154.196 39.424C154.023 40.4293 153.901 41.4347 153.832 42.44C153.763 43.4453 153.745 44.3467 153.78 45.144Z" fill="#F67F61"/>
</svg>
