<svg width="105" height="50" viewBox="0 0 105 50" fill="none" xmlns="http://www.w3.org/2000/svg">
<path d="M19.52 48.848V32.78H0.851998V10.836H19.52V1.476H27.424V10.836H46.092V32.78H27.424V48.848H19.52ZM27.424 25.344H38.136V17.856H27.424V25.344ZM8.912 25.344H19.52V17.856H8.912V25.344ZM75.94 49.316C75.6627 48.5187 75.3333 47.6693 74.952 46.768C74.6053 45.8667 74.1893 45.0173 73.704 44.22C73.5653 45.8147 72.9933 46.9587 71.988 47.652C71.0173 48.38 69.492 48.744 67.412 48.744H64.968C64.9333 48.12 64.8293 47.392 64.656 46.56C64.5173 45.728 64.344 44.9133 64.136 44.116C63.928 43.3187 63.7027 42.66 63.46 42.14H65.28C65.9387 42.14 66.4067 42.036 66.684 41.828C66.996 41.5853 67.152 41.1347 67.152 40.476V31.376H64.552C64.3787 35.0507 63.9453 38.3267 63.252 41.204C62.5587 44.0467 61.5187 46.5427 60.132 48.692C59.3693 48.2067 58.416 47.704 57.272 47.184C56.128 46.664 55.0533 46.2827 54.048 46.04C55.0187 44.688 55.7987 43.1453 56.388 41.412C57.012 39.644 57.48 37.5293 57.792 35.068C58.104 32.6067 58.26 29.6947 58.26 26.332V2.568H73.756V10.16C74.9693 8.66933 76.096 7.02266 77.136 5.22C78.2107 3.38267 79.0253 1.71866 79.58 0.227997L86.184 2.152C86.08 2.464 85.9587 2.79333 85.82 3.14C85.6813 3.452 85.5253 3.78133 85.352 4.128H103.032V9.848H82.128C81.816 10.3333 81.4693 10.836 81.088 11.356H99.912V27.632H87.848C87.744 27.8747 87.6227 28.1173 87.484 28.36C87.38 28.568 87.276 28.7933 87.172 29.036H98.872L100.744 30.96C99.0107 34.3573 96.7747 37.3907 94.036 40.06C97.1907 41.62 100.727 42.6253 104.644 43.076C104.263 43.6307 103.847 44.2893 103.396 45.052C102.98 45.8147 102.599 46.5773 102.252 47.34C101.94 48.1027 101.715 48.744 101.576 49.264C99.2187 48.848 96.9307 48.224 94.712 47.392C92.4933 46.56 90.4133 45.5373 88.472 44.324C84.936 46.508 80.7587 48.172 75.94 49.316ZM73.756 35.796C75.316 34.6867 76.7027 33.4213 77.916 32C79.1293 30.544 80.152 29.088 80.984 27.632H77.708V15.516C77.5347 15.724 77.344 15.932 77.136 16.14C76.9627 16.348 76.772 16.5387 76.564 16.712C76.2173 16.3653 75.8013 16.0013 75.316 15.62C74.8307 15.204 74.3107 14.8227 73.756 14.476V35.796ZM73.756 43.44C75.5587 43.128 77.2573 42.6773 78.852 42.088C80.4467 41.4987 81.9373 40.84 83.324 40.112C82.5267 39.3147 81.764 38.4133 81.036 37.408C80.308 38.1013 79.5453 38.7773 78.748 39.436C77.9853 40.06 77.188 40.632 76.356 41.152C76.0093 40.632 75.6107 40.1293 75.16 39.644C74.7093 39.124 74.2413 38.6387 73.756 38.188V43.44ZM64.656 13.956H67.152V8.548H64.656V13.956ZM64.656 25.344H67.152V19.988H64.656V25.344ZM84.312 22.796H93.308V21.392H84.312V22.796ZM84.312 17.544H93.308V16.14H84.312V17.544ZM88.68 36.576C89.1653 36.1947 89.6333 35.8133 90.084 35.432C90.5347 35.016 90.9333 34.6173 91.28 34.236H86.288C86.6693 34.652 87.0507 35.0507 87.432 35.432C87.8133 35.8133 88.2293 36.1947 88.68 36.576Z" fill="#F67F61"/>
</svg>
