<svg width="104" height="48" viewBox="0 0 104 48" fill="none" xmlns="http://www.w3.org/2000/svg">
<path d="M0.255998 45.184V10.292H8.16V37.696H17.416V1.192H25.32V37.696H34.576V10.292H42.48V45.184H0.255998ZM73.16 47.472C72.744 46.5707 72.12 45.5307 71.288 44.352C70.456 43.1733 69.6413 42.1853 68.844 41.388C69.7107 41.1453 70.7507 40.764 71.964 40.244C73.1773 39.6893 74.3907 39.0653 75.604 38.372C76.852 37.6787 77.9613 37.0027 78.932 36.344H74.096V9.356H81.376C81.48 8.87067 81.6013 8.35067 81.74 7.796C81.8787 7.24133 82 6.72133 82.104 6.236H72.744V0.0479982H101.344V6.236H90.684C90.5453 6.72133 90.3893 7.24133 90.216 7.796C90.0427 8.35067 89.8693 8.87067 89.696 9.356H99.524V36.344H94.324C95.6067 37.28 97.0627 38.1987 98.692 39.1C100.321 39.9667 101.847 40.6427 103.268 41.128C102.505 41.9947 101.708 43.0173 100.876 44.196C100.044 45.4093 99.42 46.5013 99.004 47.472C97.1667 46.7787 95.2253 45.7213 93.18 44.3C91.1347 42.8787 89.3493 41.3707 87.824 39.776L91.36 36.344H82.364L85.796 39.828C84.7907 40.8333 83.56 41.8387 82.104 42.844C80.648 43.8147 79.14 44.6987 77.58 45.496C76.02 46.2933 74.5467 46.952 73.16 47.472ZM56.728 46.12C56.6587 45.4613 56.5373 44.6813 56.364 43.78C56.2253 42.8787 56.052 41.9947 55.844 41.128C55.636 40.2267 55.4107 39.4987 55.168 38.944H58.34C58.9987 38.944 59.4667 38.8573 59.744 38.684C60.056 38.476 60.212 38.0427 60.212 37.384V7.744H53.504V1.348H71.964V7.744H67.44V40.452C67.44 42.4627 66.8507 43.9013 65.672 44.768C64.528 45.6693 62.7773 46.12 60.42 46.12H56.728ZM81.532 30.936H92.088V28.856H81.532V30.936ZM81.532 16.844H92.088V14.816L81.532 14.764V16.844ZM81.532 23.864H92.088V21.836H81.532V23.864Z" fill="#F67F61"/>
</svg>
