<svg width="621" height="68" viewBox="0 0 621 68" fill="none" xmlns="http://www.w3.org/2000/svg">
<path d="M289.01 55.49C286.303 56.9367 283.853 57.52 281.66 57.24C279.466 56.9133 277.576 55.6067 275.99 53.32C274.45 51.08 273.026 48.3967 271.72 45.27C270.46 42.1433 269.363 38.8067 268.43 35.26C267.496 31.7133 266.796 28.1667 266.33 24.62C265.863 21.0267 265.653 17.69 265.7 14.61L276.27 14.68C276.13 16.8267 276.2 19.2533 276.48 21.96C276.76 24.62 277.18 27.3033 277.74 30.01C278.346 32.7167 279.046 35.2133 279.84 37.5C280.633 39.7867 281.45 41.63 282.29 43.03C283.503 44.8033 284.95 45.1533 286.63 44.08C287.703 43.38 288.846 42.4233 290.06 41.21C291.273 39.9967 292.323 38.76 293.21 37.5C293.49 38.34 293.933 39.32 294.54 40.44C295.193 41.56 295.893 42.6333 296.64 43.66C297.433 44.6867 298.133 45.5267 298.74 46.18C297.293 48.3267 295.753 50.17 294.12 51.71C292.486 53.25 290.783 54.51 289.01 55.49ZM314.28 41.98C313.813 40.58 313.066 38.8533 312.04 36.8C311.06 34.7 309.916 32.5533 308.61 30.36C307.303 28.12 305.996 26.0667 304.69 24.2C303.383 22.3333 302.17 20.9333 301.05 20L309.24 14.68C310.5 15.8467 311.876 17.4333 313.37 19.44C314.91 21.4 316.403 23.5233 317.85 25.81C319.296 28.0967 320.58 30.3367 321.7 32.53C322.82 34.6767 323.613 36.52 324.08 38.06C322.306 38.3867 320.533 38.9233 318.76 39.67C316.986 40.4167 315.493 41.1867 314.28 41.98Z" fill="#246CA8"/>
<path d="M369.86 61.23C369.44 59.8767 368.856 58.36 368.11 56.68C367.363 54.9533 366.593 53.5533 365.8 52.48C372.846 52.06 378.283 51.0333 382.11 49.4C385.983 47.72 387.873 45.3167 387.78 42.19C387.686 39.9967 386.846 38.3867 385.26 37.36C383.673 36.3333 381.27 35.8667 378.05 35.96C376.416 36.0067 374.503 36.24 372.31 36.66C370.163 37.0333 367.923 37.5 365.59 38.06C363.256 38.62 361.04 39.2267 358.94 39.88C356.886 40.4867 355.16 41.07 353.76 41.63L350.33 32.74C351.45 32.5067 352.896 32.2267 354.67 31.9C356.49 31.5267 358.45 31.13 360.55 30.71C362.65 30.29 364.773 29.8933 366.92 29.52C369.113 29.1467 371.143 28.8433 373.01 28.61C374.876 28.33 376.463 28.1667 377.77 28.12C382.016 27.9333 385.516 28.4233 388.27 29.59C391.023 30.7567 393.1 32.4133 394.5 34.56C395.9 36.66 396.646 39.11 396.74 41.91C396.88 45.9233 395.83 49.2367 393.59 51.85C391.396 54.4633 388.246 56.5167 384.14 58.01C380.08 59.5033 375.32 60.5767 369.86 61.23Z" fill="#246CA8"/>
<path d="M455.05 63.96C451.176 63.7267 448.026 62.5367 445.6 60.39C443.173 58.2433 441.983 55.49 442.03 52.13C442.076 50.17 442.706 48.3733 443.92 46.74C445.18 45.1067 446.906 43.8 449.1 42.82C451.34 41.7933 453.953 41.28 456.94 41.28C457.5 41.28 458.036 41.3033 458.55 41.35C459.063 41.35 459.576 41.3733 460.09 41.42C460.043 39.74 459.973 37.8967 459.88 35.89C459.833 33.8367 459.763 31.6667 459.67 29.38C456.963 29.52 454.326 29.6133 451.76 29.66C449.193 29.66 446.953 29.6133 445.04 29.52L444.48 19.09C446.113 19.3233 448.26 19.4867 450.92 19.58C453.626 19.6267 456.473 19.58 459.46 19.44C459.413 17.48 459.366 15.4733 459.32 13.42C459.32 11.3667 459.32 9.33668 459.32 7.33001H469.4C469.306 9.05668 469.236 10.9 469.19 12.86C469.19 14.82 469.213 16.8267 469.26 18.88C471.873 18.6467 474.253 18.3667 476.4 18.04C478.593 17.7133 480.25 17.3867 481.37 17.06V27.35C480.063 27.5833 478.36 27.84 476.26 28.12C474.206 28.3533 471.943 28.5867 469.47 28.82C469.563 31.5267 469.656 34.1633 469.75 36.73C469.89 39.25 470.006 41.5367 470.1 43.59C472.76 44.57 475.28 45.7833 477.66 47.23C480.04 48.6767 482.326 50.2633 484.52 51.99C483.82 52.55 483.073 53.3433 482.28 54.37C481.486 55.3967 480.763 56.4467 480.11 57.52C479.456 58.5933 478.966 59.5267 478.64 60.32C477.333 59.1067 475.956 57.9867 474.51 56.96C473.11 55.8867 471.663 54.9067 470.17 54.02C469.703 57.7533 468.163 60.4133 465.55 62C462.983 63.5867 459.483 64.24 455.05 63.96ZM428.17 64.59C427.843 62.7233 427.563 60.32 427.33 57.38C427.143 54.44 427.003 51.1967 426.91 47.65C426.863 44.0567 426.863 40.3467 426.91 36.52C426.956 32.6933 427.073 28.96 427.26 25.32C427.446 21.68 427.703 18.32 428.03 15.24C428.356 12.1133 428.73 9.50001 429.15 7.40001L438.88 9.71001C438.366 11.2967 437.923 13.4667 437.55 16.22C437.176 18.9733 436.873 22.0533 436.64 25.46C436.453 28.82 436.336 32.32 436.29 35.96C436.243 39.6 436.266 43.1467 436.36 46.6C436.5 50.0067 436.71 53.1333 436.99 55.98C437.27 58.78 437.62 61.0667 438.04 62.84L428.17 64.59ZM480.67 15.17C478.756 15.17 477.1 14.4933 475.7 13.14C474.346 11.74 473.67 10.0833 473.67 8.17001C473.67 6.21001 474.346 4.55334 475.7 3.20001C477.1 1.80001 478.756 1.10001 480.67 1.10001C482.63 1.10001 484.286 1.80001 485.64 3.20001C487.04 4.55334 487.74 6.21001 487.74 8.17001C487.74 10.0833 487.04 11.74 485.64 13.14C484.286 14.4933 482.63 15.17 480.67 15.17ZM455.82 55.28C457.453 55.28 458.596 54.9533 459.25 54.3C459.95 53.6 460.3 52.2 460.3 50.1C459.646 49.96 458.97 49.8433 458.27 49.75C457.616 49.6567 456.963 49.5867 456.31 49.54C455.003 49.4467 453.86 49.6567 452.88 50.17C451.9 50.6367 451.386 51.36 451.34 52.34C451.293 53.2733 451.69 53.9967 452.53 54.51C453.416 55.0233 454.513 55.28 455.82 55.28ZM480.67 11.81C481.696 11.81 482.56 11.46 483.26 10.76C484.006 10.06 484.38 9.19668 484.38 8.17001C484.38 7.14334 484.006 6.28001 483.26 5.58001C482.56 4.83334 481.696 4.46001 480.67 4.46001C479.643 4.46001 478.78 4.83334 478.08 5.58001C477.38 6.28001 477.03 7.14334 477.03 8.17001C477.03 9.19668 477.38 10.06 478.08 10.76C478.78 11.46 479.643 11.81 480.67 11.81Z" fill="#246CA8"/>
<path d="M528.41 55.49C525.703 56.9367 523.253 57.52 521.06 57.24C518.866 56.9133 516.976 55.6067 515.39 53.32C513.85 51.08 512.426 48.3967 511.12 45.27C509.86 42.1433 508.763 38.8067 507.83 35.26C506.896 31.7133 506.196 28.1667 505.73 24.62C505.263 21.0267 505.053 17.69 505.1 14.61L515.67 14.68C515.53 16.8267 515.6 19.2533 515.88 21.96C516.16 24.62 516.58 27.3033 517.14 30.01C517.746 32.7167 518.446 35.2133 519.24 37.5C520.033 39.7867 520.85 41.63 521.69 43.03C522.903 44.8033 524.35 45.1533 526.03 44.08C527.103 43.38 528.246 42.4233 529.46 41.21C530.673 39.9967 531.723 38.76 532.61 37.5C532.89 38.34 533.333 39.32 533.94 40.44C534.593 41.56 535.293 42.6333 536.04 43.66C536.833 44.6867 537.533 45.5267 538.14 46.18C536.693 48.3267 535.153 50.17 533.52 51.71C531.886 53.25 530.183 54.51 528.41 55.49ZM553.68 41.98C553.213 40.58 552.466 38.8533 551.44 36.8C550.46 34.7 549.316 32.5533 548.01 30.36C546.703 28.12 545.396 26.0667 544.09 24.2C542.783 22.3333 541.57 20.9333 540.45 20L548.64 14.68C549.9 15.8467 551.276 17.4333 552.77 19.44C554.31 21.4 555.803 23.5233 557.25 25.81C558.696 28.0967 559.98 30.3367 561.1 32.53C562.22 34.6767 563.013 36.52 563.48 38.06C561.706 38.3867 559.933 38.9233 558.16 39.67C556.386 40.4167 554.893 41.1867 553.68 41.98Z" fill="#246CA8"/>
<path d="M609.54 48.77C609.353 46.9033 609.166 44.7333 608.98 42.26C608.793 39.7867 608.606 37.22 608.42 34.56C608.233 31.8533 608.046 29.24 607.86 26.72C607.72 24.1533 607.603 21.8433 607.51 19.79C607.416 17.7367 607.37 16.1267 607.37 14.96V4.74001H619.83V14.96C619.83 16.1267 619.783 17.7367 619.69 19.79C619.596 21.8433 619.456 24.1533 619.27 26.72C619.13 29.24 618.966 31.8533 618.78 34.56C618.593 37.22 618.406 39.7867 618.22 42.26C618.033 44.7333 617.846 46.9033 617.66 48.77H609.54ZM613.6 66.9C611.733 66.9 610.123 66.2233 608.77 64.87C607.416 63.5167 606.74 61.9067 606.74 60.04C606.74 58.1267 607.416 56.5167 608.77 55.21C610.123 53.9033 611.733 53.25 613.6 53.25C615.513 53.25 617.123 53.9033 618.43 55.21C619.783 56.5167 620.46 58.1267 620.46 60.04C620.46 61.9067 619.783 63.5167 618.43 64.87C617.123 66.2233 615.513 66.9 613.6 66.9Z" fill="#246CA8"/>
<path d="M4.44992 66.76L0.669922 57.03C1.88326 56.6567 3.23659 56.1433 4.72992 55.49C6.22326 54.8367 7.52992 54.2067 8.64992 53.6V37.92H2.20992V29.1H17.7499V47.44C19.5233 44.78 20.7599 41.7233 21.4599 38.27C22.2066 34.77 22.5799 30.71 22.5799 26.09V19.44H17.1199V14.75C16.2799 15.5433 15.4166 16.4067 14.5299 17.34C13.6433 18.2267 12.9199 19.0433 12.3599 19.79C11.0533 18.0633 9.41992 16.29 7.45992 14.47C5.54659 12.65 3.63326 11.1333 1.71992 9.92L8.50992 2.98999C9.48992 3.55 10.5633 4.29666 11.7299 5.22999C12.9433 6.16333 14.1333 7.14333 15.2999 8.17C16.5133 9.19666 17.5633 10.2 18.4499 11.18H24.6099V3.54999H33.9899V11.18H40.4999V14.96C41.3866 13.0467 42.1099 11.0633 42.6699 9.01C43.2766 6.95666 43.6966 5.01999 43.9299 3.2L52.4699 4.53C52.2833 5.46333 52.0733 6.41999 51.8399 7.4C51.6533 8.33333 51.4199 9.26666 51.1399 10.2H65.9799V18.46H47.9199C47.6866 18.9267 47.4299 19.4167 47.1499 19.93C46.9166 20.3967 46.6599 20.8633 46.3799 21.33H62.4099L64.8599 23.99C64.2066 25.11 63.4366 26.37 62.5499 27.77C61.6633 29.1233 60.7999 30.43 59.9599 31.69C59.1199 32.9033 58.4199 33.8833 57.8599 34.63V35.19H65.9799V43.31H57.8599V49.96C57.8599 52.48 57.1366 54.3 55.6899 55.42C54.2433 56.4933 52.0499 57.03 49.1099 57.03H45.6099C45.5633 56.19 45.4466 55.2333 45.2599 54.16C45.0733 53.0867 44.8399 52.0133 44.5599 50.94C44.3266 49.8667 44.0466 49.0033 43.7199 48.35H46.5199C47.3599 48.35 47.9666 48.2333 48.3399 48C48.7133 47.72 48.8999 47.1833 48.8999 46.39V43.31H41.6899V35.19H48.8999V31.97H50.4399C50.8133 31.4567 51.1633 30.9433 51.4899 30.43C51.8633 29.87 52.1666 29.38 52.3999 28.96H43.2299V25.88C43.1366 26.02 42.9499 26.23 42.6699 26.51C42.0166 25.95 41.3633 25.4367 40.7099 24.97C40.7099 28.5167 40.6633 31.9 40.5699 35.12C40.4766 38.34 40.3133 41.1633 40.0799 43.59C39.8933 46.0167 39.6599 47.86 39.3799 49.12C38.8199 51.6867 37.8166 53.5067 36.3699 54.58C34.9699 55.6067 32.9633 56.12 30.3499 56.12H27.8299C27.7833 55.5133 27.6666 54.72 27.4799 53.74C27.3399 52.7133 27.1766 51.71 26.9899 50.73C26.8033 49.7033 26.5933 48.8633 26.3599 48.21C25.1466 50.7767 23.7233 53.0167 22.0899 54.93C20.8299 53.6233 19.3833 52.5267 17.7499 51.64C17.8899 53.9267 19.8499 55.5833 23.6299 56.61C27.4099 57.59 32.9633 58.08 40.2899 58.08C46.5899 58.08 52.0033 57.9867 56.5299 57.8C61.1033 57.5667 64.6733 57.2167 67.2399 56.75C66.9599 57.45 66.6566 58.4067 66.3299 59.62C66.0033 60.7867 65.7233 62 65.4899 63.26C65.2566 64.5667 65.1166 65.71 65.0699 66.69H40.2899C35.2033 66.69 30.9333 66.4333 27.4799 65.92C24.0733 65.4533 21.2966 64.7533 19.1499 63.82C17.0033 62.8867 15.2999 61.79 14.0399 60.53C12.6866 61.5567 11.1466 62.6533 9.41992 63.82C7.69326 64.9867 6.03659 65.9667 4.44992 66.76ZM26.5699 47.72H28.8099C30.0699 47.72 30.8399 47.5567 31.1199 47.23C31.4466 46.8567 31.6566 46.2733 31.7499 45.48C31.9366 44.4533 32.0999 43.17 32.2399 41.63C32.3799 40.09 32.4966 38.48 32.5899 36.8C32.7299 35.0733 32.7999 33.4633 32.7999 31.97H30.4899C30.2099 34.91 29.7433 37.71 29.0899 40.37C28.4833 42.9833 27.6433 45.4333 26.5699 47.72ZM30.6999 24.13H39.3099C38.0966 23.4767 36.9299 22.94 35.8099 22.52C36.6033 21.68 37.3733 20.6533 38.1199 19.44H30.6999V24.13Z" fill="#F67F61"/>
<path d="M108.12 64.73C101.96 64.73 97.1999 63.0267 93.8399 59.62C90.5266 56.2133 88.8699 51.3367 88.8699 44.99C88.8699 40.9767 89.7099 36.8933 91.3899 32.74C93.0699 28.5867 95.1233 24.5967 97.5499 20.77C95.4966 21.61 93.4666 22.31 91.4599 22.87C89.4533 23.43 87.6333 23.8267 85.9999 24.06L83.8999 14.61C85.6733 14.47 87.6333 14.1667 89.7799 13.7C91.9733 13.2333 94.0966 12.65 96.1499 11.95C98.2499 11.25 100.093 10.5033 101.68 9.71C103.267 8.87 104.363 8.07666 104.97 7.33L113.51 13.98C110.383 17.2 107.723 20.5833 105.53 24.13C103.383 27.63 101.75 31.1067 100.63 34.56C99.5566 38.0133 99.0199 41.28 99.0199 44.36C99.0199 47.7667 99.8366 50.2167 101.47 51.71C103.103 53.2033 105.32 53.95 108.12 53.95C111.06 53.95 113.533 53.1567 115.54 51.57C117.593 49.9367 119.18 47.6967 120.3 44.85C121.42 42.0033 122.097 38.7367 122.33 35.05C122.61 31.3167 122.423 27.35 121.77 23.15C121.163 18.9033 120.137 14.6333 118.69 10.34L128.84 6.98C129.587 10.5267 130.917 13.7233 132.83 16.57C134.743 19.4167 136.89 21.89 139.27 23.99C141.697 26.0433 144.007 27.77 146.2 29.17C145.5 29.7767 144.753 30.6167 143.96 31.69C143.167 32.7167 142.443 33.79 141.79 34.91C141.183 36.03 140.717 37.01 140.39 37.85C138.943 36.9167 137.403 35.7267 135.77 34.28C134.183 32.7867 132.597 30.99 131.01 28.89C131.617 35.9367 131.173 42.1667 129.68 47.58C128.187 52.9467 125.643 57.1467 122.05 60.18C118.457 63.2133 113.813 64.73 108.12 64.73ZM145.43 12.3C144.497 10.9 143.33 9.43 141.93 7.88999C140.577 6.34999 139.317 5.11333 138.15 4.17999L142.56 0.399994C143.213 0.913329 144.03 1.68333 145.01 2.70999C145.99 3.68999 146.947 4.71666 147.88 5.79C148.813 6.81666 149.537 7.70333 150.05 8.45L145.43 12.3ZM138.92 17.9C137.987 16.5 136.82 15.0533 135.42 13.56C134.067 12.02 132.807 10.76 131.64 9.77999L136.05 6C136.703 6.51333 137.52 7.28333 138.5 8.31C139.48 9.28999 140.437 10.3167 141.37 11.39C142.303 12.4167 143.027 13.3033 143.54 14.05L138.92 17.9Z" fill="#F67F61"/>
<path d="M198.07 67.81C197.65 67.39 196.997 66.8533 196.11 66.2C195.223 65.5933 194.29 64.9867 193.31 64.38C192.33 63.7733 191.49 63.3533 190.79 63.12C192.19 62.3733 193.613 61.37 195.06 60.11C196.553 58.85 198 57.4267 199.4 55.84C200.8 54.2533 202.06 52.6667 203.18 51.08C204.347 49.4467 205.257 47.9067 205.91 46.46H204.23C202.783 48.98 200.963 51.5 198.77 54.02C196.577 56.54 194.197 58.8267 191.63 60.88C189.063 62.9333 186.497 64.52 183.93 65.64C183.557 65.0333 182.997 64.3333 182.25 63.54C181.55 62.7933 180.803 62.0933 180.01 61.44C179.217 60.74 178.517 60.2267 177.91 59.9C179.73 59.2467 181.713 58.1967 183.86 56.75C186.053 55.3033 188.153 53.67 190.16 51.85C192.167 50.03 193.8 48.2333 195.06 46.46H193.1C191.327 48.4667 189.437 50.3567 187.43 52.13C185.423 53.9033 183.463 55.3267 181.55 56.4C180.943 55.4667 179.987 54.4633 178.68 53.39C177.42 52.3167 176.253 51.4767 175.18 50.87C177.653 49.61 180.08 47.93 182.46 45.83C180.687 46.67 178.61 47.5567 176.23 48.49C173.85 49.4233 171.493 50.2867 169.16 51.08C166.873 51.8733 164.867 52.5267 163.14 53.04L160.76 43.31C161.973 43.0767 163.257 42.82 164.61 42.54C165.963 42.2133 167.363 41.84 168.81 41.42V25.32H161.46V16.57H168.81V3.61999H178.82V16.57H185.33V25.32H178.82V38.27C179.613 37.99 180.36 37.71 181.06 37.43C181.807 37.15 182.483 36.87 183.09 36.59V30.22H225.72V37.43H199.26C198.98 38.0367 198.63 38.6667 198.21 39.32H224.6C224.6 40.72 224.553 42.4 224.46 44.36C224.413 46.32 224.297 48.35 224.11 50.45C223.97 52.55 223.76 54.5333 223.48 56.4C223.2 58.2667 222.827 59.8067 222.36 61.02C221.473 63.3067 220.283 64.87 218.79 65.71C217.297 66.5967 215.173 67.04 212.42 67.04H207.52C207.427 66.1067 207.263 65.0333 207.03 63.82C206.843 62.6533 206.563 61.5567 206.19 60.53C204.93 62.1167 203.6 63.5167 202.2 64.73C200.847 65.99 199.47 67.0167 198.07 67.81ZM188.13 28.47V4.17999H220.12V28.47H188.13ZM208.15 58.08H210.25C211.23 58.08 211.977 57.9633 212.49 57.73C213.05 57.45 213.493 56.89 213.82 56.05C214.1 55.4433 214.357 54.58 214.59 53.46C214.823 52.34 215.01 51.15 215.15 49.89C215.337 48.63 215.453 47.4867 215.5 46.46H214.66C213.913 48.3733 212.98 50.3333 211.86 52.34C210.74 54.3 209.503 56.2133 208.15 58.08ZM197.58 21.68H210.67V19.44H197.58V21.68ZM197.58 13.63H210.67V11.39H197.58V13.63ZM185.4 43.03C187.127 41.2567 188.597 39.39 189.81 37.43H185.4V43.03Z" fill="#F67F61"/>
</svg>
