<svg width="198" height="68" viewBox="0 0 198 68" fill="none" xmlns="http://www.w3.org/2000/svg">
<g clip-path="url(#clip0_287_1703)">
<path d="M29.9889 0V15.0621H30.123C31.1069 13.6414 32.2159 12.573 33.4472 11.8626C34.6785 11.1523 36.1661 10.7971 37.9102 10.7971C41.7143 10.7971 44.5108 12.274 46.3026 15.2279C48.0913 18.1846 48.9887 22.9912 48.9887 29.6566C48.9887 36.3219 48.0913 41.0989 46.3026 43.9847C44.5108 46.8734 41.7143 48.3177 37.9102 48.3177C36.029 48.3177 34.4519 47.9833 33.1789 47.3173C31.9059 46.6514 30.7521 45.4734 29.7206 43.7864H29.5864V47.5837H20.726V0H29.9889ZM30.8952 38.4884C31.5004 40.4655 32.8301 41.4541 34.8901 41.4541C36.9502 41.4541 38.2143 40.4655 38.8165 38.4884C39.4217 36.5113 39.7228 33.5694 39.7228 29.6566C39.7228 25.7438 39.4217 22.8048 38.8165 20.8247C38.2113 18.8476 36.9025 17.8591 34.8901 17.8591C32.8778 17.8591 31.5004 18.8476 30.8952 20.8247C30.29 22.8018 29.9889 25.7468 29.9889 29.6566C29.9889 33.5664 30.29 36.5113 30.8952 38.4884Z" fill="#001CA5"/>
<path d="M54.2239 21.8606C54.2239 19.774 54.5578 18.0277 55.2315 16.6278C55.9023 15.2278 56.8087 14.0942 57.9505 13.23C59.0923 12.3628 60.4339 11.7412 61.9782 11.3654C63.5225 10.9895 65.1682 10.8 66.9123 10.8C69.6879 10.8 71.9238 11.0664 73.6262 11.5992C75.3255 12.1319 76.6462 12.8896 77.5853 13.8663C78.5244 14.8431 79.1624 16.0092 79.4993 17.3647C79.8332 18.7203 80.0032 20.1972 80.0032 21.7955V40.6549C80.0032 42.3449 80.0807 43.6531 80.2387 44.5884C80.3937 45.5207 80.6978 46.5211 81.145 47.5866H72.2846C71.9715 47.0095 71.736 46.3998 71.581 45.7546C71.423 45.1123 71.2799 44.4789 71.1457 43.8544H71.0116C69.9383 45.719 68.6951 46.9325 67.2849 47.486C65.8748 48.0395 64.0502 48.3177 61.8143 48.3177C60.2044 48.3177 58.8389 48.0395 57.718 47.486C56.6 46.9296 55.7026 46.163 55.0318 45.1863C54.361 44.2096 53.8661 43.1086 53.5561 41.8862C53.243 40.6638 53.088 39.4533 53.088 38.2546C53.088 36.5675 53.2669 35.1113 53.6246 33.889C53.9824 32.6666 54.5309 31.6218 55.2703 30.7576C56.0097 29.8904 56.9488 29.1682 58.0906 28.591C59.2325 28.0139 60.6068 27.5019 62.2197 27.0579L67.4549 25.6579C68.8412 25.3028 69.8041 24.8144 70.3408 24.1929C70.8774 23.5713 71.1457 22.6597 71.1457 21.461C71.1457 20.0847 70.8208 19.0074 70.1708 18.229C69.5209 17.4535 68.4149 17.0629 66.8467 17.0629C65.4127 17.0629 64.3394 17.4861 63.6239 18.3296C62.9084 19.1731 62.5506 20.3067 62.5506 21.7274V22.7278H54.2269V21.8606H54.2239ZM69.1274 30.8256C68.4119 31.1157 67.7619 31.3258 67.1806 31.459C65.2994 31.8586 63.9578 32.5245 63.1529 33.4598C62.3479 34.3921 61.9454 35.6589 61.9454 37.2572C61.9454 38.6334 62.2138 39.8114 62.7504 40.7881C63.287 41.7648 64.1814 42.2532 65.4365 42.2532C66.0626 42.2532 66.7125 42.1526 67.3833 41.9543C68.0541 41.756 68.6683 41.4333 69.2288 40.9864C69.7863 40.5425 70.2454 39.9653 70.6061 39.255C70.9639 38.5446 71.1427 37.7011 71.1427 36.7214V29.6565C70.5167 30.1449 69.8429 30.5356 69.1274 30.8227V30.8256Z" fill="#001CA5"/>
<path d="M103.8 22.059C103.687 21.2155 103.487 20.4489 103.195 19.7593C102.903 19.0696 102.488 18.5162 101.951 18.0929C101.415 17.6727 100.699 17.4596 99.802 17.4596C98.684 17.4596 97.7657 17.717 97.0502 18.2261C96.3347 18.7382 95.7981 19.4929 95.4403 20.4933C95.0826 21.4937 94.8351 22.7604 94.701 24.2906C94.5668 25.8238 94.5012 27.6351 94.5012 29.7217C94.5012 31.9445 94.5668 33.8417 94.701 35.4192C94.8351 36.9968 95.0796 38.2961 95.4403 39.3172C95.7981 40.3383 96.3019 41.0842 96.9518 41.5489C97.5988 42.0165 98.4395 42.2474 99.4681 42.2474C101.033 42.2474 102.175 41.5814 102.891 40.2466C103.606 38.9147 103.964 36.7807 103.964 33.8476H112.824C112.824 38.5566 111.76 42.1438 109.634 44.6122C107.509 47.0777 103.985 48.3119 99.0626 48.3119C96.7342 48.3119 94.7099 48.0336 92.9867 47.4802C91.2635 46.9237 89.8325 45.9263 88.6907 44.482C87.5488 43.0376 86.6872 41.1049 86.1059 38.6838C85.5245 36.2628 85.2324 33.2527 85.2324 29.6537C85.2324 26.0546 85.5901 22.9114 86.3056 20.4903C87.0211 18.0693 88.0288 16.1365 89.3257 14.6922C90.6225 13.2478 92.1669 12.2386 93.9586 11.6585C95.7474 11.0813 97.718 10.7913 99.8676 10.7913C104.164 10.7913 107.395 12.0344 109.569 14.5235C111.739 17.0126 112.824 20.3897 112.824 24.6547H103.964C103.964 23.7668 103.907 22.8995 103.797 22.056L103.8 22.059Z" fill="#001CA5"/>
<path d="M117.192 21.5261C117.684 19.1731 118.489 17.2049 119.61 15.6274C120.728 14.0498 122.195 12.8511 124.007 12.0283C125.82 11.2055 128.047 10.7941 130.685 10.7941C133.461 10.7497 135.765 11.1167 137.599 11.8951C139.432 12.6736 140.887 13.8604 141.964 15.4616C143.037 17.0599 143.797 19.04 144.247 21.3929C144.694 23.7489 144.918 26.5015 144.918 29.6565C144.918 32.8116 144.671 35.4339 144.179 37.7869C143.687 40.1429 142.879 42.1082 141.761 43.6857C140.643 45.2632 139.176 46.4294 137.363 47.1841C135.551 47.9388 133.324 48.3177 130.682 48.3177C127.907 48.3621 125.602 48.0188 123.769 47.2847C121.932 46.5507 120.48 45.3964 119.404 43.8189C118.331 42.2413 117.568 40.2642 117.12 37.8876C116.673 35.5109 116.45 32.7672 116.45 29.6565C116.45 26.5458 116.694 23.8821 117.189 21.5261H117.192ZM125.853 34.7206C125.942 36.2775 126.154 37.6094 126.491 38.7193C126.827 39.8292 127.331 40.6964 128.002 41.3179C128.673 41.9395 129.567 42.2502 130.688 42.2502C132.569 42.2502 133.866 41.2735 134.582 39.3171C135.297 37.3637 135.655 34.1405 135.655 29.6536C135.655 25.1666 135.297 21.9464 134.582 19.99C133.866 18.0366 132.569 17.0569 130.688 17.0569C129.57 17.0569 128.673 17.3677 128.002 17.9892C127.331 18.6108 126.827 19.478 126.491 20.5879C126.157 21.6978 125.942 23.0326 125.853 24.5865C125.763 26.1433 125.718 27.8304 125.718 29.6506C125.718 31.4709 125.763 33.1609 125.853 34.7147V34.7206Z" fill="#001CA5"/>
<path d="M158.745 11.7294V15.9293H158.879C159.863 14.1535 161.139 12.8541 162.704 12.0313C164.27 11.2085 166.061 10.7971 168.074 10.7971C171.028 10.7971 173.297 11.5962 174.886 13.1975C176.475 14.7957 177.268 17.3973 177.268 20.9934V47.5837H168.005V22.8581C168.005 20.9934 167.692 19.6911 167.066 18.9601C166.44 18.2261 165.432 17.8591 164.046 17.8591C160.778 17.8591 159.145 19.8362 159.145 23.7904V47.5837H149.882V11.7294H158.742H158.745Z" fill="#001CA5"/>
<path d="M6.49327 63.6404C6.49327 65.8839 5.20833 67.0204 2.85608 67.0204H0V56.1227H2.96341C4.96983 56.1227 6.22495 57.2296 6.22495 59.0351C6.22495 59.9526 5.75391 60.7931 4.87442 61.169C5.75391 61.5124 6.49029 62.3056 6.49029 63.6434L6.49327 63.6404ZM4.28115 59.1091C4.28115 58.3632 3.93531 57.9104 2.97832 57.9104H1.91101V60.293H3.02304C3.98003 60.293 4.27816 59.7336 4.27816 59.1091H4.28115ZM4.54648 63.6878C4.54648 62.5512 4.04562 62.0362 2.9008 62.0362H1.91399V65.2268H2.96639C4.07842 65.2268 4.54946 64.5875 4.54946 63.6848L4.54648 63.6878Z" fill="#BE0000"/>
<path d="M15.0436 63.6404C15.0436 65.8839 13.7557 67.0204 11.4065 67.0204H8.55037V56.1227H11.5138C13.5202 56.1227 14.7753 57.2296 14.7753 59.0351C14.7753 59.9526 14.3043 60.7931 13.4278 61.169C14.3073 61.5124 15.0436 62.3056 15.0436 63.6434V63.6404ZM12.8315 59.1091C12.8315 58.3632 12.4857 57.9104 11.5287 57.9104H10.4614V60.293H11.5764C12.5334 60.293 12.8315 59.7336 12.8315 59.1091ZM13.0969 63.6878C13.0969 62.5512 12.596 62.0362 11.4512 62.0362H10.4644V65.2268H11.5138C12.6288 65.2268 13.0969 64.5875 13.0969 63.6848V63.6878Z" fill="#BE0000"/>
<path d="M23.9995 61.5537C23.9995 63.3444 23.5284 64.9012 22.7294 65.9282L23.4986 67.1891L22.166 68.0001L21.522 66.9257C21.1464 67.0973 20.7528 67.1891 20.3474 67.1891C17.7894 67.1891 16.7102 64.7147 16.7102 61.5833C16.7102 58.4519 17.8222 55.948 20.3802 55.948C22.9381 55.948 24.0024 58.4223 24.0024 61.5537H23.9995ZM21.993 61.5863C21.993 59.2659 21.5071 57.8955 20.3474 57.8955C19.1876 57.8955 18.7166 59.2333 18.7166 61.5537C18.7166 63.8742 19.2025 65.3688 20.3802 65.3688C20.4428 65.3688 20.5054 65.3688 20.568 65.354L19.7839 64.0606L21.1165 63.2497L21.7128 64.2471C21.9006 63.6552 21.996 62.8146 21.996 61.5833L21.993 61.5863Z" fill="#BE0000"/>
<path d="M36.989 63.0809C36.989 65.6974 35.7965 67.192 33.5068 67.192C30.9518 67.192 29.8696 64.7177 29.8696 61.5863C29.8696 58.4549 30.9817 55.9509 33.5396 55.9509C35.2032 55.9509 36.4106 56.8241 36.8787 58.7064L35.0452 59.2984C34.7649 58.2714 34.2611 57.8984 33.5098 57.8984C32.3322 57.8984 31.879 59.2362 31.879 61.5567C31.879 63.8771 32.365 65.2475 33.5426 65.2475C34.7202 65.2475 35.0958 64.6555 35.0958 63.0365H33.5277V61.2163H36.9949V63.0839L36.989 63.0809Z" fill="#BE0000"/>
<path d="M45.6497 67.0204H43.518L41.8068 62.8798H41.1658V67.0204H39.2041V56.1227H42.1198C44.2544 56.1227 45.6169 57.2592 45.6169 59.5175C45.6169 61.0447 44.8328 61.9918 43.7655 62.492L45.6467 67.0234L45.6497 67.0204ZM43.6581 59.5471C43.6581 58.5674 43.202 58.0199 42.0274 58.0199H41.1658V61.0566H42.1377C43.1424 61.0566 43.6581 60.5416 43.6581 59.5471Z" fill="#BE0000"/>
<path d="M49.746 67.0204H47.7843V56.1227H49.746V67.0204Z" fill="#BE0000"/>
<path d="M57.7627 67.0204H52.3665V56.1227H54.3282V65.1232H57.7627V67.0234V67.0204Z" fill="#BE0000"/>
<path d="M65.2129 67.0204H59.8168V56.1227H61.7785V65.1232H65.2129V67.0234V67.0204Z" fill="#BE0000"/>
<path d="M73.1998 64.0784C73.1998 65.8838 71.9447 67.192 69.9055 67.192C68.4149 67.192 67.3803 66.4136 66.6291 65.4784L67.9617 64.0606C68.6206 64.9012 69.3271 65.3067 69.986 65.3067C70.8029 65.3067 71.2083 64.8539 71.2083 64.1228C71.2083 63.5012 70.8178 63.0011 69.5299 62.347C67.8991 61.5064 66.9093 60.6806 66.9093 58.8752C66.9093 57.2414 68.1316 55.948 69.983 55.948C71.3485 55.948 72.1951 56.4926 72.9792 57.5048L71.6764 58.7982C71.0324 58.082 70.6866 57.8334 69.9353 57.8334C69.3092 57.8334 68.9008 58.2388 68.9008 58.7834C68.9008 59.4375 69.2764 59.843 70.469 60.4794C72.3681 61.4916 73.1969 62.2374 73.1969 64.0754L73.1998 64.0784Z" fill="#BE0000"/>
<path d="M86.6127 67.0203H84.5109L83.9772 66.2419C83.3512 66.8487 82.582 67.192 81.7353 67.192C79.7438 67.192 78.754 66.085 78.754 64.2648C78.754 63.0188 79.3175 62.0687 80.5279 61.2133L80.1522 60.6539C79.6812 59.9702 79.3681 59.3605 79.3681 58.5525C79.3681 56.8714 80.5458 55.9539 82.2063 55.9539C83.3363 55.9539 84.1352 56.2498 84.9819 56.8714L84.0726 58.4608C83.4764 58.0079 82.895 57.7771 82.1914 57.7771C81.6727 57.7771 81.3298 58.1352 81.3298 58.5703C81.3298 59.0675 81.4879 59.3339 81.8486 59.8637L83.9653 63.0543C84.1233 62.5866 84.2634 62.0746 84.3737 61.5122L85.8465 62.1663C85.6736 63.1164 85.4083 63.9718 85.0624 64.688L86.6157 67.0233L86.6127 67.0203ZM83.0232 64.842L81.47 62.5837C80.8111 63.1135 80.6084 63.6433 80.6084 64.2026C80.6084 64.9337 81.0317 65.4013 81.786 65.4013C82.2719 65.4013 82.6804 65.2001 83.0262 64.842H83.0232Z" fill="#BE0000"/>
<path d="M99.2892 61.5537C99.2892 64.6999 98.1742 67.1891 95.6341 67.1891C93.094 67.1891 91.9969 64.7147 91.9969 61.5833C91.9969 58.4519 93.109 55.948 95.6669 55.948C98.2249 55.948 99.2892 58.4223 99.2892 61.5537ZM97.2828 61.5863C97.2828 59.2659 96.7968 57.8955 95.6371 57.8955C94.4774 57.8955 94.0063 59.2333 94.0063 61.5537C94.0063 63.8742 94.4923 65.2445 95.6699 65.2445C96.8475 65.2445 97.2857 63.9067 97.2857 61.5863H97.2828Z" fill="#BE0000"/>
<path d="M107.917 62.6607C107.917 65.4932 107.07 67.1921 104.656 67.1921C102.241 67.1921 101.394 65.4015 101.394 62.6933V56.1227H103.353V62.6933C103.353 64.5787 103.776 65.2624 104.67 65.2624C105.565 65.2624 105.955 64.5787 105.955 62.6933V56.1227H107.914V62.6637L107.917 62.6607Z" fill="#BE0000"/>
<path d="M116.295 57.9903H114.02V67.0204H112.058V57.9903H109.783V56.1227H116.292V57.9903H116.295Z" fill="#BE0000"/>
<path d="M124.875 61.5538C124.875 65.3837 123.211 67.0204 120.641 67.0204H118.211V56.1227H120.689C123.324 56.1227 124.875 57.7269 124.875 61.5568V61.5538ZM122.868 61.5864C122.868 59.5767 122.445 58.0199 120.689 58.0199H120.17V65.1203H120.689C122.445 65.1203 122.868 63.5931 122.868 61.5864Z" fill="#BE0000"/>
<path d="M133.929 61.5537C133.929 64.6999 132.817 67.1891 130.274 67.1891C127.731 67.1891 126.637 64.7147 126.637 61.5833C126.637 58.4519 127.749 55.948 130.307 55.948C132.865 55.948 133.929 58.4223 133.929 61.5537ZM131.922 61.5863C131.922 59.2659 131.437 57.8955 130.277 57.8955C129.117 57.8955 128.646 59.2333 128.646 61.5537C128.646 63.8742 129.132 65.2445 130.31 65.2445C131.487 65.2445 131.925 63.9067 131.925 61.5863H131.922Z" fill="#BE0000"/>
<path d="M142.98 61.5537C142.98 64.6999 141.868 67.1891 139.325 67.1891C136.782 67.1891 135.688 64.7147 135.688 61.5833C135.688 58.4519 136.8 55.948 139.358 55.948C141.916 55.948 142.98 58.4223 142.98 61.5537ZM140.974 61.5863C140.974 59.2659 140.488 57.8955 139.328 57.8955C138.168 57.8955 137.697 59.2333 137.697 61.5537C137.697 63.8742 138.183 65.2445 139.361 65.2445C140.538 65.2445 140.977 63.9067 140.977 61.5863H140.974Z" fill="#BE0000"/>
<path d="M151.578 67.0204H149.447L147.738 62.8798H147.094V67.0204H145.136V56.1227H148.051C150.183 56.1227 151.548 57.2592 151.548 59.5175C151.548 61.0447 150.764 61.9918 149.697 62.492L151.578 67.0234V67.0204ZM149.587 59.5471C149.587 58.5674 149.134 58.0199 147.956 58.0199H147.094V61.0566H148.066C149.071 61.0566 149.587 60.5416 149.587 59.5471Z" fill="#BE0000"/>
<path d="M164.472 63.0809C164.472 65.6974 163.28 67.192 160.99 67.192C158.432 67.192 157.353 64.7177 157.353 61.5863C157.353 58.4549 158.465 55.9509 161.023 55.9509C162.687 55.9509 163.894 56.8241 164.362 58.7064L162.528 59.2984C162.245 58.2714 161.744 57.8984 160.993 57.8984C159.816 57.8984 159.362 59.2362 159.362 61.5567C159.362 63.8771 159.848 65.2475 161.026 65.2475C162.204 65.2475 162.579 64.6555 162.579 63.0365H161.011V61.2163H164.478V63.0839L164.472 63.0809Z" fill="#BE0000"/>
<path d="M172.459 67.0204H166.687V56.1227H172.319V57.9903H168.649V60.293H171.112V62.131H168.649V65.1528H172.459V67.0204Z" fill="#BE0000"/>
<path d="M181.606 67.0204H179.582L179.066 64.7474H176.603L176.087 67.0204H174.081L176.889 56.1227H178.803L181.612 67.0204H181.606ZM178.642 62.9271L178.344 61.6337C178.156 60.7932 177.903 59.5323 177.826 58.9877C177.748 59.5471 177.527 60.7162 177.325 61.6041L177.027 62.9271H178.642Z" fill="#BE0000"/>
<path d="M190.013 67.0204H187.878L186.17 62.8798H185.526V67.0204H183.568V56.1227H186.483C188.615 56.1227 189.98 57.2592 189.98 59.5175C189.98 61.0447 189.196 61.9918 188.129 62.492L190.01 67.0234L190.013 67.0204ZM188.022 59.5471C188.022 58.5674 187.565 58.0199 186.391 58.0199H185.529V61.0566H186.501C187.503 61.0566 188.022 60.5416 188.022 59.5471Z" fill="#BE0000"/>
<path d="M198 64.0784C198 65.8838 196.745 67.192 194.706 67.192C193.215 67.192 192.18 66.4136 191.429 65.4784L192.762 64.0606C193.421 64.9012 194.124 65.3067 194.786 65.3067C195.603 65.3067 196.008 64.8539 196.008 64.1228C196.008 63.5012 195.615 63.0011 194.33 62.347C192.699 61.5064 191.709 60.6806 191.709 58.8752C191.709 57.2414 192.932 55.948 194.783 55.948C196.149 55.948 196.995 56.4926 197.779 57.5048L196.477 58.7982C195.836 58.082 195.49 57.8334 194.735 57.8334C194.106 57.8334 193.701 58.2388 193.701 58.7834C193.701 59.4375 194.077 59.843 195.269 60.4794C197.168 61.4916 197.997 62.2374 197.997 64.0754L198 64.0784Z" fill="#BE0000"/>
</g>
<defs>
<clipPath id="clip0_287_1703">
<rect width="198" height="68" fill="white"/>
</clipPath>
</defs>
</svg>
