<svg width="1440" height="95" viewBox="0 0 1440 95" fill="none" xmlns="http://www.w3.org/2000/svg">
<g clip-path="url(#clip0_403_231)">
<path d="M60.8949 85.4301C41.521 88.9209 19.8631 95 0 95H1440C1391.89 82.1513 1335.15 62.6695 1285.47 55.6205C1260.34 52.0546 1241.1 47.0801 1215.94 53.3433C1174.88 63.5683 1131.63 73.894 1089.2 77.5637C1010.08 84.4063 907.28 15.2569 823.861 3.03836C798.948 -0.610653 777.452 -0.419946 752.739 0.761229C733.021 1.70365 711.842 7.46458 692.331 11.0083C655.018 17.7853 618.737 28.5772 581.545 35.3322C559.469 39.3417 537.622 46.2796 515.666 51.0651C491.496 56.3328 467.24 36.9791 443.29 43.0963C433.503 45.5958 424.342 50.1292 414.567 52.4118C403.805 54.9251 392.807 55.7904 382.312 59.3467C364.313 65.4457 344.85 68.4782 327.147 74.769C315.636 78.8595 303.233 81.7688 291.586 85.4301C286.652 86.9808 282.117 89.0121 276.768 88.7423C264.178 88.1071 249.401 80.8028 237.332 77.1496C225.995 73.7177 211.827 68.2481 199.834 68.2481C176.963 68.2481 153.816 67.7966 131.675 73.0094C108.589 78.4447 84.3109 81.2109 60.8949 85.4301Z" fill="white"/>
<path d="M0 95H1440V1091H0V95Z" fill="white"/>
</g>
<defs>
<clipPath id="clip0_403_231">
<rect width="1440" height="95" fill="white"/>
</clipPath>
</defs>
</svg>
