<svg width="151" height="131" viewBox="0 0 151 131" fill="none" xmlns="http://www.w3.org/2000/svg">
<g clip-path="url(#clip0_287_1581)">
<path d="M97.4623 63.9612H98.7068L100.166 67.1449L101.625 63.9612H102.87V69.3948H101.797V65.9351L100.617 68.6731H99.7797L98.5996 65.9351V69.3948H97.5267L97.4623 63.9612Z" fill="#251E1C"/>
<path d="M105.659 63.9612H109.361V65.0224H106.797V66.1155H108.867V67.1768H106.797V68.4184H109.361V69.4797H105.659V63.9612Z" fill="#251E1C"/>
<path d="M112.826 64.9694H111.335V63.9612H115.444V64.9694H113.963V69.3948H112.826V64.9694Z" fill="#251E1C"/>
<path d="M117.568 68.5564L120.143 64.9587H117.719V63.9612H121.538V64.7996L118.963 68.3972H121.527V69.3948H117.568V68.5564Z" fill="#251E1C"/>
<path d="M123.952 68.3123V65.0543C123.888 64.5343 124.263 64.0567 124.8 63.9931C124.875 63.9931 124.95 63.9931 125.025 63.9931H126.913C127.439 63.9294 127.922 64.3008 127.986 64.8314C127.986 64.9057 127.986 64.98 127.986 65.0543V65.7972H126.913V65.171C126.913 65.0543 126.913 65.0225 126.752 65.0225H125.24C125.122 65.0225 125.079 65.0225 125.079 65.171V68.2487C125.079 68.3654 125.079 68.3972 125.24 68.3972H126.752C126.87 68.3972 126.913 68.3972 126.913 68.2487V67.4103H125.84V66.4339H127.986V68.3442C128.061 68.8642 127.686 69.3311 127.171 69.4054C127.085 69.416 126.999 69.416 126.913 69.4054H125.025C124.499 69.4691 124.017 69.0977 123.952 68.5776C123.941 68.4927 123.952 68.3972 123.952 68.3123Z" fill="#251E1C"/>
<path d="M130.69 63.9612H134.381V65.0224H131.817V66.1155H133.898V67.1768H131.817V68.4184H134.381V69.4797H130.69V63.9612Z" fill="#251E1C"/>
<path d="M141.108 69.3948H139.895L138.984 67.4739H138.072V69.3948H136.999V63.9612H139.895C140.421 63.8975 140.904 64.269 140.968 64.7996C140.968 64.8739 140.968 64.9482 140.968 65.0224V66.3278C140.968 66.9433 140.722 67.2935 140.207 67.389L141.108 69.3948ZM139.649 66.487C139.767 66.487 139.81 66.487 139.81 66.3278V65.1286C139.81 65.0118 139.81 64.9694 139.649 64.9694H138.072V66.487H139.649Z" fill="#251E1C"/>
<path d="M143.608 63.9612H147.298V65.0224H144.734V66.1155H146.816V67.1768H144.734V68.4184H147.298V69.4797H143.608V63.9612Z" fill="#251E1C"/>
<path d="M149.863 63.9612H151V69.3948H149.863V63.9612Z" fill="#251E1C"/>
<path d="M0 63.9612H1.23384L2.69298 67.1449L4.15212 63.9612H5.3645V69.3948H4.2916V65.9351L3.11141 68.6731H2.26382L1.0729 65.9351V69.3948H0V63.9612Z" fill="#251E1C"/>
<path d="M8.84071 68.3866V66.0731H8.2077V65.2029H8.85144V64.1947H9.92434V65.2029H10.847V66.0731H9.91361V68.3336C9.91361 68.4609 9.91361 68.514 10.0853 68.514H10.8256V69.3948H9.85997C9.15185 69.3948 8.84071 69.0764 8.84071 68.3866Z" fill="#251E1C"/>
<path d="M13.3147 68.1849H14.57V69.3948H13.3147V68.1849Z" fill="#251E1C"/>
<path d="M24.0974 68.2168H22.2198L21.8765 69.3948H20.6855L22.3593 63.9612H24.0008L25.6745 69.3948H24.4407L24.0974 68.2168ZM23.8077 67.1555L23.1639 64.8739L22.5309 67.1874L23.8077 67.1555Z" fill="#251E1C"/>
<path d="M31.6613 69.3948L30.3738 67.0388L29.5691 68.1V69.4478H28.4962V63.9612H29.5691V66.5082L31.5218 63.9612H32.8522L31.1356 66.0837L32.938 69.3735L31.6613 69.3948Z" fill="#251E1C"/>
<path d="M38.6244 68.2168H36.7039L36.3606 69.3948H35.1697L36.8434 63.9612H38.4849L40.1587 69.3948H38.9141L38.6244 68.2168ZM38.3347 67.1555L37.6803 64.8739L37.0365 67.1555H38.3347Z" fill="#251E1C"/>
<path d="M42.8087 68.3123V65.0543C42.7443 64.5343 43.1198 64.0567 43.6563 63.9931C43.7314 63.9931 43.8065 63.9931 43.8816 63.9931H45.7699C46.2956 63.9294 46.7784 64.3008 46.8428 64.8314C46.8428 64.9057 46.8428 64.98 46.8428 65.0543V65.7972H45.7592V65.171C45.7592 65.0543 45.7592 65.0225 45.609 65.0225H44.0962C43.9782 65.0225 43.9352 65.0225 43.9352 65.171V68.2487C43.9352 68.3654 43.9352 68.3972 44.0962 68.3972H45.609C45.727 68.3972 45.7592 68.3972 45.7592 68.2487V67.4103H44.6863V66.4339H46.8321V68.3442C46.8964 68.8642 46.5209 69.3417 45.9845 69.4054C45.9094 69.4054 45.8343 69.4054 45.7592 69.4054H43.9031C43.3773 69.4903 42.8945 69.1401 42.8087 68.6201C42.7872 68.514 42.7872 68.4078 42.8087 68.3123Z" fill="#251E1C"/>
<path d="M50.0079 63.9612H51.1451V69.3948H50.0079V63.9612Z" fill="#251E1C"/>
<path d="M67.3031 101.667L69.0197 102.071C69.3416 102.092 69.5883 102.378 69.5669 102.697C69.5669 102.75 69.5454 102.813 69.524 102.866L69.3201 103.715C69.2986 104.034 69.009 104.278 68.6871 104.257C68.6334 104.257 68.5691 104.235 68.5154 104.214L67.4425 103.96L67.185 105.021L66.5198 104.883L67.3031 101.667ZM68.5476 103.577C68.612 103.577 68.6442 103.577 68.6549 103.503L68.8373 102.76C68.8373 102.697 68.8373 102.665 68.7622 102.644L67.8288 102.431L67.6035 103.355L68.5476 103.577Z" fill="#251E1C"/>
<path d="M71.7448 105.18L71.8843 103.206C71.8521 102.888 72.0882 102.612 72.3993 102.58C72.4637 102.58 72.5281 102.58 72.5924 102.59L73.8155 102.675C74.1374 102.644 74.4164 102.877 74.4486 103.185C74.4486 103.248 74.4485 103.312 74.4378 103.376L74.3091 105.35C74.3413 105.668 74.1052 105.944 73.7941 105.976C73.7297 105.976 73.6653 105.976 73.601 105.965L72.3671 105.891C71.8843 105.859 71.7234 105.636 71.7448 105.18ZM73.5259 105.339C73.5902 105.339 73.6224 105.339 73.6224 105.254L73.7512 103.386C73.7512 103.312 73.7512 103.291 73.6653 103.28L72.6675 103.217C72.5924 103.217 72.571 103.217 72.5602 103.312L72.4422 105.169C72.4422 105.244 72.4422 105.265 72.5281 105.275L73.5259 105.339Z" fill="#251E1C"/>
<path d="M79.8989 105.732L79.1586 105.806L78.5041 104.745H77.9462L78.0535 105.902L77.3775 105.965L77.0664 102.675L78.8152 102.516C79.1371 102.442 79.4482 102.633 79.5233 102.941C79.5341 102.994 79.5448 103.047 79.5448 103.11L79.6199 103.906C79.6199 104.278 79.5233 104.501 79.2229 104.586L79.8989 105.732ZM78.826 104.055C78.9011 104.055 78.9225 104.055 78.9118 103.949L78.8474 103.227C78.8474 103.153 78.8474 103.132 78.7401 103.142L77.7852 103.227L77.8711 104.14L78.826 104.055Z" fill="#251E1C"/>
<path d="M84.566 104.755L83.4931 103.567L83.1712 104.278L83.3858 105.074L82.7313 105.244L81.8837 102.06L82.5382 101.89L82.9352 103.386L83.6862 101.582L84.4694 101.381L83.7398 102.941L85.317 104.596L84.566 104.755Z" fill="#251E1C"/>
<path d="M64.1702 31.0945L65.8761 30.6063C66.1765 30.479 66.5198 30.6063 66.6593 30.9035C66.6808 30.9565 66.7022 31.0096 66.7022 31.0626L66.949 31.9116C67.0777 32.2088 66.949 32.5484 66.6486 32.6863C66.5949 32.7076 66.5413 32.7288 66.4876 32.7288L65.4147 33.0153L65.7259 34.0766L65.0607 34.2676L64.1702 31.0945ZM66.1979 32.1557C66.273 32.1557 66.2838 32.1557 66.2623 32.039L66.0585 31.3067C66.0585 31.2324 66.0585 31.2218 65.9404 31.243L65.007 31.5084L65.2753 32.421L66.1979 32.1557Z" fill="#251E1C"/>
<path d="M72.0667 32.8985L71.3264 32.9941L70.6183 31.9328L70.0711 32.0071L70.2321 33.1639L69.5454 33.2488L69.1055 29.9801L70.8114 29.7148C71.1118 29.6193 71.4444 29.7891 71.541 30.0969C71.5625 30.1605 71.5732 30.2242 71.5625 30.2773L71.6805 31.0732C71.6805 31.434 71.6054 31.6675 71.305 31.763L72.0667 32.8985ZM70.9938 31.2536C71.0689 31.2536 71.0904 31.2536 71.0797 31.1475L70.9831 30.4258C70.9831 30.3516 70.9831 30.341 70.8758 30.341L69.9209 30.4683L70.0389 31.381L70.9938 31.2536Z" fill="#251E1C"/>
<path d="M74.1482 32.039V30.0545C74.1053 29.7361 74.3413 29.439 74.6632 29.4071C74.7168 29.4071 74.7812 29.4071 74.8348 29.4071H76.0579C76.3798 29.3647 76.6695 29.5769 76.7124 29.8953C76.7124 29.959 76.7124 30.0227 76.7124 30.0757V32.0602C76.7553 32.3786 76.5407 32.6651 76.2189 32.7076C76.1545 32.7076 76.0901 32.7076 76.0365 32.7076H74.8026C74.4808 32.75 74.1911 32.5378 74.1482 32.2194C74.1482 32.1558 74.1482 32.0921 74.1482 32.039ZM75.9292 32.1027C76.0043 32.1027 76.0257 32.1027 76.0257 32.0178V30.1394C76.0257 30.0757 76.0257 30.0439 75.9292 30.0439H74.9314C74.8563 30.0439 74.8348 30.0439 74.8348 30.1394V32.0072C74.8348 32.0709 74.8348 32.1027 74.9314 32.1027H75.9292Z" fill="#251E1C"/>
<path d="M79.0406 32.23L79.3946 29.6088L80.0705 29.7043L79.7058 32.2725C79.7058 32.3362 79.7058 32.368 79.7809 32.3786L80.7143 32.506C80.7787 32.506 80.8108 32.506 80.8216 32.4211L81.1864 29.8635L81.873 29.959L81.5404 32.5803C81.5404 32.8986 81.2937 33.1639 80.9718 33.1639C80.9074 33.1639 80.843 33.1639 80.7894 33.1427L79.6307 32.9729C79.3088 32.9941 79.0406 32.75 79.0191 32.4423C79.0191 32.368 79.0191 32.3043 79.0406 32.23Z" fill="#251E1C"/>
<path d="M84.6518 30.5638L86.4114 31.0839C86.7333 31.1263 86.9478 31.4235 86.9049 31.7312C86.9049 31.7949 86.8835 31.8479 86.8513 31.901L86.2719 33.8006C86.229 34.119 85.9393 34.3419 85.6282 34.2994C85.5638 34.2994 85.5101 34.2782 85.4458 34.2464L83.6862 33.7264L84.6518 30.5638ZM85.5209 33.6202C85.5853 33.6202 85.6174 33.6202 85.6389 33.5566L86.1753 31.7631C86.1753 31.6994 86.1753 31.6675 86.111 31.6463L85.1346 31.3492L84.5338 33.3231L85.5209 33.6202Z" fill="#251E1C"/>
<path d="M24.6767 113.553L18.9582 110.805L15.6429 117.565L12.4242 116.026L20.1705 100.266L23.3892 101.805L20.1705 108.311L25.8784 111.059L29.0971 104.554L32.3158 106.082L24.5587 121.841L21.34 120.313L24.6767 113.553Z" fill="#251E1C"/>
<path d="M44.1177 123.221L38.3776 121.788L36.4786 124.919L36.0387 125.577L32.4874 124.696L32.9166 124.028L42.2079 109.818L42.6693 109.138L46.478 110.083L46.5532 110.911L47.9372 127.784V128.57L44.4288 127.689L44.3752 126.904L44.1177 123.221ZM40.0836 119.093L43.9138 120.048L43.5061 113.681L40.0836 119.093Z" fill="#251E1C"/>
<path d="M60.6404 120.059L65.2109 112.991L68.9661 113.383L68.4833 114.084L62.0995 123.508L61.3807 130.204L57.765 129.833L58.4731 123.104L54.4926 112.587L54.16 111.792L57.8937 112.184L58.2156 112.98L60.6404 120.059Z" fill="#251E1C"/>
<path d="M82.1305 126.49L76.2081 126.628L75.1352 130.151L74.8992 130.915L71.2299 131L71.4659 130.236L76.5836 114.094L76.8519 113.309L80.7679 113.224L81.0684 113.988L86.9586 129.907L87.2268 130.66L83.6004 130.735L83.3322 129.992L82.1305 126.49ZM77.1308 123.571L81.0791 123.486L78.9333 117.448L77.1308 123.571Z" fill="#251E1C"/>
<path d="M92.6664 120.154L92.1836 117.214L93.6427 112.184L101.153 110.985L103.181 113.956L96.2499 115.071L95.6276 117.628L104.586 120.377L105.069 123.317L103.61 128.347L94.9409 129.737L92.9132 126.766L101.11 125.45L101.679 122.998L92.6664 120.154Z" fill="#251E1C"/>
<path d="M120.851 115.877L114.8 117.883L117.225 125.004L113.867 126.065L108.223 109.446L111.582 108.332L113.91 115.198L119.929 113.192L117.601 106.337L120.959 105.212L126.602 121.884L123.244 122.998L120.851 115.877Z" fill="#251E1C"/>
<path d="M127.675 101.879L130.754 100.16L139.477 115.442L136.398 117.172L127.675 101.879Z" fill="#251E1C"/>
<path d="M40.2552 18.9856L34.1611 20.7685L36.3069 27.9744L32.9058 28.9613L27.8954 12.1618L31.2965 11.1642L33.3779 18.1048L39.4613 16.3219L37.3798 9.38136L40.7702 8.38379L45.7914 25.1939L42.3903 26.1915L40.2552 18.9856Z" fill="#251E1C"/>
<path d="M58.9022 19.8453L61.5952 19.5587L63.3869 17.0436L62.0995 5.14703L65.6186 4.7756L67.0563 18.0412L63.8376 22.6045L57.3251 23.3049L53.2158 19.5057L51.7996 6.24012L55.3295 5.86868L56.6169 17.7865L58.9022 19.8453ZM58.0117 4.31926L53.7845 4.7756L53.3768 1.06124L57.604 0.583684L58.0117 4.31926ZM63.5479 3.73558L59.3207 4.1813L58.913 0.445723L63.1402 0L63.5479 3.73558Z" fill="#251E1C"/>
<path d="M81.5404 22.2861L77.9999 22.1694L78.4827 7.90627L73.4293 7.74709L75.0601 4.56335L85.7891 4.92418L87.1946 8.22465L82.1091 8.05485L81.5404 22.2861Z" fill="#251E1C"/>
<path d="M98.7068 24.207L95.2092 23.6339L97.6339 9.55122L92.5913 8.72345L94.6298 5.76257L105.144 7.4924L106.11 10.9521L101.089 10.1243L98.7068 24.207Z" fill="#251E1C"/>
<path d="M120.337 19.1024L119.339 22.2225L113.727 20.4714L112.547 24.1433L120.294 26.5842L117.847 29.2267L108.191 26.1915L113.556 9.48755L122.557 12.3211L123.169 15.9187L115.959 13.6476L114.8 17.3408L120.337 19.1024Z" fill="#251E1C"/>
<path d="M57.2401 0.784995L53.783 1.14441L54.1463 4.564L57.6035 4.20459L57.2401 0.784995Z" fill="#251E1C"/>
<path d="M62.8022 0.202964L59.345 0.562378L59.7084 3.98197L63.1655 3.62256L62.8022 0.202964Z" fill="#251E1C"/>
<path d="M79.2873 42.6832L80.3602 42.1632C80.3602 42.3118 80.4139 42.4391 80.4353 42.5665C80.4353 42.6726 80.4675 42.7681 80.5104 42.8636C80.5855 43.0122 80.5855 43.1926 80.5104 43.3412C80.328 43.6808 80.1349 44.0098 79.974 44.4024C79.8881 44.6147 79.813 44.8269 79.7594 45.0498C79.7594 45.1984 79.7057 45.3576 79.6521 45.5061C79.5555 45.9837 79.5019 46.4613 79.4912 46.9388C79.4697 47.0874 79.4375 47.236 79.3946 47.3739C79.1693 47.9258 78.8045 48.4033 78.3217 48.7535C78.15 48.8491 78.0535 49.0295 78.0427 49.2205C78.0427 49.2736 78.0642 49.3266 78.1071 49.3691L78.7187 49.8679C78.7187 49.8679 78.783 49.9421 78.7938 49.9846C78.8582 50.1756 79.0191 50.3242 79.2122 50.3879C79.4375 50.4728 79.6628 50.5895 79.8667 50.7169C80.0276 50.8442 80.1671 50.9928 80.2744 51.1626C80.5426 51.5977 80.7357 52.0646 80.843 52.5528C80.8752 52.8181 80.8967 53.0834 80.8967 53.3487C80.8967 53.6459 80.9932 53.9324 81.0469 54.219C81.0683 54.41 81.1112 54.6116 81.1542 54.8026C81.1971 54.9512 81.2722 55.0892 81.3687 55.2059C81.637 55.5243 81.8086 55.9276 81.8623 56.3414C81.873 56.4051 81.873 56.4794 81.8623 56.5431C81.7443 56.9357 81.7121 57.3496 81.7764 57.7529C81.7764 57.8484 81.8193 57.9333 81.873 58.0076C82.0232 58.1774 82.1734 58.3472 82.3129 58.5276C82.3987 58.708 82.4738 58.899 82.506 59.0901C82.6348 59.557 82.7421 60.0133 82.8601 60.4697C82.8601 60.4697 82.8601 60.5334 82.9137 60.5652C83.3643 61.0534 83.8364 61.4991 84.3514 61.9236C84.3943 61.9448 84.4265 61.9873 84.4587 62.0191C84.6733 62.3056 84.92 62.5603 85.199 62.7832C85.5316 63.1334 85.7569 63.5897 85.8213 64.0673C85.8213 64.2053 85.7569 64.322 85.6603 64.4175C85.5745 64.4918 85.4458 64.4175 85.3385 64.4175C84.6196 63.9506 83.8364 63.5897 83.0103 63.3563C82.6562 63.2608 82.2914 63.2077 81.9374 63.091C81.4868 62.9742 81.0576 62.7726 80.6714 62.5073C80.4568 62.3481 80.21 62.242 79.9525 62.1889C79.6306 62.104 79.2873 62.1358 78.9869 62.2738C78.665 62.4118 78.4075 62.6452 78.2466 62.953C78.032 63.3244 77.6887 63.6004 77.2703 63.7171C76.9913 63.802 76.6802 63.8232 76.4012 63.8975C76.0042 63.993 75.6073 64.1098 75.221 64.2583C74.8348 64.4281 74.5129 64.6828 74.2554 65.0118C73.676 65.7441 72.8928 66.2853 71.9916 66.5506C71.5839 66.678 71.2084 66.8902 70.7899 66.9963C70.3822 67.1131 70.0175 67.3253 69.717 67.6119C69.2342 68.0364 68.8909 68.5882 68.7407 69.2037C68.6119 69.6601 68.3974 70.0952 68.1184 70.4878C68.0219 70.647 67.9253 70.7956 67.818 70.9442C67.5498 71.3262 67.3137 71.7401 67.1099 72.1646C66.6915 73.0242 66.1228 73.8095 65.4254 74.4675C65.0821 74.8071 64.7495 75.1573 64.4491 75.5287C64.1916 75.8577 63.977 76.2079 63.8054 76.59C63.4728 77.3435 63.1616 78.1076 62.8934 78.8929C62.7217 79.4023 62.6895 79.9435 62.7754 80.4741C62.8076 80.7288 62.9148 80.9729 63.0758 81.1746C63.3547 81.5354 63.6122 81.9174 63.8375 82.3101C64.138 82.8301 64.256 83.435 64.1701 84.0293C64.1165 84.6448 64.256 85.2604 64.5886 85.7804C65.3074 86.9583 66.3052 87.9347 67.5069 88.6351L69.3522 89.8025C69.5346 89.9086 69.6848 90.0466 69.8136 90.2164C70.0711 90.6409 70.5646 90.8531 71.0582 90.7576C71.3908 90.7045 71.7341 90.6939 72.0667 90.7045C72.2813 90.747 72.4958 90.8213 72.689 90.938C72.7855 90.938 72.689 91.2882 72.6031 91.3307L72.2276 91.4368L71.7663 91.6384C71.9379 91.7658 72.0667 91.8825 72.2169 91.978C72.4744 92.169 72.7533 92.307 73.0538 92.4025C73.4078 92.5405 73.7404 92.7315 74.0301 92.9756C74.6524 93.4425 75.4034 93.7079 76.1759 93.7397C76.7445 93.7609 77.3024 93.5487 77.7209 93.156C78.0106 92.8695 78.3539 92.636 78.7187 92.4556C79.4804 92.0417 80.2744 91.6915 81.0898 91.3943C81.4331 91.2458 81.755 91.0335 82.0232 90.7788C82.0983 90.7258 82.1627 90.6621 82.2378 90.6196C82.5597 90.418 82.8279 90.1527 83.0425 89.8449C83.2356 89.5796 83.4394 89.3355 83.654 89.0914C84.2012 88.4759 84.5982 87.7543 84.8449 86.969C84.9844 86.5657 85.1668 86.1624 85.3492 85.7697C85.4779 85.4832 85.553 85.1648 85.5638 84.8465V84.4114C85.5638 84.2522 85.6603 84.1142 85.7998 84.0399C85.8642 84.0187 85.9286 84.0187 85.9929 84.0399C86.068 84.0611 86.1431 84.0824 86.2075 84.1248C86.3649 84.2026 86.49 84.1673 86.583 84.0187C86.9371 83.4668 87.2804 82.9575 87.6559 82.3632C87.7954 82.1934 87.9563 82.0448 88.1387 81.9068C88.4606 82.1615 88.4821 82.2146 88.3426 82.586C88.128 83.1379 87.9134 83.6473 87.6667 84.2416C87.5272 84.5069 87.3662 84.7616 87.1839 85.0056C86.98 85.3028 86.7761 85.5999 86.583 85.9077C86.5079 86.0032 86.4543 86.1093 86.4114 86.2261C86.1968 86.6612 85.9393 87.0751 85.6711 87.4784C85.3921 87.9984 85.0595 88.4759 84.6625 88.911C84.2763 89.378 83.9544 89.898 83.7077 90.4498C83.5038 90.9486 83.1605 91.3731 82.7099 91.6703C82.4202 91.8294 82.109 91.9568 81.7979 92.0629C81.1005 92.2752 80.4139 92.5405 79.7701 92.8801C79.2444 93.1878 78.6972 93.5274 78.2037 93.814C77.8711 94.005 77.5063 94.143 77.1308 94.3022C76.9377 94.4083 76.7445 94.4932 76.5407 94.5781C76.4012 94.6524 76.2403 94.7054 76.0793 94.716C75.5965 94.7585 75.1245 94.7585 74.6416 94.716C74.3949 94.6524 74.1267 94.663 73.8799 94.5887C73.2147 94.4401 72.5817 94.1748 72.0023 93.814C70.1033 92.5405 68.3115 91.129 66.6378 89.569C65.5005 88.4229 64.5135 87.1494 63.6766 85.7697C63.2904 85.1755 62.8505 84.6236 62.475 84.0187C62.1853 83.5836 61.9278 83.1272 61.7132 82.6497C61.5415 82.2783 61.4772 81.875 61.5308 81.4717C61.5308 80.9305 61.6703 80.4105 61.7025 79.8374C61.7561 79.4341 61.8741 79.0415 62.0673 78.6806C62.3784 77.9696 62.7003 77.2692 62.9792 76.5581C63.2367 75.9214 63.6015 75.3271 64.0521 74.7965C64.4276 74.3402 64.7924 73.8838 65.125 73.4381C65.5327 72.9499 65.8331 72.3875 66.0155 71.7825C66.1657 71.305 66.3589 70.8487 66.5198 70.3817C66.6271 70.1376 66.7022 69.8723 66.7451 69.607C66.9168 68.4715 67.4854 67.4208 68.3545 66.6567C68.7622 66.2747 69.1806 65.9139 69.5776 65.5318C69.9423 65.2028 70.2642 64.8208 70.5324 64.4069C70.6075 64.2796 70.7363 64.184 70.8865 64.1416C71.2513 64.0142 71.6053 63.8551 71.9594 63.7489C72.5173 63.5897 73.0859 63.4518 73.6653 63.3244C73.8477 63.2926 74.0194 63.2077 74.1696 63.091C74.2769 63.0061 74.3734 62.9105 74.4593 62.815C74.4807 62.7407 74.4807 62.6558 74.4593 62.5816C74.3949 62.571 74.3305 62.571 74.2661 62.5816C73.676 62.8469 73.0538 63.0591 72.4207 63.2077C71.8736 63.3032 71.3478 63.5261 70.8114 63.6534C70.5539 63.7277 70.2964 63.8338 70.0604 63.9612C69.9745 64.0249 69.8994 64.0885 69.8351 64.1628L69.0089 64.9269C68.9231 65.0543 68.8265 65.171 68.7192 65.2877C68.5047 65.4151 68.2686 65.5318 68.0326 65.6167C67.7429 65.7335 67.4854 65.9245 67.303 66.1686L66.9919 66.5294C66.8202 66.6992 66.5949 66.8053 66.3589 66.8265C66.1872 66.8265 66.0048 66.9008 65.8224 66.9433C65.5005 67.0388 65.2001 67.1874 64.9319 67.389L64.3847 67.7604L63.9448 67.2617C63.9448 67.2617 63.9019 67.198 63.8805 67.1661C63.7839 66.9857 63.8805 66.9114 64.0414 66.9008C64.2023 66.8902 64.2345 66.9008 64.2131 66.7629C64.1916 66.6249 64.095 66.678 64.0307 66.678C63.9556 66.678 63.8697 66.678 63.7946 66.678C63.6551 66.731 63.5049 66.6674 63.4513 66.5294C63.4513 66.5294 63.4513 66.5188 63.4513 66.5082C63.2904 66.2004 63.2367 65.8608 63.2689 65.5212C63.3118 65.3726 63.3762 65.2453 63.462 65.1179C63.5371 64.9587 63.6873 64.8208 63.6444 64.5979L63.741 64.6934C63.8268 64.8208 64.0092 64.842 64.1272 64.7571C64.1487 64.7359 64.1701 64.7253 64.1916 64.6934C64.2023 64.651 64.2023 64.5979 64.1916 64.5555H64.095C64.0307 64.5236 63.977 64.4812 63.9234 64.4387L63.741 64.2265C63.7839 64.1416 63.8375 64.0673 63.9019 63.993C63.9663 63.9612 64.0521 63.9612 64.1165 63.993C64.4169 64.0567 64.7066 64.1416 65.007 64.184C65.2109 64.1947 65.404 64.1947 65.6078 64.184C65.64 64.1947 65.6615 64.1947 65.6937 64.184C65.7688 64.131 65.801 64.0249 65.9297 64.0673C66.0906 64.0991 66.2408 64.1734 66.3481 64.3008C66.5627 64.5873 66.67 64.9375 66.6593 65.2877C66.6271 65.6486 66.5734 65.9988 66.4876 66.349C66.4876 66.4445 66.4125 66.5506 66.4876 66.6037C66.5949 66.6461 66.7129 66.5931 66.7558 66.4869C66.7558 66.4869 66.7558 66.4869 66.7558 66.4763C66.8417 66.2747 66.906 66.0624 66.9275 65.8502C66.9597 65.5 66.9597 65.1392 66.9275 64.7889C66.8953 64.5661 66.8417 64.3538 66.7666 64.1416C66.7129 63.94 66.7129 63.9612 66.906 63.8975C67.2816 63.7702 67.6571 63.6216 67.9789 63.4624C68.1184 63.3881 68.2579 63.282 68.3652 63.1652C68.3652 63.2714 68.3652 63.3669 68.3652 63.473C68.3652 63.9187 68.2472 64.3538 68.2042 64.7996C68.5476 64.6722 68.848 64.4494 69.0518 64.1522C69.3308 63.6534 69.481 63.1016 69.4917 62.5285V62.1995C69.4917 62.1146 69.4917 62.0297 69.4917 61.9448C69.4917 61.6901 69.3952 61.6371 69.1377 61.6583C69.084 61.6477 69.0196 61.6477 68.966 61.6583C68.7622 61.6901 68.5583 61.6371 68.4081 61.5097C68.333 61.4779 68.2472 61.4779 68.1721 61.5097C67.7536 61.5946 67.3352 61.6795 66.9275 61.7856C66.7666 61.8387 66.6164 61.913 66.4876 62.0191C66.2945 62.1571 66.0477 62.1889 65.8331 62.104C65.4576 62.0297 65.125 61.8069 64.9212 61.4885C64.7817 61.2975 64.6422 61.1277 64.4813 60.9579C64.2667 60.6713 64.2345 60.2999 64.3955 59.9815C64.5993 59.6101 64.8246 59.2599 65.0714 58.9203C65.1143 58.846 65.1894 58.7929 65.2645 58.7505C65.4254 58.7186 65.5864 58.6762 65.7366 58.6231C65.8546 58.5594 65.9512 58.4639 66.0155 58.3472C66.0906 58.2305 66.2087 58.1562 66.3481 58.1456C66.3696 58.2729 66.3696 58.4003 66.3481 58.5276C66.3481 58.6974 66.3481 58.7186 66.5091 58.7505C66.67 58.7823 66.7344 58.7505 66.7987 58.6443C66.8631 58.5382 66.9382 58.3154 67.0133 58.1562C67.2172 57.7741 67.4854 57.4345 67.8073 57.148C67.9897 56.957 68.1935 56.7659 68.3652 56.5537C68.4617 56.4263 68.5368 56.2884 68.5798 56.1398C68.7407 55.5986 68.8802 55.0786 69.0626 54.4949C69.1484 54.2508 69.2664 54.0173 69.4166 53.8051C69.5883 53.5716 69.7599 53.3594 69.9531 53.1471C70.114 52.9879 70.3393 52.903 70.5646 52.9136C70.865 52.8393 71.1011 52.6165 71.1976 52.3193C71.262 52.054 71.3049 51.7887 71.3693 51.5234C71.4229 51.1307 71.7126 50.8017 72.1096 50.7062C72.1096 50.5152 72.0238 50.3348 71.9594 50.165C71.8843 49.974 71.9379 49.7617 72.0989 49.6344C72.3671 49.3903 72.6675 49.178 72.9572 48.9446C73.043 48.8809 73.1074 48.7854 73.1503 48.6899C73.2791 48.3291 73.3649 47.9576 73.4829 47.6286C73.558 47.427 73.6546 47.2254 73.7833 47.0449C73.9872 46.8009 74.1159 46.5037 74.1481 46.1853C74.2447 45.538 74.2661 44.88 74.2125 44.2326C74.191 43.9567 74.2661 43.6808 74.4271 43.4473C74.5558 43.2881 74.6631 43.0865 74.7811 42.9167C74.9742 42.6408 75.1137 42.3436 75.2103 42.0253C75.2961 41.7918 75.4034 41.5689 75.5429 41.3673C75.7575 41.0065 75.9935 40.6563 76.2295 40.306C76.3154 40.1575 76.3583 39.9877 76.3583 39.8179C76.3583 39.4252 76.4549 39.0326 76.53 38.6399C76.53 38.5338 76.6694 38.4383 76.766 38.3534C76.8626 38.2685 77.1844 38.035 77.399 37.8864C77.4634 37.8652 77.517 37.8652 77.5814 37.8864C77.8389 37.9395 78.0964 37.897 78.3217 37.7697C78.5899 37.6635 78.783 37.4301 78.8474 37.1541C78.8581 37.0586 78.944 36.9737 79.0405 36.9525L79.8559 36.6341C79.9847 36.5917 80.1242 36.6129 80.2207 36.6978C80.489 36.8464 80.4568 37.048 80.4138 37.2921C80.3495 37.6423 80.328 38.0031 80.3387 38.3534C80.3495 38.7885 80.2851 39.213 80.1242 39.6162C79.9525 40.0726 79.7057 40.4971 79.4161 40.8791C79.3195 41.0595 79.2766 41.2506 79.2766 41.4522C79.2873 41.6114 79.3195 41.7812 79.3517 41.9404V42.4285C79.3302 42.5134 79.3088 42.5983 79.298 42.6832H79.2873ZM79.7701 39.1811L79.8774 37.8546C79.8989 37.7166 79.8989 37.568 79.8774 37.4301C79.8452 37.3452 79.7808 37.2709 79.695 37.2284H79.5126C79.3839 37.3133 79.2873 37.4301 79.2337 37.568C79.1264 37.7484 78.9976 37.9289 78.8581 38.088C78.6865 38.2897 78.4612 38.4489 78.4612 38.746C78.4612 38.7885 78.429 38.8309 78.3968 38.8628L77.7423 39.5526L77.1415 40.1681L76.5514 40.8791C76.4548 40.9852 76.4548 41.0489 76.5514 41.102C76.884 41.2399 77.1737 41.4522 77.4097 41.7175C77.5707 41.9085 77.7638 42.0677 77.9891 42.1951C78.0427 42.2163 78.0964 42.2163 78.15 42.1951C78.4397 42.2057 78.6865 41.9828 78.6972 41.6963C78.6972 41.6751 78.6972 41.6644 78.6972 41.6432C78.6758 41.5371 78.6328 41.431 78.5685 41.3355C78.4826 41.2293 78.5041 41.0914 78.6114 41.0065C78.6114 41.0065 78.6114 41.0065 78.6221 40.9959C78.8689 40.7624 79.1264 40.5289 79.3624 40.2848C79.4482 40.1999 79.5233 40.1044 79.577 39.9983C79.6306 39.6905 79.7701 39.3828 79.7701 39.1811ZM81.3151 56.957C81.3365 56.7766 81.3365 56.5961 81.3151 56.4157C81.2614 56.0867 81.1112 55.7896 80.8859 55.5455C80.5855 55.1953 80.2207 54.8982 79.813 54.6753C79.5448 54.5479 79.2444 54.463 78.944 54.4418C78.8903 54.4418 78.8367 54.4737 78.8045 54.5161V54.6541L79.0727 55.0573L79.4482 55.6092C79.5126 55.7047 79.6092 55.8002 79.6736 55.9063C79.8881 56.2247 80.1671 56.5006 80.5104 56.681C80.7786 56.7978 81.0469 56.8933 81.3365 56.957H81.3151ZM78.0964 56.3627C78.3968 56.3627 78.547 56.2884 78.5577 56.0337C78.6007 55.5455 78.3539 55.068 77.9355 54.8133C77.6672 54.6435 77.3883 54.4737 77.1308 54.2932C76.8733 54.1128 76.7231 53.9855 76.5192 53.8369C76.4763 53.7945 76.4227 53.7626 76.369 53.7308C76.3046 53.7096 76.2403 53.7308 76.2188 53.7945C76.2081 53.8157 76.2081 53.8475 76.2188 53.8687C76.2939 54.1234 76.3797 54.3781 76.4656 54.6328C76.5514 54.8875 76.5836 54.8769 76.6265 55.0043C76.6909 55.259 76.8518 55.4924 77.0664 55.6516C77.3561 55.8745 77.6565 56.0867 77.9569 56.2884C78.0106 56.3202 78.0749 56.3521 78.1393 56.3627H78.1071H78.0964ZM74.824 54.6753C74.824 54.4843 74.7919 54.3039 74.7489 54.1234C74.5987 53.752 74.4271 53.4018 74.2447 53.0622C74.0945 52.7863 73.8799 52.5422 73.6117 52.3724C73.4722 52.2769 73.3649 52.3087 73.3434 52.4679C73.3113 52.6802 73.3113 52.8818 73.3434 53.094C73.3434 53.2744 73.4293 53.4655 73.4507 53.6565C73.4936 53.8794 73.6331 54.0704 73.8262 54.1977C74.0516 54.3569 74.2983 54.5161 74.5344 54.6541C74.6309 54.6753 74.7275 54.6859 74.824 54.6753ZM75.7575 51.2156H75.6394C75.4785 51.2156 75.4141 51.2156 75.4892 51.4067C75.6394 51.7887 75.8755 52.1177 76.1866 52.383L76.9913 53.0091C77.0986 53.0834 77.3346 53.1365 77.3883 53.0622C77.4419 52.9879 77.4419 52.8181 77.3883 52.7014C77.3561 52.5953 77.3132 52.4997 77.2595 52.4042C77.163 52.2026 77.0557 52.0116 76.9162 51.8418C76.6051 51.5234 76.1974 51.3111 75.7575 51.2262V51.2156ZM77.678 51.6614V51.7356C77.7209 51.7993 77.7638 51.863 77.796 51.9267C77.9247 52.1389 78.0642 52.3618 78.1822 52.5846C78.2895 52.8287 78.4075 53.0516 78.5577 53.2745C78.7616 53.4867 78.9976 53.6671 79.2444 53.8263C79.3088 53.8687 79.3946 53.89 79.4697 53.89C79.6414 53.89 79.695 53.8051 79.6199 53.6459C79.5233 53.4549 79.4375 53.2532 79.3839 53.0516C79.2658 52.6271 78.9762 52.2769 78.5899 52.0646C78.4397 51.9585 78.2788 51.8736 78.1071 51.7993C77.9676 51.7463 77.8282 51.7038 77.678 51.672V51.6614ZM70.5539 53.5928H70.4466L69.9209 53.9218C69.599 54.1659 69.3844 54.5267 69.3201 54.9194C69.2664 55.3545 69.2664 55.7896 69.3201 56.2247C69.3201 56.2778 69.363 56.3202 69.4166 56.3414C69.4166 56.3414 69.5239 56.3414 69.5454 56.2672C69.717 55.9806 69.8243 55.6729 69.8887 55.3545C69.9745 54.8133 70.1784 54.2932 70.4895 53.8369C70.511 53.752 70.5324 53.6777 70.5539 53.5928ZM77.3346 50.4834C77.3668 50.6107 77.4312 50.7275 77.4956 50.8442C77.5814 50.9503 77.6887 51.0352 77.796 51.1095C78.1071 51.3324 78.4075 51.5658 78.7294 51.7781C78.7938 51.7887 78.8581 51.7887 78.9225 51.7781V51.5552C78.7509 51.2899 78.5685 51.0458 78.3968 50.7911L77.8818 50.027C77.8174 49.9421 77.6994 49.9209 77.6136 49.9846C77.6028 49.9952 77.5814 50.0058 77.5707 50.027C77.4848 50.1756 77.399 50.3348 77.3346 50.494V50.4834ZM71.8199 53.2214C71.8092 53.3806 71.8092 53.5398 71.8199 53.6989C71.8736 53.9112 71.9487 54.1341 72.0345 54.3357C72.0345 54.3357 72.1311 54.4312 72.1633 54.4206C72.2169 54.3994 72.2598 54.3569 72.2813 54.3039C72.3456 54.0916 72.3671 53.8581 72.4529 53.6459C72.5602 53.1683 72.6031 52.6908 72.571 52.2026C72.571 52.1601 72.5388 52.1177 72.4958 52.0965C72.4958 52.0965 72.41 52.0965 72.3886 52.1495L71.9594 52.7544C71.9272 52.8075 71.895 52.8818 71.895 52.9455C71.8414 53.041 71.8307 53.1365 71.8199 53.2214ZM73.7082 50.303C73.558 50.303 73.4936 50.303 73.4722 50.4515C73.4507 50.7805 73.5151 51.0989 73.676 51.3854C73.7082 51.4279 73.7511 51.4703 73.8048 51.5022C74.2018 51.7569 74.5987 52.0222 75.0064 52.2663C75.0064 52.2663 75.1459 52.2663 75.1996 52.2026C75.2103 52.1601 75.2103 52.1071 75.1996 52.0646C74.6524 51.5765 74.191 51.014 73.8048 50.3985L73.7082 50.303ZM79.1371 50.6001C79.0298 50.6001 78.9654 50.6532 78.9976 50.7593C79.0298 50.8654 79.0727 50.8654 79.0942 50.9185C79.1907 51.0883 79.2766 51.2581 79.3195 51.4491C79.3624 51.8736 79.6628 52.2344 80.0813 52.3512C80.1349 52.3724 80.1778 52.3724 80.2315 52.3512C80.2529 52.3087 80.2529 52.245 80.2315 52.2026C80.2315 52.1071 80.2315 52.0222 80.2315 51.9267C80.2207 51.5765 80.0598 51.2475 79.7916 51.0246L79.7701 50.9503C79.5984 50.7381 79.3517 50.6956 79.1371 50.6001ZM70.114 62.3693H70.1677C70.2428 62.2207 70.3071 62.0722 70.35 61.913C70.4788 61.4036 70.5754 60.8517 70.6826 60.3742C70.6826 60.3211 70.6826 60.2362 70.629 60.2256C70.5754 60.2044 70.5217 60.2044 70.4681 60.2256C70.393 60.2256 70.3286 60.3423 70.2428 60.3848C69.9423 60.5758 69.7492 60.8942 69.7385 61.2444C69.7385 61.2762 69.7385 61.3081 69.7385 61.3399C69.8994 61.5522 69.996 61.8175 70.0175 62.0828C70.0389 62.1783 70.0711 62.2738 70.114 62.3693ZM75.5858 49.2311L75.7253 49.3585L76.5085 49.974C76.5085 49.974 76.6158 49.9952 76.6587 49.974L77.3883 49.7299C77.4526 49.6874 77.4741 49.6025 77.4312 49.5389C77.4205 49.5176 77.4097 49.507 77.3883 49.4964C77.2273 49.2842 76.9806 49.1568 76.7123 49.1356H75.6394L75.5858 49.2311ZM70.511 56.9994H70.5754C70.6826 56.8933 70.7792 56.7872 70.865 56.6704C71.1011 56.2247 71.2191 55.7153 71.1869 55.2059C71.2084 55.1104 71.2084 55.0255 71.1869 54.93C71.1869 54.8769 71.1118 54.8026 71.0689 54.8026C71.0045 54.8026 70.9509 54.8557 70.9187 54.9088C70.8436 55.068 70.7792 55.2271 70.7363 55.3969C70.7363 55.6516 70.629 55.9063 70.5861 56.1716C70.5432 56.437 70.5432 56.7659 70.511 56.9994ZM73.3864 51.6932L73.2469 51.4597C72.925 51.0458 72.8177 50.5046 72.925 49.9952C72.925 49.8997 72.925 49.8466 72.8177 49.8254C72.7212 49.8042 72.6246 49.8679 72.6031 49.974C72.6031 49.974 72.6031 49.974 72.6031 49.9846V50.3454C72.5924 50.4728 72.5924 50.6107 72.6031 50.7381C72.6782 51.0352 72.8284 51.3005 73.0216 51.534C73.1181 51.6295 73.2469 51.6826 73.3864 51.6826V51.6932ZM73.6653 48.9976V49.0613C73.7941 49.2099 73.9121 49.3691 74.0194 49.5283C74.2018 49.8148 74.5129 49.9846 74.8455 49.9952C74.9206 50.0058 74.9957 50.0058 75.0708 49.9952C75.0708 49.9209 75.0708 49.836 74.985 49.783C74.7382 49.507 74.4378 49.2948 74.1052 49.1568C73.9657 49.0825 73.8155 49.0189 73.6653 48.987V48.9976ZM71.3908 58.3896C71.1011 58.5276 70.8436 58.7292 70.6612 58.9946C70.4359 59.3554 70.4359 59.366 70.8221 59.5464C71.0045 59.6313 71.1118 59.5464 71.1547 59.3766C71.1976 59.2068 71.2942 58.8354 71.3693 58.5594C71.38 58.517 71.38 58.4745 71.3908 58.3896ZM75.2639 50.0483C75.5536 50.3985 75.9184 50.685 76.3368 50.8654H76.5192C76.5729 50.8654 76.5192 50.7169 76.4656 50.6744C76.251 50.4834 76.0364 50.2924 75.8004 50.1226C75.6502 49.9846 75.4356 49.9634 75.2639 50.0483ZM77.8174 38.5232V38.4489C77.6458 38.4489 77.4741 38.5338 77.3561 38.6505C77.2595 38.8415 77.1737 39.0432 77.0879 39.2448C77.0771 39.2979 77.0771 39.3615 77.0879 39.4146H77.2381L77.3239 39.3403C77.5921 39.1387 77.7638 38.8521 77.8174 38.5232ZM68.6119 57.6256C68.5368 57.6256 68.4939 57.6786 68.4725 57.7105L67.8073 58.2729C67.8073 58.2729 67.7322 58.379 67.7429 58.4003C67.7536 58.4215 67.8395 58.517 67.8931 58.517C68.0648 58.5382 68.2472 58.4639 68.3545 58.326C68.4832 58.1137 68.569 57.8696 68.6119 57.6256ZM64.7495 66.5188C64.9748 66.5188 65.0499 66.5188 65.0606 66.3065C65.0714 66.0943 65.0606 66.0943 64.8675 66.0837C64.7066 66.0837 64.5671 66.1898 64.5457 66.349C64.5457 66.4869 64.6208 66.5082 64.7495 66.5188ZM65.8224 59.9709C65.8224 59.8542 65.8224 59.7587 65.6829 59.7905C65.5756 59.8117 65.4684 59.8542 65.3825 59.9178C65.2752 60.0027 65.2967 60.1938 65.3825 60.2256C65.5756 60.268 65.7688 60.1619 65.8224 59.9709ZM65.1787 60.4272C65.1787 60.4272 65.1787 60.3529 65.1787 60.3211C65.1358 60.2468 65.0821 60.1832 65.0285 60.1195V60.0664C65.0285 60.0664 64.9748 60.0664 64.9534 60.0664C64.9534 60.1831 64.9534 60.2999 64.9534 60.4166C64.9534 60.5227 65.0177 60.5758 65.1358 60.5864C65.2538 60.597 65.125 60.5121 65.1358 60.3742L65.1679 60.4272H65.1787Z" fill="#C8141E"/>
<path d="M81.4009 87.1388C81.3151 87.351 81.2185 87.6269 81.1113 87.9029C81.0791 87.9453 81.0361 87.9878 80.9932 88.0196L80.4353 88.2743C80.328 88.2743 80.3173 88.391 80.3066 88.4865C80.2744 88.8898 80.2207 89.3037 80.1242 89.6964C79.9525 90.1739 79.7487 90.6303 79.5126 91.076C79.3839 91.3731 79.2015 91.649 78.9655 91.8719C78.8367 91.978 78.6758 92.0417 78.5041 92.0417C78.4505 92.0417 78.3754 92.0417 78.3324 91.9462C78.0857 91.6809 78.0213 91.2988 78.1822 90.9699C78.1822 90.8743 78.2466 90.7682 78.3003 90.6727C78.3968 90.4923 78.3432 90.2694 78.1715 90.1527C77.9998 90.0253 77.8174 89.9086 77.6243 89.8025C77.5063 89.7388 77.4312 89.8025 77.4097 89.9086C77.2917 90.418 77.1737 90.9699 77.045 91.4368C77.0128 91.5217 76.9484 91.596 76.884 91.649C76.4871 92.0523 75.9613 92.2964 75.4034 92.3601C75.3498 92.3601 75.2961 92.3282 75.2532 92.2858C75.0494 92.0629 74.9421 91.7658 74.9528 91.4686C74.9528 91.0548 74.9528 90.6409 74.8777 90.2376C74.8562 90.0996 74.8026 89.9723 74.7168 89.8555C74.5666 89.6327 74.3842 89.4204 74.2125 89.2082C74.1803 89.1657 74.1481 89.1127 74.1374 89.0596C74.0301 88.6033 73.9657 88.1257 73.955 87.6588C73.955 87.2767 73.955 86.8841 73.8906 86.502C73.8906 86.449 73.8584 86.3959 73.8155 86.3534C73.3327 85.7698 72.9679 85.1012 72.7426 84.3901C72.6568 84.1567 72.6246 83.9126 72.6461 83.6685C72.6783 83.4987 72.7426 83.3395 72.8392 83.2015C72.8928 83.0954 73.0752 83.106 73.2147 83.2015C73.3542 83.2971 73.5688 83.4987 73.7512 83.626C73.9335 83.7534 74.0194 83.8277 74.1803 83.626C74.3413 83.4244 74.4485 83.2122 74.3198 83.0317C74.191 82.8513 74.0301 82.6603 73.8692 82.4905C73.558 82.0979 73.2898 81.6627 73.086 81.2064C72.7104 80.3999 72.4959 79.5296 72.4529 78.6382C72.4529 78.5639 72.4529 78.5002 72.4529 78.4259C72.3671 78.1606 72.3457 77.8847 72.3886 77.6194C72.3993 77.3647 72.3027 77.1312 72.1096 76.9614C71.8521 76.6324 71.5839 76.3035 71.3157 75.9851C71.1011 75.7304 71.144 75.3483 71.4015 75.1361C71.4552 75.0936 71.5195 75.0512 71.5946 75.03C71.6697 75.0087 71.7448 75.0087 71.8199 75.03C72.0989 75.1361 72.3135 75.3483 72.4422 75.6136C72.7104 76.1337 72.9679 76.6749 73.2254 77.1843C73.3113 77.3435 73.3971 77.4921 73.4937 77.6406C73.558 77.7255 73.6546 77.7786 73.7512 77.821C74.1481 77.9696 74.5344 78.15 74.8992 78.3623C75.2639 78.5639 75.6931 78.6382 76.1115 78.5745C76.3798 78.5745 76.6373 78.5002 76.9055 78.4896C77.002 78.4896 77.0879 78.5108 77.163 78.5639C77.6136 78.8186 77.9784 79.1794 78.2359 79.6251C78.7187 80.3574 79.3088 81.0684 79.7272 81.8113C80.0598 82.3525 80.3388 82.9256 80.6284 83.4775C80.7894 83.7852 80.9289 84.093 81.0898 84.3901C81.2185 84.6979 81.2936 85.0163 81.3044 85.3453C81.3044 85.7379 81.3795 86.12 81.4117 86.5126C81.4117 86.7036 81.4009 86.8841 81.4009 87.1388Z" fill="#C8141E"/>
<path d="M83.2463 81.4611C83.2463 81.546 83.2463 81.6415 83.3107 81.737C83.5575 82.3738 83.7935 83.0105 84.0403 83.6366C84.0617 83.7109 84.1047 83.7746 84.1476 83.8383C84.3836 84.2097 84.5231 84.6342 84.5446 85.0799C84.5767 85.5893 84.4909 86.0987 84.3085 86.5763C84.1047 87.0857 83.8579 87.5739 83.5682 88.0408C83.3107 88.391 83.021 88.72 82.6992 89.0172H82.27C81.9159 88.9641 81.8838 88.911 81.7765 88.5608C81.6692 88.1894 81.6692 87.8073 81.7765 87.4359C81.9052 86.9053 81.9589 86.364 81.9374 85.8228V85.1648C81.9374 84.8995 81.8838 84.6448 81.7657 84.4114C81.637 84.1779 81.5833 83.902 81.4546 83.6685C81.0147 82.8407 80.5856 82.0129 80.1027 81.217C79.8023 80.7288 79.4161 80.2831 79.0942 79.8056C78.7723 79.328 78.7294 79.137 78.547 78.7443C78.3539 78.3304 78.2144 77.8953 78.1286 77.439C78.032 77.11 77.8926 76.7916 77.6994 76.5051C77.3454 75.9426 76.7446 75.5818 76.0686 75.5394C75.779 75.4863 75.5 75.3802 75.2532 75.2316C75.1352 75.1679 75.0708 74.9769 75.0065 74.8389C74.8992 74.4993 74.8777 74.1279 74.9636 73.7777C75.0172 73.4699 74.9636 73.1516 74.8133 72.8756C74.7382 72.6846 74.7382 72.483 74.8133 72.2919C74.8241 72.2389 74.867 72.1858 74.9099 72.154C75.264 71.8887 75.736 71.7932 76.1652 71.9205C76.3154 71.9736 76.4442 72.0372 76.5729 72.1328L77.281 72.6634C77.3347 72.7058 77.399 72.7377 77.4741 72.7377C77.6994 72.7695 77.9248 72.7271 78.1179 72.6209C78.2037 72.5573 78.311 72.536 78.3968 72.483C78.7187 72.3344 79.0835 72.3026 79.4161 72.4193C79.6843 72.5148 79.9096 72.674 80.092 72.8862C80.4139 73.2471 80.6714 73.6716 80.843 74.1279C80.9396 74.3401 81.0791 74.5206 81.2615 74.6691C81.7121 75.0512 82.0769 75.5075 82.3344 76.0275C82.4309 76.1867 82.549 76.3459 82.6562 76.5051C82.7635 76.6643 82.8065 76.6218 82.8816 76.5051C82.9245 76.452 82.9567 76.3884 82.9459 76.3141C82.8708 76.1018 82.785 75.8896 82.6777 75.6879C82.4846 75.3059 82.2593 74.9344 82.0447 74.563C81.991 74.4675 81.9481 74.3614 81.8945 74.2552C81.8408 74.1491 81.7657 73.9156 81.8945 73.7777C82.0232 73.6397 82.2485 73.5654 82.4739 73.6291C82.9674 73.7671 83.4395 73.9899 83.8579 74.2871C84.2871 74.563 84.6518 74.9238 84.9308 75.3483C85.0166 75.4545 85.1025 75.5606 85.199 75.6561C85.5102 76.0169 85.7247 76.4308 85.8428 76.8871C85.9071 77.0251 85.9822 77.1524 86.0573 77.2798C86.2075 77.5239 86.2505 77.8104 86.1861 78.0863C86.1646 78.1288 86.1217 78.1606 86.0788 78.1712C85.8535 78.2668 85.5853 78.2668 85.36 78.1712C85.2527 78.1076 85.1454 78.0439 85.0381 77.9908C84.963 77.9908 84.8986 77.9908 84.9201 78.0757C84.9415 78.2031 84.9737 78.3304 85.0274 78.4472C85.36 79.1051 85.5531 79.8268 85.6067 80.5696V80.7713C85.6282 81.2064 85.5209 81.6309 85.3063 82.0023C85.2205 82.1934 85.1776 82.395 85.1668 82.5966C85.1668 82.8513 85.1132 83.0954 85.0381 83.3395C84.9844 83.5199 84.8986 83.5411 84.7055 83.4775C84.4587 83.4032 84.2656 83.2228 84.1583 82.9893C83.9223 82.586 83.7077 82.1827 83.4717 81.7795C83.418 81.684 83.3536 81.5991 83.2893 81.5142L83.2463 81.4611Z" fill="#C8141E"/>
<path d="M68.7836 72.9712L68.333 72.9075H68.2579L67.9682 72.7165C68.0111 72.621 68.0755 72.5361 68.1399 72.4618C68.4081 72.2283 68.6763 72.0161 68.966 71.8038C69.2664 71.5916 69.4274 71.2307 69.4059 70.8699C69.3523 70.5622 69.5346 70.265 69.8351 70.1589C70.3286 69.9466 70.8221 69.7662 71.3371 69.6177C71.7663 69.4797 72.2276 69.7026 72.3671 70.1271C72.41 70.2332 72.4207 70.3605 72.41 70.4667C72.3993 70.7214 72.3671 70.9654 72.3135 71.2095C72.2062 71.8675 72.0989 72.5255 71.9809 73.1834C71.9594 73.2577 71.9379 73.332 71.895 73.4063C71.6161 73.8308 71.2835 74.2128 70.8865 74.5312C70.5324 74.8814 70.2642 75.3165 70.0926 75.7835C70.0711 75.8578 70.0711 75.9427 70.0926 76.017C70.0926 76.3566 69.996 76.6855 69.8243 76.9721C69.6312 77.4178 69.4595 77.8635 69.3201 78.3305C69.1913 78.8717 69.084 79.4129 69.0197 79.9648C68.9553 80.4211 69.0197 80.8987 68.8802 81.355C68.7622 81.9281 68.5583 82.4906 68.2579 82.9999C68.0111 83.4457 67.7429 83.8808 67.5283 84.3371C67.4532 84.56 67.3245 84.7616 67.1421 84.9102C66.9919 85.0482 66.7666 85.0375 66.6271 84.889C66.6056 84.8571 66.5842 84.8253 66.5627 84.7935C66.3803 84.4645 66.1657 84.1461 66.0048 83.8065C65.8546 83.4881 65.7366 83.1591 65.6293 82.8302C65.5542 82.5755 65.4362 82.3314 65.286 82.1191C65.0177 81.7052 64.8139 81.2383 64.6959 80.7607C64.5778 80.2301 64.5457 79.6783 64.5993 79.137C64.6208 78.6701 64.6637 78.2031 64.7495 77.7468C64.8461 77.1419 64.9748 76.5476 65.0928 75.9427C65.125 75.7516 65.243 75.5819 65.404 75.4651C65.8117 75.1892 66.2194 74.9133 66.6378 74.648C67.2386 74.2341 67.8502 73.8414 68.451 73.4169C68.5798 73.2896 68.6978 73.1304 68.7836 72.9712Z" fill="#C8141E"/>
<path d="M71.777 81.928C71.7233 82.0129 71.6804 82.1084 71.6482 82.2039C71.5624 82.6391 71.5624 83.0742 71.6482 83.5093C71.7341 83.7852 71.8628 84.0505 72.0238 84.284C72.2598 84.6979 72.5066 85.1118 72.7533 85.5256C72.9357 85.9077 73.0323 86.3216 73.0323 86.7355C73.0323 87.0114 73.1503 87.2979 73.1932 87.5738C73.2361 87.8498 73.3112 88.3486 73.3434 88.7412C73.3649 89.0171 73.3649 89.3037 73.3434 89.5796C73.3434 89.8767 73.204 89.951 72.8928 89.9192C72.4207 89.8661 71.9701 89.7706 71.5195 89.622C71.2727 89.5478 71.026 89.4947 70.7792 89.4522C70.6934 89.431 70.6183 89.3992 70.5432 89.3461C70.2964 89.1763 70.0496 89.0065 69.8243 88.8155C69.6419 88.6563 69.5024 88.4547 69.4166 88.2212C69.2879 87.8816 69.0411 87.5951 68.7192 87.4147C68.3544 87.2342 68.0862 86.9053 67.9682 86.5126C67.9038 86.2897 67.8394 86.0669 67.7643 85.8546C67.7643 85.8228 67.7643 85.791 67.7643 85.7591C67.8394 85.3346 67.936 84.9101 68.054 84.4962C68.1506 84.2734 68.2686 84.0505 68.4081 83.8489C68.5368 83.6579 68.6334 83.4562 68.6978 83.2334C68.8372 82.6815 69.0196 82.1297 69.2557 81.6097C69.481 80.9623 69.6205 80.2937 69.6634 79.6145C69.7492 78.9141 69.835 78.2031 69.9531 77.492C70.0282 77.2373 70.1355 76.9826 70.2749 76.7492C70.4788 76.59 70.7685 76.59 70.9723 76.7492C71.2191 77.11 71.4659 77.4708 71.7019 77.8104C71.7448 77.9059 71.7663 78.0014 71.777 78.1075C71.777 78.1712 71.777 78.2243 71.777 78.288C71.9165 78.5214 71.9165 78.808 71.777 79.0414C71.6375 79.4235 71.6375 79.848 71.777 80.23C71.9165 80.6227 72.131 80.9835 72.41 81.2913C72.7211 81.6733 72.9143 82.1297 72.9679 82.6178C72.9679 82.7027 72.8821 82.8195 72.807 82.8938C72.7319 82.9256 72.6568 82.9256 72.5817 82.8938C72.3564 82.7664 72.1418 82.6284 71.9272 82.4799C71.9272 82.4799 71.8628 82.395 71.8414 82.3525C71.8199 82.3101 71.7663 82.1084 71.7233 81.9917L71.777 81.928Z" fill="#C8141E"/>
<path d="M82.5382 66.3489C82.3666 66.2853 82.1949 66.2004 82.034 66.1155C81.5082 65.8289 80.8538 65.8289 80.328 66.1155C80.1027 66.211 79.8667 66.2959 79.6307 66.3702C79.4375 66.3702 79.3195 66.3702 79.2873 66.1367C79.2873 65.9881 79.18 65.8714 79.0298 65.8608C78.9976 65.8608 78.9762 65.8608 78.944 65.8608C78.6758 65.9138 78.4075 65.9881 78.15 66.0836C77.9247 66.1791 77.8067 66.4445 77.9033 66.6673C77.9247 66.7204 77.9569 66.7628 77.9998 66.8053L78.0642 66.8689C78.3324 67.0706 78.3861 67.4526 78.1822 67.7179C78.1822 67.7179 78.1822 67.7179 78.1822 67.7286L77.9462 68.1C77.8604 68.2273 77.8604 68.4078 77.9462 68.5351C78.075 68.7898 78.1822 69.0445 78.2681 69.3098C78.3432 69.5008 78.4719 69.6812 78.6436 69.8086C78.6972 69.8298 78.7509 69.8298 78.8045 69.8086C79.3302 69.5433 79.974 69.66 80.3817 70.0845C80.725 70.3711 80.8967 70.8062 80.8538 71.2413C80.843 71.3156 80.7787 71.3899 80.7036 71.4111C80.4782 71.4323 80.2637 71.4323 80.0384 71.4111C79.8452 71.3792 79.6628 71.3156 79.4912 71.2413C78.9762 71.0502 78.3968 71.2094 78.0428 71.6233C77.9247 71.7401 77.796 71.8462 77.6887 71.9735C77.5707 72.0903 77.399 72.1433 77.2381 72.1221C77.0771 72.1221 77.0235 72.016 77.1308 71.878C77.2381 71.7401 77.4634 71.4535 77.6458 71.2413C77.7102 71.1564 77.7424 71.0502 77.7102 70.9441C77.6136 70.4878 77.1844 70.1694 76.7124 70.2119L75.2318 70.3604C75.0708 70.4029 74.8992 70.3074 74.8455 70.1482C74.8455 70.1482 74.8455 70.1376 74.8455 70.127C74.8133 70.0421 74.7704 69.9678 74.7168 69.8935C74.5773 69.66 74.5773 69.6494 74.2983 69.7025L73.3435 69.9466C73.204 69.989 73.043 69.9253 72.9787 69.798C72.9465 69.7343 72.9465 69.66 72.9787 69.5963C73.086 69.4159 73.2147 69.2461 73.3327 69.0763C73.4615 68.8959 73.4615 68.6518 73.3435 68.4608C73.3435 68.3759 73.2791 68.2698 73.2254 68.1955C73.1074 68.0045 73.1074 67.7604 73.2254 67.5694C73.3542 67.2298 73.4507 66.8689 73.601 66.5081C73.6868 66.3383 73.8263 66.1898 73.9979 66.0942C74.5237 65.8289 75.0279 65.5106 75.4893 65.1391C75.7897 64.895 76.1759 64.7677 76.5622 64.7889C76.9269 64.7465 77.2917 64.6509 77.6351 64.5236C78.2788 64.2795 78.9762 64.1734 79.6628 64.2158C79.9633 64.2477 80.2637 64.1946 80.5426 64.0673C81.1542 63.7913 81.8837 64.0248 82.1949 64.6191C82.4738 64.9799 82.6991 65.3726 82.9459 65.7653C83.0103 65.882 83.139 65.9881 83.0425 66.1473C82.9352 66.3065 82.7421 66.3808 82.5489 66.3383L82.5382 66.3489Z" fill="#C8141E"/>
<path d="M83.3107 72.1859L82.7313 72.5679C82.6133 72.6634 82.4524 72.6634 82.3344 72.5679C82.0661 72.3238 81.8194 72.0798 81.5726 71.8357C81.5726 71.8357 81.5082 71.7508 81.4761 71.7189C81.3259 71.5279 81.3044 71.2626 81.4224 71.0503C81.4224 70.9867 81.5726 70.9655 81.6799 70.8912C81.519 70.6471 81.3366 70.403 81.1435 70.1801C80.8538 69.883 80.5319 69.6283 80.2208 69.3524C79.974 69.1189 79.8238 68.8005 79.7701 68.4715C79.7701 68.3017 79.8023 68.1319 79.8882 67.9834C79.9847 67.7605 79.9847 67.4952 79.8882 67.2723C79.8131 67.1025 79.8345 67.007 80.0169 66.9433C80.3066 66.8478 80.607 66.7735 80.9181 66.7417C81.3366 66.7417 81.7657 66.7629 82.1842 66.8054C82.3558 66.8372 82.5168 66.8797 82.6777 66.9221L83.3751 67.0601C84.1905 67.2405 84.8986 67.718 85.3707 68.4079C85.478 68.6095 85.5423 68.8324 85.5638 69.0658C85.5638 69.1507 85.5638 69.225 85.5638 69.3099C85.6282 69.6071 85.5102 69.7769 85.2097 69.936C84.9093 70.0952 85.0059 70.0846 85.2097 70.2226C85.4136 70.3605 85.5209 70.4667 85.6926 70.5834C85.993 70.8169 86.1754 71.1565 86.2075 71.5279C86.2505 71.7932 86.2719 72.0691 86.2719 72.3345C86.3148 72.6634 86.4221 72.9712 86.5938 73.2577C86.6796 73.4169 86.7547 73.5867 86.8298 73.7459C86.9049 73.9475 86.8727 74.1704 86.7547 74.3508C86.7118 74.4145 86.6474 74.4782 86.5723 74.51C85.9715 74.7329 85.2956 74.5843 84.845 74.128C84.7591 74.0537 84.7591 73.8945 84.7162 73.7671C84.6733 73.6398 84.5982 73.3108 84.5338 73.0773C84.4694 72.8439 84.4051 72.7802 84.1368 72.7908C83.933 72.8226 83.7399 72.759 83.5897 72.621C83.5253 72.5573 83.4717 72.483 83.4287 72.4087L83.3107 72.1859Z" fill="#C8141E"/>
<path d="M87.5058 69.1719L87.0337 69.363C86.5294 69.5328 86.5509 69.5222 86.4329 69.0658C86.4007 68.9809 86.3792 68.896 86.3578 68.8111C86.3363 68.5564 86.1968 68.3336 85.9715 68.2062C85.7784 68.0895 85.6926 67.856 85.7677 67.6438C85.8106 67.3572 85.6926 67.0813 85.4673 66.9009L85.199 66.5931L84.0617 65.1923C83.9866 65.118 83.9223 65.0225 83.8794 64.927C83.8364 64.8527 83.8364 64.7678 83.8794 64.6935C83.9437 64.6298 84.0403 64.6192 84.1261 64.6404C84.6089 64.8315 85.0488 65.1286 85.4136 65.5C85.5638 65.6804 85.7784 65.829 85.9501 65.9988C86.1217 66.1686 86.1324 66.2641 86.2397 66.3915C86.4114 66.625 86.6045 66.8478 86.8084 67.0601C87.0873 67.3572 87.3234 67.6862 87.5165 68.0364C87.5809 68.1213 87.6452 68.2062 87.7311 68.2699C87.9027 68.4397 88.0851 68.5989 88.2461 68.7687C88.5572 69.1507 88.761 69.6177 88.804 70.1164C88.8362 70.3711 88.8362 70.6152 88.804 70.8699C88.804 71.581 88.7181 72.292 88.7289 72.9924C88.761 73.3002 88.8362 73.5973 88.9542 73.8839C89.1044 74.3614 89.2546 74.839 89.3941 75.3165C89.4692 75.5394 89.5121 75.7835 89.5979 76.0064C89.7374 76.3884 89.791 76.8023 89.7481 77.2056C89.7159 77.6194 89.673 78.0227 89.5979 78.426C89.5014 78.9354 89.3619 79.4236 89.2331 79.9223C89.2009 80.124 89.1473 80.3256 89.0937 80.5273C89.04 80.7183 88.9649 80.8987 88.8791 81.0685C88.8469 81.1216 88.7718 81.164 88.7074 81.1534C88.6323 81.1534 88.5787 81.1003 88.5465 81.0367C88.5357 80.9199 88.5357 80.7926 88.5465 80.6758C88.6323 79.9754 88.7718 79.2856 88.8254 78.5533C88.9327 77.3223 88.7718 76.0806 88.3533 74.9239C87.9564 73.9475 87.7525 72.9075 87.774 71.8569V71.0716C87.774 70.8063 87.774 70.7532 87.495 70.6683C87.2161 70.5834 87.0981 70.3181 87.2912 70.0634C87.495 69.8087 87.5701 69.4903 87.5058 69.1719Z" fill="#C8141E"/>
<path d="M75.6716 77.821C74.9099 77.7042 74.2447 77.2691 73.8262 76.6324C73.6009 76.261 73.4078 75.8683 73.2576 75.4544C73.204 75.2846 73.1825 75.1148 73.1932 74.9344C73.1932 74.6585 73.2147 74.3932 73.2576 74.1172C73.2898 73.9687 73.3649 73.8307 73.4722 73.714C73.5473 73.6291 73.676 73.6185 73.7619 73.6927C73.7941 73.7246 73.8155 73.7564 73.8262 73.7989C73.8584 73.9156 73.8799 74.043 73.8906 74.1703C73.9657 74.6373 74.073 75.0936 74.2018 75.5393C74.3412 75.7834 74.5022 76.0063 74.706 76.2079H74.7597C75.0815 76.5687 75.5322 76.7916 76.015 76.8446C76.3368 76.8977 76.6372 77.025 76.884 77.2267C77.0235 77.3434 77.0342 77.492 76.884 77.5875C76.7445 77.6724 76.5836 77.7361 76.4227 77.7573C76.1759 77.8316 75.9184 77.8104 75.6716 77.821Z" fill="#C8141E"/>
<path d="M70.5217 69.4054C70.3286 69.3948 70.1784 69.225 70.1891 69.034C70.1891 68.9915 70.1999 68.9491 70.2213 68.9066C70.4788 68.4927 70.7578 68.0895 71.0153 67.6756C71.1333 67.527 71.305 67.4315 71.4873 67.4103C71.5517 67.4103 71.6054 67.3784 71.6483 67.336C71.9058 67.0919 72.2384 66.9327 72.5924 66.9009C72.7319 66.9009 72.7963 66.9539 72.8607 67.0388C72.925 67.1237 73.0001 67.2299 72.8607 67.3572C72.8392 67.3997 72.8177 67.4315 72.7856 67.474C72.5388 67.8984 72.41 68.376 72.4315 68.8642C72.41 69.0552 72.2491 69.2038 72.0453 69.1826C72.0453 69.1826 72.0453 69.1826 72.0345 69.1826H71.4444C71.1333 69.1826 70.8222 69.2568 70.5432 69.3948H70.5217V69.4054Z" fill="#C8141E"/>
<path d="M75.6931 71.1777C75.6073 71.3156 75.4571 71.4005 75.2961 71.4111L74.7597 71.496C74.7597 71.496 74.6631 71.5385 74.6309 71.5809C74.4271 71.8675 74.234 72.154 74.0194 72.4299C73.6224 72.9393 73.204 73.4275 72.807 73.9263C72.7426 74.0324 72.5924 74.0748 72.4851 74.0112C72.3993 73.9475 72.3564 73.8414 72.3564 73.7353C72.3564 73.4699 72.4315 73.2152 72.4744 72.9605C72.4744 72.8969 72.4744 72.8332 72.4744 72.7695C72.4744 72.5679 72.571 72.3769 72.7104 72.2283C72.7641 72.154 72.807 72.0797 72.8392 71.9948C72.9679 71.7189 73.1932 71.496 73.4615 71.3475C73.719 71.2201 73.9979 71.1034 74.2769 71.0185H74.4485C74.6953 70.9123 74.9743 70.8805 75.2318 70.9548C75.339 70.9548 75.4463 70.9548 75.5 71.1034C75.5536 71.2519 75.6287 71.1352 75.6931 71.1777Z" fill="#C8141E"/>
<path d="M87.6345 76.2716C87.6345 76.5157 87.6345 76.7703 87.6881 77.0144C87.7418 77.2585 87.6881 77.4389 87.6881 77.6512C87.6881 77.8634 87.5486 77.9802 87.3877 78.0757C87.2268 78.1712 87.0766 77.9802 87.0122 77.821C86.9585 77.6936 86.9049 77.5663 86.8727 77.4389C86.7869 77.2267 86.6903 77.0144 86.6045 76.7916C86.5187 76.5687 86.465 76.4201 86.4006 76.2291C86.4006 76.1973 86.4006 76.1654 86.4006 76.1336C86.465 75.9638 86.5294 75.8046 86.6152 75.6454L87.098 74.8283C87.1409 74.754 87.216 74.7115 87.3019 74.6903C87.3877 74.7115 87.4521 74.7752 87.4843 74.8601C87.5379 75.1042 87.5808 75.3483 87.6023 75.603V76.2716H87.6345Z" fill="#C8141E"/>
<path d="M78.9976 69.2462C78.7079 69.1507 78.4719 68.9278 78.3646 68.6413C78.3646 68.5776 78.3753 68.514 78.4183 68.4609L78.8582 68.047C78.9762 67.9515 79.0727 67.9833 79.1049 68.1425C79.1371 68.3017 79.2337 68.7262 79.2873 69.0234C79.3088 69.1295 79.1371 69.2568 78.9976 69.2462Z" fill="#C8141E"/>
</g>
<defs>
<clipPath id="clip0_287_1581">
<rect width="151" height="131" fill="white"/>
</clipPath>
</defs>
</svg>
