<svg width="1440" height="94" viewBox="0 0 1440 94" fill="none" xmlns="http://www.w3.org/2000/svg">
<path fill-rule="evenodd" clip-rule="evenodd" d="M49.3027 87.6094C53.2339 86.8555 57.1079 86.1123 60.895 85.4302C69.2622 83.9224 77.7393 82.6006 86.2324 81.2759C101.509 78.8936 116.838 76.5024 131.675 73.0093C152.182 68.1812 173.551 68.2124 194.766 68.2432C196.456 68.2456 198.146 68.248 199.833 68.248C209.534 68.248 220.657 71.8262 230.554 75.0103C232.894 75.7627 235.165 76.4932 237.332 77.1494C241.087 78.2861 245.104 79.7764 249.237 81.3091C258.385 84.7026 268.095 88.3047 276.769 88.7422C281.086 88.96 284.874 87.6787 288.769 86.3604C289.699 86.0459 290.635 85.729 291.585 85.4302C296.274 83.9561 301.085 82.604 305.911 81.248C313.074 79.2354 320.27 77.2129 327.146 74.769C336.328 71.5063 345.982 69.1201 355.66 66.728C364.643 64.5078 373.647 62.2827 382.312 59.3467C388.838 57.1353 395.56 55.9644 402.297 54.7905C406.395 54.0771 410.498 53.3623 414.567 52.4116C419.675 51.2192 424.615 49.4121 429.563 47.6016C434.086 45.9473 438.617 44.2896 443.29 43.0962C455.454 39.9893 467.696 43.4526 479.966 46.9238C491.855 50.2871 503.771 53.6577 515.666 51.0649C524.932 49.0454 534.179 46.6426 543.431 44.2383C556.103 40.9453 568.786 37.6494 581.544 35.332C600.125 31.9575 618.479 27.5752 636.848 23.189C655.247 18.7959 673.66 14.3994 692.331 11.0083C698.042 9.97119 703.895 8.74414 709.813 7.50342C724.114 4.50488 738.792 1.42773 752.739 0.76123C762.179 0.310059 771.149 0.00341797 780.021 0H0V94C15.9805 94 33.1226 90.7124 49.3027 87.6094ZM780.314 0C794.565 0.00537109 808.569 0.79834 823.861 3.03857C859.321 8.23242 898.285 23.7134 937.442 39.272C990.401 60.314 1043.72 81.4976 1089.2 77.5635C1131.63 73.894 1174.88 63.5684 1215.94 53.3433C1237.05 48.0874 1254 50.7451 1273.75 53.8433C1277.54 54.437 1281.43 55.0469 1285.47 55.6206C1322.61 60.8911 1363.71 72.5532 1402.19 83.4731C1415.18 87.1577 1427.86 90.7583 1440 94V0H780.314Z" fill="white"/>
</svg>
