<svg width="576" height="104" viewBox="0 0 576 104" fill="none" xmlns="http://www.w3.org/2000/svg">
<path d="M137.632 89.502H140.892L144.73 98.0014L148.567 89.502H151.827V103.942H148.899V94.7418L145.787 102.024H143.598L140.486 94.7418V103.942H137.638V89.502H137.632Z" fill="white"/>
<path d="M160.055 101.255V95.111H158.407V92.7986H160.098V90.1172H162.86V92.7986H165.295V95.111H162.903V101.132C162.903 101.464 163.026 101.587 163.358 101.587H165.295V103.936H162.737C160.898 103.936 160.055 103.088 160.055 101.255Z" fill="white"/>
<path d="M171.009 100.72H174.311V103.936H171.009V100.72Z" fill="white"/>
<path d="M196.919 100.806H191.968L191.083 103.942H187.946L192.337 89.502H196.667L201.058 103.942H197.799L196.913 100.806H196.919ZM196.157 98.0813L194.447 92.0173L192.737 98.0813H196.163H196.157Z" fill="white"/>
<path d="M216.415 103.936L213.014 97.6877L210.911 100.351V103.942H207.983V89.502H210.911V96.267L216.046 89.502H219.533L215.019 95.1969L219.761 103.942H216.421L216.415 103.936Z" fill="white"/>
<path d="M234.195 100.806H229.244L228.358 103.942H225.222L229.613 89.502H233.943L238.334 103.942H235.074L234.189 100.806H234.195ZM233.432 98.0813L231.722 92.0173L230.013 98.0813H233.438H233.432Z" fill="white"/>
<path d="M244.902 101.052V92.3866C244.902 90.4248 245.831 89.4961 247.793 89.4961H252.762C254.724 89.4961 255.652 90.4248 255.652 92.3866V94.2809H252.682V92.6326C252.682 92.3251 252.577 92.2206 252.27 92.2206H248.291C247.983 92.2206 247.879 92.3251 247.879 92.6326V100.8C247.879 101.107 247.983 101.212 248.291 101.212H252.27C252.577 101.212 252.682 101.107 252.682 100.8V98.5736H249.957V95.9721H255.652V101.046C255.652 103.008 254.724 103.936 252.762 103.936H247.793C245.831 103.936 244.902 103.008 244.902 101.046V101.052Z" fill="white"/>
<path d="M263.444 89.502H266.415V103.942H263.444V89.502Z" fill="white"/>
<path d="M284.527 89.502H287.787L291.624 98.0014L295.462 89.502H298.721V103.942H295.794V94.7418L292.682 102.024H290.499L287.387 94.7418V103.942H284.539V89.502H284.527Z" fill="white"/>
<path d="M306.932 89.502H316.649V92.2264H309.902V95.2154H315.37V97.8968H309.902V101.218H316.649V103.942H306.932V89.502Z" fill="white"/>
<path d="M327.024 92.1834H323.106V89.502H333.912V92.1834H329.995V103.942H327.024V92.1834Z" fill="white"/>
<path d="M340.327 101.71L347.092 92.1403H340.696V89.502H350.763V91.7283L343.998 101.298H350.72V103.936H340.327V101.71Z" fill="white"/>
<path d="M357.947 101.052V92.3866C357.947 90.4248 358.875 89.4961 360.837 89.4961H365.806C367.768 89.4961 368.697 90.4248 368.697 92.3866V94.2809H365.726V92.6326C365.726 92.3251 365.622 92.2206 365.314 92.2206H361.335C361.028 92.2206 360.923 92.3251 360.923 92.6326V100.8C360.923 101.107 361.028 101.212 361.335 101.212H365.314C365.622 101.212 365.726 101.107 365.726 100.8V98.5736H363.002V95.9721H368.697V101.046C368.697 103.008 367.768 103.936 365.806 103.936H360.837C358.875 103.936 357.947 103.008 357.947 101.046V101.052Z" fill="white"/>
<path d="M376.489 89.502H386.206V92.2264H379.46V95.2154H384.927V97.8968H379.46V101.218H386.206V103.942H376.489V89.502Z" fill="white"/>
<path d="M404.73 103.936H401.532L399.14 98.8442H396.748V103.936H393.777V89.4961H401.391C403.353 89.4961 404.281 90.4248 404.281 92.3866V95.8737C404.281 97.5035 403.642 98.4322 402.283 98.6782L404.737 103.936H404.73ZM400.893 96.1997C401.2 96.1997 401.305 96.0951 401.305 95.7876V92.5896C401.305 92.2821 401.2 92.1775 400.893 92.1775H396.748V96.1997H400.893Z" fill="white"/>
<path d="M412.135 89.502H421.852V92.2264H415.105V95.2154H420.573V97.8968H415.105V101.218H421.852V103.942H412.135V89.502Z" fill="white"/>
<path d="M429.423 89.502H432.393V103.942H429.423V89.502Z" fill="white"/>
<path d="M69.8217 0H60.5413V9.28047H69.8217V0Z" fill="white"/>
<path d="M84.7048 0H75.4243V9.28047H84.7048V0Z" fill="white"/>
<path d="M26.4023 40.1354H9.45267V60.3937H0V13.1304H9.45267V32.6446H26.4023V13.1304H35.855V60.3937H26.4023V40.1354Z" fill="white"/>
<path d="M68.801 51.6176H76.0273L81.4947 45.406V13.1304H90.9474V49.053L81.1565 60.3937H63.6718L53.8809 49.053V13.1304H63.3335V45.4736L68.801 51.6176Z" fill="white"/>
<path d="M125.984 60.3937H116.532V21.9065H102.958L107.011 13.1304H135.505L139.558 21.9065H125.984V60.3937Z" fill="white"/>
<path d="M170.88 60.3937H161.427V21.9065H147.854L151.907 13.1304H180.4L184.453 21.9065H170.88V60.3937Z" fill="white"/>
<path d="M221.993 32.374V41.2178H206.396V51.6176H228.069L224.016 60.3937H197.011V13.1304H222.196L226.587 21.9065H206.396V32.374H221.993Z" fill="white"/>
<path d="M294.841 40.1354H277.891V60.3937H268.438V13.1304H277.891V32.6446H294.841V13.1304H304.293V60.3937H294.841V40.1354Z" fill="white"/>
<path d="M346.557 48.9177H330.757L327.787 58.3703L327.11 60.3937H317.319L317.996 58.3703L332.645 15.1599L333.389 13.0688H343.857L344.601 15.1599L359.318 58.3703L359.995 60.3937H350.339L349.663 58.3703L346.557 48.9177ZM333.389 40.7504H343.925L338.66 24.3419L333.396 40.7504H333.389Z" fill="white"/>
<path d="M384.361 33.3887L394.491 13.1304H404.552L403.47 15.1537L389.22 42.2325V60.3937H379.497V42.2325L365.923 15.1537L364.841 13.1304H374.835L375.917 15.1537L384.355 33.3826L384.361 33.3887Z" fill="white"/>
<path d="M438.439 48.9177H422.64L419.669 58.3703L418.993 60.3937H409.202L409.878 58.3703L424.528 15.1599L425.272 13.0688H435.739L436.483 15.1599L451.201 58.3703L451.877 60.3937H442.221L441.545 58.3703L438.439 48.9177ZM425.272 40.7504H435.807L430.542 24.3419L425.278 40.7504H425.272Z" fill="white"/>
<path d="M463.894 33.9236V25.8854L469.903 13.124H490.229L494.282 21.9002H475.58L472.812 28.45L495.229 39.594V47.626L489.221 60.3874H465.789L461.736 51.6112H483.882L486.447 45.332L463.894 33.9236Z" fill="white"/>
<path d="M536.133 40.1354H519.184V60.3937H509.731V13.1304H519.184V32.6446H536.133V13.1304H545.586V60.3937H536.133V40.1354Z" fill="white"/>
<path d="M565.568 13.1304H575.02V60.3937H565.568V13.1304Z" fill="white"/>
</svg>
