<svg width="360" height="208" viewBox="0 0 360 208" fill="none" xmlns="http://www.w3.org/2000/svg">
<path d="M19.8349 15.4999H5.29994C4.03994 15.4999 3.09494 15.4099 1.60994 15.1849L2.05994 16.8949C3.40994 16.7149 4.21994 16.6249 5.38994 16.6249H15.8299C15.7849 22.2499 15.3349 26.4349 14.0749 29.8099C12.3199 34.2649 9.48494 37.3699 4.44494 40.6549C4.21994 40.7899 4.44494 41.3299 4.71494 41.2399C10.8349 38.6749 14.5249 35.6149 16.7299 31.0249C18.4849 27.4699 19.1149 22.7899 19.1599 16.6249H24.4699V36.3349C24.4699 36.8749 24.2449 37.0999 23.7499 37.0999C22.6699 37.0999 20.7349 36.9649 18.3499 36.7399C18.0799 36.6949 18.0799 37.3249 18.3499 37.3699C21.5899 38.1799 22.7149 38.8549 22.8949 39.9799C23.0749 40.9249 23.1199 41.1049 23.7049 41.1049C24.8749 41.1049 26.0449 40.7449 26.7199 40.1149C27.3949 39.4849 27.9349 38.6299 27.9349 37.3249C27.9349 35.3449 27.7549 31.4299 27.7549 26.2099V16.6249H41.1199C41.5249 16.6249 41.7049 16.4899 41.7049 16.2199C41.7049 15.9499 41.4799 15.6349 40.5349 14.8249C38.3749 13.0249 38.0599 12.7999 37.7449 12.7999C37.4749 12.7999 37.1149 13.0249 35.0899 15.4999H23.1649V8.52488H38.0599C38.5099 8.52488 38.6449 8.38988 38.6449 8.07488C38.6449 7.80488 38.4649 7.53488 37.4749 6.76988C35.4499 5.05988 35.0899 4.78988 34.7299 4.78988C34.4599 4.78988 34.1449 5.05988 32.1649 7.39988H23.1649V2.98988C24.4249 2.53988 24.7849 2.13488 24.7849 1.72988C24.7849 1.23488 24.2449 0.874882 19.5649 0.379883C19.7449 2.22488 19.8349 3.75488 19.8349 6.13988V7.39988H9.21494C7.99994 7.39988 7.00994 7.30988 5.56994 7.08488L6.06494 8.74988C7.32494 8.56988 8.17994 8.52488 9.30494 8.52488H19.8349V15.4999ZM38.5549 33.9049C39.5449 33.9049 40.3549 33.0499 40.3549 31.7449C40.3549 28.3249 36.5299 23.8699 30.4099 20.5849C30.1849 20.4499 29.8699 20.8999 30.0499 21.0799C33.1099 24.0949 35.1349 27.4699 36.6199 31.8349C37.1149 33.4099 37.6549 33.9049 38.5549 33.9049ZM1.38494 35.0299C5.70494 32.0149 9.12494 27.4249 10.6099 23.4199C11.9599 23.0599 12.2299 22.7899 12.2299 22.3849C12.2299 21.7999 11.3749 21.4399 7.68494 20.2699C7.54994 21.5749 7.27994 22.8799 6.78494 24.3199C5.56994 27.7849 3.45494 31.6999 0.979941 34.6249C0.844941 34.8049 1.20494 35.1649 1.38494 35.0299Z" fill="white"/>
<path d="M77.3449 10.8649C77.5699 17.0299 78.2449 21.6199 79.3249 25.5799C79.6849 26.8399 80.0449 28.0549 80.4949 29.1799C77.6599 33.4099 73.8349 37.2799 69.1549 40.5199C68.8849 40.6999 69.2899 41.2849 69.5599 41.1499C74.5549 38.7199 78.4699 35.6599 81.6199 31.7899C82.6999 33.9949 84.0049 35.9299 85.4899 37.6849C87.1549 39.5749 89.1799 40.9249 90.3949 40.9249C91.4299 40.9249 92.0149 40.2499 92.0149 39.3949C92.0149 39.0349 91.9249 38.7199 91.6099 38.3149C91.2049 37.5949 91.0699 37.3699 91.0699 36.9199C91.0699 36.4699 91.3399 34.4449 91.7449 31.3399C91.7899 31.1149 91.3399 30.9799 91.2499 31.2049C90.0349 34.4449 89.3149 35.8849 88.9099 35.8849C88.4599 35.8849 88.0999 35.5699 87.0649 34.3099C85.7149 32.6899 84.5899 30.7999 83.6899 28.8649C85.6699 25.8049 87.2449 22.2949 88.5049 18.2899C89.5399 18.1549 89.9899 17.8849 89.9899 17.4349C89.9899 16.9399 88.7749 16.3099 85.7149 15.2299C85.4899 17.2099 85.0399 19.1899 84.4549 20.9899C83.9149 22.5649 83.2849 24.1399 82.5199 25.6699C81.2599 21.6199 80.7199 17.3449 80.4949 10.8649H91.1599C91.6549 10.8649 91.8349 10.7299 91.8349 10.4149C91.8349 10.1449 91.6549 9.87488 90.8899 9.10988C89.1349 7.62488 88.9099 7.48988 88.5499 7.48988C88.2349 7.48988 88.0099 7.62488 86.3449 9.73988H80.4499C80.4049 7.80488 80.3599 5.64488 80.3599 3.21488C81.5299 2.62988 81.8449 2.40488 81.8449 1.99988C81.8449 1.54988 81.3499 1.27988 76.9849 0.739882C77.1649 2.26988 77.1649 3.61988 77.2099 5.95988C77.2099 7.26488 77.2549 8.52488 77.2999 9.73988H68.6599C67.1299 8.83988 66.4549 8.47988 64.7899 7.80488C65.0599 10.5949 65.1049 11.9899 65.1049 15.6799C65.1049 22.1149 64.6549 26.7049 63.6199 30.3499C62.4499 34.4449 60.6499 37.4149 57.8149 40.7449C57.5899 40.9699 58.0849 41.3749 58.3549 41.1949C62.3149 38.3599 64.5199 35.2099 66.0949 31.0699C67.2649 27.9649 67.8949 24.2749 68.1649 19.5499H72.3949C72.3049 24.2299 72.1249 27.2899 71.7199 29.1349C71.4049 30.6199 71.1349 30.9349 70.4149 30.9349C69.8749 30.9349 69.2899 30.8899 67.3999 30.6199C67.1749 30.5749 67.1749 31.1599 67.3999 31.2049C69.3799 31.7899 69.9649 32.5549 70.0999 33.7699C70.1449 34.2199 70.3249 34.3999 70.9099 34.3999C71.6749 34.3999 72.4849 34.1749 73.0249 33.6799C73.6099 33.1399 74.0149 32.3749 74.3299 31.0699C75.0049 28.7749 75.2299 25.0849 75.4099 20.4049C76.3099 19.8199 76.4449 19.5949 76.4449 19.3699C76.4449 19.0999 76.3099 18.8299 75.6349 18.1999C74.3299 17.1199 74.0599 16.9399 73.7899 16.9399C73.5199 16.9399 73.2499 17.1199 72.1249 18.4249H68.2099C68.2549 17.0749 68.2999 15.6799 68.2999 14.1499V10.8649H77.3449ZM58.5799 14.3749H63.6649C64.1149 14.3749 64.2499 14.2399 64.2499 13.8799C64.2499 13.6099 64.0249 13.2499 63.4399 12.7099C61.9999 11.3149 61.7299 11.0899 61.3699 11.0899C61.0999 11.0899 60.7849 11.3149 59.5249 13.2499H58.5799V3.61988C59.8849 3.03488 60.1099 2.80988 60.1099 2.44988C60.1099 1.99988 59.5699 1.59488 55.2049 1.18988C55.3849 3.21488 55.4299 4.69988 55.4299 8.79488V13.2499H53.3149C52.3699 13.2499 51.6049 13.1599 50.4349 12.8899L50.8849 14.5999C51.9649 14.4199 52.5949 14.3749 53.4049 14.3749H55.4299V27.8749C54.5299 28.1449 53.6299 28.4149 52.7749 28.6399C51.7399 28.8649 51.0199 29.0449 50.0749 29.1349C51.5599 33.4549 51.6949 33.6799 52.1899 33.6799C52.7299 33.6799 52.9549 33.2299 53.1349 31.9249C57.2749 30.0349 60.5599 28.0099 63.6199 25.5349C63.8449 25.3549 63.5749 24.8599 63.3499 24.9499C61.7299 25.6699 60.1549 26.2999 58.5799 26.8399V14.3749ZM86.3899 7.53488C87.1549 7.53488 87.9199 6.72488 87.9199 5.77988C87.9199 4.11488 85.8049 2.62988 82.8799 2.04488C82.6999 1.99988 82.4749 2.26988 82.6099 2.40488C84.0049 3.84488 84.5899 4.69988 85.1749 6.27488C85.5349 7.26488 85.8049 7.53488 86.3899 7.53488Z" fill="white"/>
<path d="M106.73 36.5599H134.45V39.1699C134.45 40.2049 134.855 40.5649 135.98 40.5649C137.375 40.5649 138.095 40.0699 138.095 39.0799C138.095 37.4149 137.915 31.8799 137.915 20.1799V12.9799C139.13 12.4849 139.445 12.1249 139.445 11.7199C139.445 11.0449 138.59 10.8199 134.225 10.3249C134.45 12.0799 134.45 13.7449 134.45 18.7849V35.4349H122.03V4.74488C123.29 4.15988 123.695 3.75488 123.695 3.39488C123.695 2.85488 123.11 2.44988 118.34 1.95488C118.565 3.61988 118.61 6.27488 118.61 10.7299V35.4349H106.73V12.9799C108.08 12.3949 108.305 12.0799 108.305 11.6749C108.305 11.0449 107.495 10.7749 103.085 10.2799C103.31 12.2149 103.355 13.8349 103.355 20.4499C103.355 32.9149 103.13 37.8199 103.13 39.2599C103.13 40.1149 103.49 40.5649 104.57 40.5649C106.01 40.5649 106.73 40.0249 106.73 39.0349V36.5599Z" fill="white"/>
<path d="M169.01 24.1849C164.195 27.0649 161.09 29.6299 161.09 33.5449C161.09 37.8199 165.23 39.3049 171.35 39.3049C174.995 39.3049 178.46 39.1249 179.855 38.8549C181.61 38.5849 182.105 38.1349 182.105 37.4149C182.105 36.3349 180.575 35.4349 179 35.4349C178.55 35.4349 178.055 35.5699 177.47 35.7049C176.795 35.8849 175.94 36.0649 174.815 36.2449C173.015 36.4699 171.17 36.5599 168.515 36.5599C164.33 36.5599 162.71 35.1199 162.71 33.2749C162.71 30.4849 165.05 28.7299 169.01 26.4799C168.92 28.6849 168.83 30.5749 168.83 31.6549C168.83 32.7799 169.46 33.2749 170.36 33.2749C171.26 33.2749 171.755 32.6449 171.755 31.3849C171.755 29.0449 171.755 27.1999 171.755 25.0849C173.015 24.4099 174.5 23.5099 175.805 22.8349C178.91 21.2149 181.16 20.1799 183.365 19.2349C184.22 18.8749 184.76 18.7849 185.12 18.7399C185.705 18.6949 186.29 18.3349 186.29 17.5699C186.29 16.6699 185.57 15.9049 184.22 15.1849C183.05 14.5099 181.655 14.0599 180.8 14.0599C180.35 14.0599 179.99 14.1049 179.675 14.2399C179.315 14.3749 179 14.6449 179 14.8249C179 14.9599 179.18 15.0499 179.45 15.1399C179.9 15.2749 180.44 15.4099 180.8 15.6349C181.16 15.8599 181.34 16.0399 181.34 16.2649C181.34 16.5349 181.115 16.8949 180.665 17.2099C177.74 19.2799 175.265 20.7649 171.665 22.8349C171.62 22.0699 171.62 21.2599 171.53 20.7199C171.305 18.3349 169.775 16.8949 167.39 16.8949C165.815 16.8949 163.79 17.7499 161.99 19.0549C163.52 16.8949 164.915 14.5099 166.31 12.1699C169.505 11.4049 171.755 10.7749 174.185 9.91988C175.04 9.60488 175.67 9.33488 175.67 8.52488C175.67 7.71488 174.95 7.17488 173.96 7.17488C173.105 7.17488 172.385 7.53488 171.665 7.93988C170.72 8.47988 169.415 9.01988 167.75 9.51488C168.11 8.79488 168.605 7.89488 168.875 7.44488C169.19 6.90488 169.64 6.49988 170 6.22988C170.225 6.04988 170.495 5.77988 170.495 5.19488C170.495 4.65488 170.09 4.06988 169.01 3.43988C167.975 2.85488 166.625 2.40488 165.635 2.40488C165.005 2.40488 164.51 2.53988 163.88 2.98988C163.7 3.12488 163.52 3.34988 163.52 3.48488C163.52 3.61988 163.655 3.70988 163.88 3.75488C164.555 3.84488 165.14 3.93488 165.725 4.11488C166.31 4.29488 166.625 4.56488 166.625 5.14988C166.625 5.41988 166.535 5.82488 166.4 6.31988C166.085 7.39988 165.5 8.97488 164.915 10.1449C162.935 10.5949 161.135 10.8649 159.83 10.8649C158.075 10.8649 156.455 10.5499 155.375 9.37988C155.195 9.15488 154.97 9.01988 154.835 9.01988C154.655 9.01988 154.475 9.15488 154.475 9.42488C154.475 9.60488 154.52 9.78488 154.655 10.0099C155.825 12.1249 157.625 12.8899 159.875 12.8899C161.27 12.8899 162.53 12.7999 163.745 12.6199C162.71 14.4199 161.63 16.2649 160.415 17.9299C159.065 19.8199 157.355 21.7549 156.05 23.1049C155.15 24.0049 154.655 24.6349 154.655 25.3099C154.655 26.5699 155.285 27.1099 156.14 27.1099C156.725 27.1099 157.31 26.5249 157.67 26.0299C158.75 24.4999 159.785 23.0149 161.225 21.5299C163.025 19.7299 164.915 18.3799 166.76 18.3799C168.38 18.3799 169.01 19.4599 169.01 22.0249V24.1849Z" fill="white"/>
<path d="M200.15 30.2149C199.835 30.2149 199.655 30.3949 199.655 30.6649C199.655 30.8899 199.7 31.0699 199.88 31.2049C203.075 33.1399 205.1 35.5249 206.54 39.2149C207.035 40.2949 207.53 41.1499 208.745 41.1499C210.14 41.1499 211.085 40.0699 211.085 38.6749C211.085 37.0099 210.275 35.3899 208.16 33.6349C206.135 31.9699 203.255 30.7549 200.15 30.2149Z" fill="white"/>
<path d="M18.2149 97.5099C18.1699 108.22 18.0349 111.505 18.0349 112.315C18.0349 113.125 18.3949 113.485 19.4299 113.485C20.7349 113.485 21.4549 113.035 21.4549 112V110.155H29.8699V112.09C29.8699 112.945 30.2749 113.305 31.3099 113.305C32.6149 113.305 33.2899 112.855 33.2899 111.865C33.2899 110.425 33.1549 106.15 33.1099 97.5099H42.0199C42.4699 97.5099 42.6499 97.3299 42.6499 97.0149C42.6499 96.7449 42.4249 96.4299 41.3899 95.6199C39.2299 93.9099 38.8699 93.6849 38.5549 93.6849C38.2849 93.6849 37.9249 93.9099 35.8549 96.3849H33.1099V86.5749C34.3249 86.0349 34.5949 85.7649 34.5949 85.4049C34.5949 84.7749 33.6949 84.5499 29.6449 84.1449C29.7799 85.8549 29.8699 87.3399 29.8699 91.0749V96.3849H21.4549V86.5299C22.6249 86.0349 22.8499 85.7649 22.8499 85.4049C22.8499 84.7749 22.1299 84.5949 18.0349 84.1449C18.2149 86.5749 18.2149 88.5999 18.2149 95.1249V96.3849H10.1599V87.1149C11.4199 86.6199 11.6899 86.3049 11.6899 85.9449C11.6899 85.2699 11.4199 85.1799 6.60494 84.5949C6.82994 86.9349 6.87494 89.4999 6.87494 96.3849H4.71494C3.27494 96.3849 2.14994 96.2949 0.439941 96.0699L0.889941 97.7799C2.32994 97.5549 3.36494 97.5099 4.71494 97.5099H6.87494V98.6799C6.87494 117.67 6.60494 121.99 6.60494 123.34C6.60494 124.285 7.00994 124.69 8.13494 124.69C9.52994 124.69 10.1599 124.195 10.1599 123.07V121.18H39.7699C40.1749 121.18 40.3549 121 40.3549 120.73C40.3549 120.46 40.1299 120.145 39.0049 119.2C36.7099 117.31 36.3949 117.085 36.0799 117.085C35.8099 117.085 35.4949 117.31 33.1999 120.055H10.1599V97.5099H18.2149ZM21.4549 97.5099H29.8699V109.03H21.4549V97.5099Z" fill="white"/>
<path d="M82.1599 101.785V102.595C82.1599 103.54 82.6549 103.855 83.6449 103.855C84.9499 103.855 85.5799 103.405 85.5799 102.28C85.5799 101.29 85.3999 98.1849 85.3999 91.7499V88.2849C86.4799 87.4749 86.6149 87.2499 86.6149 86.8449C86.6149 86.5749 86.4349 86.3499 85.7599 85.7649C84.2749 84.6399 84.0049 84.4599 83.6899 84.4599C83.4199 84.4599 83.1949 84.6399 81.7999 86.1249H59.8849C58.3999 85.2699 57.7249 84.9099 56.0599 84.2349C56.1949 86.4399 56.2399 88.3749 56.2399 92.0199C56.2399 99.2649 56.1049 101.335 56.1049 102.64C56.1049 103.54 56.4649 103.855 57.4999 103.855C58.8049 103.855 59.4349 103.495 59.4349 102.415V101.785H65.3749C62.6749 106.51 57.1399 110.875 50.2999 113.305C49.9849 113.395 50.2549 114.16 50.5699 114.07C55.4749 112.945 59.5699 111.145 62.8549 108.805C62.9449 109.39 62.9449 109.93 62.9449 110.47C62.9449 113.26 62.3149 116.005 60.8299 118.255C59.1649 120.73 56.5999 122.665 52.7749 124.33C52.5049 124.42 52.7299 125.005 52.9999 124.96C57.7249 123.88 60.9649 122.35 63.0349 120.01C65.1049 117.67 66.0949 114.745 66.3649 110.29C67.4449 109.84 67.7149 109.57 67.7149 109.255C67.7149 108.715 67.1299 108.535 63.7099 108.13C65.9599 106.33 67.8949 104.26 69.3799 101.785H72.6199C74.2399 104.305 76.0399 106.645 78.3349 108.625C77.6599 108.445 76.4899 108.265 74.5999 108.04C74.8249 110.11 74.8249 111.37 74.8249 115.15C74.8249 120.415 74.6449 122.71 74.6449 123.385C74.6449 124.285 74.9599 124.735 76.1299 124.735C77.5249 124.735 78.1999 124.24 78.1999 123.205C78.1999 122.35 78.0199 119.335 78.0199 113.575V110.29C78.9649 109.93 79.2349 109.66 79.3249 109.39C79.7299 109.705 80.2249 110.02 80.6749 110.335C82.7449 111.73 85.1749 112.945 87.1999 113.575C87.9649 113.8 88.5499 113.935 89.0449 113.935C89.4049 113.935 89.5399 113.8 89.7649 113.125C90.3049 111.73 90.8449 111.235 92.0599 111.01C92.3299 110.965 92.3749 110.47 92.1049 110.425C87.6949 110.02 84.0949 108.985 81.3949 107.725C78.5599 106.42 76.0849 104.575 73.7449 101.785H82.1599ZM82.1599 100.66H72.2149V94.4049H82.1599V100.66ZM82.1599 93.2799H72.2149V87.2499H82.1599V93.2799ZM69.0649 87.2499V93.2799H59.4349V87.2499H69.0649ZM59.4349 94.4049H69.0649V100.66H59.4349V94.4049Z" fill="white"/>
<path d="M125.09 95.1249C123.515 96.6099 122.525 97.8699 121.67 98.9049C121.445 99.1749 121.4 99.3099 121.4 99.4899C121.4 99.6699 121.67 99.8949 121.85 99.8949C122.03 99.8949 122.165 99.8499 122.39 99.6249C124.505 97.6899 125.945 96.4749 127.16 96.0249C128.015 95.7099 128.825 95.5299 130.04 95.5299C130.76 95.5299 131.975 95.6649 132.605 95.6649C133.775 95.6649 134.405 95.4399 134.405 94.3149C134.405 93.3249 133.775 92.3349 130.67 92.3349C128.195 92.3349 126.125 92.6049 123.875 93.1899C121.625 93.8649 119.24 94.8999 117.8 95.8899C117.44 96.1149 117.26 96.2949 117.26 96.6099C117.26 96.9249 117.53 97.1049 117.8 97.1049C117.935 97.1049 118.205 97.0149 118.475 96.8799C120.05 96.1599 122.345 95.3949 124.775 94.8999C125.18 94.8099 125.225 94.9899 125.09 95.1249ZM116.495 109.93C116.495 112 117.26 113.89 118.745 115.195C121.445 117.625 125.855 117.895 129.59 117.895C132.155 117.895 134.495 117.715 135.845 117.31C136.565 117.085 136.97 116.68 136.97 115.96C136.97 115.42 136.565 114.745 135.755 114.43C135.17 114.205 134.27 114.07 133.91 114.07C133.415 114.07 132.65 114.16 132.2 114.295C131.885 114.385 131.39 114.52 130.535 114.655C129.545 114.79 128.78 114.835 127.34 114.835C124.73 114.835 121.49 114.565 119.645 112.99C118.34 111.865 117.98 110.47 117.98 108.76C117.98 107.275 118.43 106.06 118.43 105.79C118.43 105.52 118.205 105.385 117.935 105.385C117.71 105.385 117.575 105.52 117.395 105.835C116.765 107.185 116.495 108.715 116.495 109.93ZM111.68 104.53C110.6 107.32 109.52 110.245 108.485 112.9C108.395 113.125 108.26 113.215 108.17 113.215C108.035 113.215 107.9 113.125 107.855 112.9C107.63 112.045 107.54 110.875 107.54 109.255C107.54 105.205 108.8 100.165 109.79 97.6449C110.195 96.6549 110.465 96.0699 110.825 95.6649C111.185 95.3049 111.455 94.8549 111.455 94.1799C111.455 93.1449 110.96 92.1549 110.24 91.0749C109.385 89.8599 108.035 88.6899 106.955 88.6899C106.73 88.6899 106.55 88.8249 106.55 89.0049C106.55 89.1399 106.595 89.2749 106.775 89.4549C107.72 90.5799 108.125 91.4349 108.125 92.6499C108.125 93.4149 107.855 94.6749 107.45 96.3399C106.415 100.48 105.425 105.565 105.425 109.57C105.425 112.675 106.055 115.96 106.91 118.075C107.585 119.695 108.17 120.19 108.98 120.19C109.565 120.19 110.06 119.83 110.06 118.93C110.06 118.3 109.925 116.815 109.925 116.005C109.925 115.15 110.15 114.07 110.375 113.125C110.78 111.37 111.635 108.535 112.715 104.935C112.76 104.755 112.805 104.62 112.805 104.485C112.805 104.215 112.49 103.99 112.265 103.99C112.04 103.99 111.815 104.125 111.68 104.53Z" fill="white"/>
<path d="M176.255 89.4999C176.84 88.2849 177.38 86.9799 177.83 85.6299C179 85.4049 179.405 85.0899 179.405 84.6399C179.405 84.2349 178.595 83.8749 174.815 82.9749C174.635 84.9549 174.05 86.9349 173.24 89.0049C173.195 89.1849 173.105 89.3199 173.015 89.4999H168.47C167.39 89.4999 166.67 89.4099 165.41 89.1849L165.905 90.8499C166.94 90.6699 167.615 90.6249 168.47 90.6249H172.52C170.54 94.7649 167.345 98.8149 163.52 101.785C163.25 101.965 163.655 102.55 163.925 102.415C169.28 99.5349 173.06 95.6649 175.715 90.6249H178.775C180.35 94.2699 181.61 96.2949 183.545 98.1849C184.715 99.3549 186.155 100.48 187.64 101.335C188.405 101.785 188.945 102.01 189.215 102.01C189.44 102.01 189.62 101.875 189.755 101.515C190.52 99.6249 190.7 99.4899 191.69 99.1749C191.915 99.0849 192.005 98.7249 191.78 98.6799C189.305 98.1399 186.83 97.2849 184.85 95.9349C182.78 94.6299 181.16 93.0099 179.72 90.6249H190.16C190.565 90.6249 190.745 90.4899 190.745 90.1749C190.745 89.9049 190.52 89.6349 189.71 88.9149C187.82 87.2949 187.505 87.1149 187.19 87.1149C186.92 87.1149 186.56 87.2949 184.805 89.4999H176.255ZM154.34 121.54H159.965V122.845C159.965 123.61 160.325 123.97 161.225 123.97C162.395 123.97 163.025 123.565 163.025 122.575C163.025 121.9 162.935 119.515 162.935 114.835V112.405C163.925 111.775 164.105 111.505 164.105 111.145C164.105 110.875 163.925 110.56 163.25 110.02C162.035 109.03 161.72 108.895 161.45 108.895C161.18 108.895 160.91 109.03 159.65 110.425H154.79C153.305 109.57 152.675 109.3 151.1 108.625C151.325 110.65 151.37 112.225 151.37 115.195C151.37 120.82 151.19 122.485 151.19 123.475C151.19 124.285 151.64 124.645 152.54 124.645C153.755 124.645 154.34 124.195 154.34 123.25V121.54ZM159.965 120.415H154.34V111.55H159.965V120.415ZM182.915 111.82C182.33 115.645 181.925 117.445 181.385 118.885C180.845 120.415 180.485 120.865 179.36 120.865C177.83 120.865 176.57 120.685 173.825 120.235C173.555 120.19 173.51 120.73 173.78 120.82C177.11 121.81 177.74 122.35 178.01 123.79C178.1 124.51 178.235 124.6 178.91 124.6C179.765 124.6 180.845 124.42 181.565 124.015C182.51 123.52 183.185 122.755 183.815 121.585C184.58 119.965 185.255 117.4 185.975 112.81C187.1 112.18 187.28 112 187.28 111.685C187.28 111.415 187.1 111.145 186.425 110.47C185.165 109.3 184.805 109.075 184.49 109.075C184.22 109.075 183.995 109.255 182.645 110.695H173.87C174.5 109.12 175.175 107.545 175.67 105.925H188.675C189.125 105.925 189.26 105.79 189.26 105.52C189.26 105.205 189.035 104.89 188.315 104.305C186.605 102.955 186.29 102.73 185.975 102.73C185.705 102.73 185.39 102.955 183.95 104.8H168.56C167.48 104.8 166.76 104.755 165.545 104.485L165.995 106.24C167.075 106.015 167.66 105.925 168.47 105.925H172.475C171.26 109.39 170.585 110.785 169.37 112.81C169.1 113.26 169.01 113.62 169.01 113.845C169.01 114.34 169.775 114.7 170.9 114.7C171.71 114.7 172.115 114.43 172.475 113.89C172.7 113.44 173.015 112.72 173.42 111.82H182.915ZM171.215 100.3C172.16 100.12 172.7 100.075 173.33 100.075H182.105C182.555 100.075 182.69 99.8949 182.69 99.6249C182.69 99.3549 182.465 99.0399 181.88 98.4999C180.35 97.2399 180.08 96.9699 179.81 96.9699C179.54 96.9699 179.225 97.2399 177.785 98.9499H173.285C172.385 98.9499 171.8 98.8599 170.765 98.6349L171.215 100.3ZM151.55 87.6099C152.675 87.4299 153.35 87.3399 154.16 87.3399H163.745C164.195 87.3399 164.33 87.2049 164.33 86.9349C164.33 86.6649 164.105 86.3499 163.385 85.7649C161.675 84.2799 161.36 84.0999 161.045 84.0999C160.775 84.0999 160.415 84.2799 158.84 86.2149H154.16C153.125 86.2149 152.315 86.1699 151.055 85.8999L151.55 87.6099ZM151.37 99.8049C152.45 99.6249 153.08 99.5349 153.89 99.5349H163.52C163.97 99.5349 164.105 99.3999 164.105 99.1299C164.105 98.8599 163.88 98.4999 163.205 97.9599C161.54 96.5199 161.18 96.2949 160.91 96.2949C160.64 96.2949 160.235 96.5199 158.795 98.4099H153.89C152.855 98.4099 152.135 98.3199 150.92 98.0499L151.37 99.8049ZM151.55 105.61C152.585 105.43 153.17 105.34 153.98 105.34H163.475C163.88 105.34 164.06 105.205 164.06 104.89C164.06 104.62 163.835 104.35 163.115 103.72C161.45 102.37 161.135 102.145 160.82 102.145C160.55 102.145 160.19 102.37 158.75 104.215H153.98C152.99 104.215 152.225 104.17 151.01 103.9L151.55 105.61ZM149.615 93.7299C150.74 93.5949 151.505 93.5049 152.405 93.5049H165.14C165.59 93.5049 165.725 93.3699 165.725 93.0549C165.725 92.7849 165.545 92.4699 164.735 91.7949C162.935 90.3999 162.62 90.1749 162.305 90.1749C162.035 90.1749 161.72 90.3999 160.145 92.3799H152.405C151.235 92.3799 150.47 92.2899 149.165 92.0649L149.615 93.7299Z" fill="white"/>
<path d="M212.885 105.655C214.685 103.63 217.115 101.29 218.78 99.3549C221.435 96.2499 223.28 94.3149 224.765 92.8299C225.755 91.8399 226.16 91.6149 226.61 91.5249C227.42 91.3449 227.78 91.0299 227.78 90.5799C227.78 89.8599 227.33 89.2749 226.43 88.6449C225.44 87.9249 224.315 87.2499 223.595 87.2499C223.235 87.2499 222.875 87.3849 222.56 87.6999C222.2 88.0599 221.84 88.3299 221.21 88.5099C219.185 89.1849 217.295 89.7249 215.27 90.2199C214.28 90.4449 213.515 90.5349 212.93 90.5349C212.165 90.5349 211.535 90.0849 210.545 88.7799C210.32 88.4649 210.14 88.2849 209.96 88.2849C209.69 88.2849 209.42 88.7799 209.42 89.2299C209.42 90.4899 210.23 91.6599 211.04 92.5149C211.76 93.3249 212.705 93.8199 213.29 93.8199C213.83 93.8199 214.235 93.5949 214.505 93.3249C214.91 92.8749 215.225 92.6949 216.035 92.3799C217.835 91.6599 220.13 90.8049 222.155 90.1299C222.425 90.0399 222.83 89.9049 223.01 89.9049C223.19 89.9049 223.325 89.9949 223.01 90.3999C220.76 93.3699 218.915 95.6199 216.98 98.0049C213.74 101.965 210.005 105.835 206.54 109.57C205.91 110.245 205.775 110.74 205.775 111.19C205.775 112.225 206.54 112.945 207.395 112.945C207.845 112.945 208.295 112.675 208.52 112.36C209.465 111.055 210.455 110.02 212.03 108.4C214.505 105.88 218.015 103.81 222.2 103.81C226.025 103.81 229.31 105.97 229.31 110.965C229.31 114.475 227.24 117.535 223.64 118.75C222.965 116.68 220.265 112.99 216.08 112.99C213.605 112.99 211.58 114.295 211.58 116.725C211.58 119.785 215.045 121.81 219.95 121.81C226.565 121.81 232.685 117.985 232.685 111.19C232.685 106.33 229.04 102.19 222.425 102.19C219.365 102.19 216.125 103.315 212.975 105.745L212.885 105.655ZM220.85 119.425C220.445 119.515 219.815 119.56 219.05 119.56C215.45 119.56 213.065 118.3 213.065 116.455C213.065 115.375 213.92 114.385 215.54 114.385C217.745 114.385 220.175 116.86 220.85 119.425Z" fill="white"/>
<path d="M23.1649 203.775V191.31H37.0249C37.4749 191.31 37.6099 191.13 37.6099 190.86C37.6099 190.59 37.4299 190.275 36.4399 189.465C34.2799 187.62 33.9649 187.395 33.6499 187.395C33.3799 187.395 33.0649 187.62 30.9499 190.185H23.1649V179.565H38.2849C38.7349 179.565 38.8699 179.43 38.8699 179.16C38.8699 178.845 38.6899 178.53 37.6549 177.675C35.4049 175.83 35.1349 175.56 34.8199 175.56C34.5499 175.56 34.2349 175.83 32.0749 178.44H23.1649V169.53C24.4699 169.035 24.8299 168.72 24.8299 168.27C24.8299 167.73 24.2899 167.325 19.5199 166.875C19.7449 168.585 19.7899 171.42 19.7899 176.055V178.44H11.2399C12.0049 176.82 12.7249 175.065 13.3549 173.175C14.6599 172.86 15.1099 172.635 15.1099 172.185C15.1099 171.555 14.1199 171.15 10.2499 170.025C10.0699 171.51 9.75494 173.04 9.30494 174.66C7.86494 179.745 5.02994 185.28 1.96994 188.745C1.74494 188.97 2.23994 189.42 2.50994 189.24C5.92994 186.63 8.53994 183.525 10.6549 179.565H19.7899V190.185H11.1499C9.79994 190.185 8.80994 190.095 7.23494 189.87L7.68494 191.58C9.12494 191.355 10.0249 191.31 11.2399 191.31H19.7899V203.775H6.01994C4.48994 203.775 3.31994 203.73 1.60994 203.46L2.05994 205.215C3.54494 204.99 4.57994 204.9 6.01994 204.9H40.9399C41.3899 204.9 41.5249 204.765 41.5249 204.495C41.5249 204.225 41.3449 203.91 40.1749 203.01C37.8799 201.075 37.5649 200.85 37.2499 200.85C36.9799 200.85 36.6649 201.075 34.3249 203.775H23.1649Z" fill="white"/>
<path d="M87.7849 190.14C87.7849 188.34 85.6699 185.55 83.6899 183.795C81.4849 181.815 79.0099 180.24 76.3999 179.16C75.8149 178.935 75.4549 178.8 75.1399 178.8C74.8699 178.8 74.5999 178.98 74.5999 179.34C74.5999 179.565 74.8699 179.835 75.4099 180.195C77.1199 181.41 78.6949 182.805 80.0449 184.425C81.5299 186.225 82.6549 188.07 83.8699 190.77C84.3649 191.85 84.9499 192.48 85.8949 192.48C87.2449 192.48 87.7849 191.67 87.7849 190.14ZM64.5649 182.625C64.5649 183.21 64.1599 183.885 63.3049 185.01C62.0899 186.54 60.5599 188.205 58.8049 189.87C56.6449 191.805 54.1699 193.785 51.3799 195.585C50.9299 195.855 50.7049 196.035 50.7049 196.305C50.7049 196.665 50.9749 196.89 51.2899 196.89C51.5149 196.89 51.8299 196.8 52.4149 196.53C55.2499 195.36 57.9949 193.695 60.4699 191.85C62.7649 190.14 64.6549 188.43 66.5899 186.495C67.0849 186 67.4449 185.685 67.8049 185.55C68.5699 185.28 68.9299 184.92 68.9299 184.2C68.9299 183.03 67.6249 181.77 66.2749 180.825C65.1499 180.06 64.2949 179.745 63.6649 179.745C63.1699 179.745 62.5399 179.97 62.5399 180.285C62.5399 180.465 62.6299 180.555 63.0799 180.87C64.1599 181.635 64.5649 182.175 64.5649 182.625Z" fill="white"/>
<path d="M131.03 194.595C124.235 195.63 118.7 196.17 112.175 196.665C115.28 191.31 118.07 185.91 121.085 179.835C121.94 178.125 122.57 177.27 123.02 177C123.515 176.685 123.965 176.415 123.965 175.56C123.965 174.705 123.155 173.895 121.76 173.04C120.41 172.23 118.97 171.645 118.025 171.645C117.44 171.645 116.27 171.96 116.27 172.41C116.27 172.68 116.405 172.77 116.675 172.905C117.215 173.175 117.845 173.445 118.295 173.805C118.745 174.12 118.97 174.57 118.97 175.02C118.97 175.515 118.79 176.325 118.43 177.45C117.035 181.545 114.695 187.08 111.545 193.515C111.05 194.595 110.6 195.54 109.925 196.755C109.115 196.845 108.395 196.89 107.765 196.89C106.64 196.89 106.28 196.71 105.515 195.765C105.2 195.36 105.11 195.09 104.84 195.09C104.48 195.09 104.12 195.63 104.12 196.305C104.12 197.07 104.795 198.51 105.38 199.365C105.875 200.22 106.865 201.03 107.45 201.03C107.9 201.03 108.215 200.85 108.485 200.625C108.755 200.4 109.25 200.22 110.015 200.085C117.08 199.005 124.55 197.655 131.84 196.17C132.335 197.115 132.605 198.195 133.055 199.365C133.415 200.4 133.91 201.075 134.9 201.075C135.935 201.075 136.79 200.265 136.79 198.915C136.79 197.97 136.43 196.71 135.35 195.045C133.46 192.255 131.12 189.735 127.475 187.395C127.205 187.215 126.935 187.08 126.62 187.08C126.35 187.08 126.125 187.305 126.125 187.575C126.125 187.845 126.26 188.025 126.845 188.7C128.33 190.32 129.725 192.165 131.03 194.595Z" fill="white"/>
<path d="M168.965 174.93C169.73 174.84 170.405 174.84 171.35 174.84C174.95 174.84 177.605 176.1 179.72 177.765C182.51 180.015 183.5 183.75 183.5 186.36C183.5 190.32 181.88 193.2 179.45 195.675C176.66 198.42 171.89 200.49 167.21 201.39C166.625 201.525 166.4 201.66 166.4 202.02C166.4 202.29 166.715 202.56 167.03 202.56C172.52 202.29 178.685 200.4 182.015 197.52C184.94 194.955 186.875 192.075 186.875 186.99C186.875 183.3 185.39 179.61 181.88 176.775C179.675 174.975 176.075 173.31 171.44 173.31C164.87 173.31 159.965 176.01 157.04 179.205C154.25 182.265 152.81 186.36 152.81 189.825C152.81 192.975 153.62 194.91 154.88 196.485C155.825 197.7 156.95 198.285 158.255 198.285C160.145 198.285 161.54 196.98 162.8 195.36C165.32 192.165 167.615 187.98 169.235 183.705C169.82 182.13 170.405 179.88 170.405 178.44C170.405 177.225 169.91 175.965 168.965 174.93ZM167.75 175.065C168.11 175.425 168.47 176.055 168.47 177.135C168.47 178.08 168.38 179.205 167.84 180.69C166.535 184.335 164.06 188.88 161.405 192.39C160.1 194.145 159.2 194.955 158.255 194.955C157.355 194.955 156.635 194.325 156.14 193.425C155.51 192.3 155.15 191.175 155.15 189.24C155.15 185.73 156.545 182.04 159.065 179.52C160.91 177.675 163.745 175.74 167.75 175.065Z" fill="white"/>
<path d="M222.74 204.675V197.43H234.53C234.98 197.43 235.115 197.295 235.115 197.025C235.115 196.755 234.935 196.44 234.125 195.765C232.28 194.19 231.92 194.01 231.605 194.01C231.335 194.01 231.02 194.19 229.22 196.305H222.74V190.095H235.97C236.42 190.095 236.6 189.96 236.6 189.69C236.6 189.42 236.375 189.06 235.52 188.34C233.63 186.81 233.315 186.585 233 186.585C232.73 186.585 232.415 186.81 230.66 188.97H222.74V184.92C223.91 184.38 224.225 184.065 224.225 183.75C224.225 183.3 223.64 182.94 219.41 182.49C219.59 184.11 219.59 185.91 219.59 188.655V188.97H212.93C213.47 188.07 213.965 187.08 214.37 186.09C215.585 185.91 215.99 185.73 215.99 185.19C215.99 184.605 214.865 184.155 211.535 183.3C211.445 184.335 211.175 185.595 210.77 186.855C209.825 189.78 208.205 193.155 206.36 195.72C206.225 195.9 206.585 196.17 206.765 196.035C208.925 194.46 210.77 192.435 212.255 190.095H219.59V196.305H213.11C211.94 196.305 211.085 196.26 209.78 195.99L210.23 197.7C211.445 197.52 212.21 197.43 213.2 197.43H219.59V204.675H207.98C206.765 204.675 205.82 204.585 204.38 204.36L204.875 206.07C206.09 205.89 206.945 205.8 208.025 205.8H239.03C239.435 205.8 239.615 205.665 239.615 205.395C239.615 205.125 239.39 204.855 238.445 204.045C236.33 202.29 235.97 202.11 235.7 202.11C235.43 202.11 235.07 202.29 233 204.675H222.74ZM221.12 171.87V168.63C222.29 168.135 222.65 167.82 222.65 167.46C222.65 166.965 222.11 166.605 217.565 166.11C217.745 167.46 217.79 168.405 217.79 169.17V171.87H205.82C204.56 171.87 203.66 171.78 202.22 171.555L202.67 173.265C203.93 173.04 204.83 172.995 205.865 172.995H237.5C237.95 172.995 238.085 172.815 238.085 172.545C238.085 172.275 237.905 172.005 237.005 171.285C235.07 169.62 234.755 169.395 234.44 169.395C234.17 169.395 233.855 169.62 231.83 171.87H221.12ZM223.955 180.33C225.44 179.115 226.7 177.855 228.005 176.19C229.31 176.145 229.715 175.965 229.715 175.425C229.715 174.93 228.41 174.3 225.305 173.31C225.17 174.165 224.99 174.885 224.63 175.965C224.225 177.225 223.595 178.575 222.605 180.33H206.225C204.56 179.34 203.84 178.98 202.175 178.26C202.4 180.375 202.49 181.545 202.49 184.065C202.49 189.33 202.22 193.065 201.545 196.44C200.825 200.13 199.745 203.19 197.945 206.34C197.855 206.52 198.215 206.835 198.395 206.655C201.275 203.73 202.985 200.805 204.11 196.8C205.235 193.2 205.685 189.195 205.775 182.895V181.455H238.985C239.435 181.455 239.615 181.32 239.615 181.05C239.615 180.735 239.48 180.465 238.49 179.61C236.375 177.99 236.105 177.81 235.79 177.81C235.475 177.81 235.25 177.99 233.225 180.33H223.955ZM214.145 180.195C215.18 180.195 215.9 179.385 215.9 178.17C215.9 176.46 213.785 174.57 210.635 173.49C210.455 173.445 210.275 173.67 210.41 173.805C211.49 174.975 212.3 176.505 212.705 178.35C212.975 179.745 213.245 180.195 214.145 180.195Z" fill="white"/>
<path d="M283.445 178.71C283.355 184.02 283.22 188.16 282.77 190.68C282.545 192.03 282.23 192.48 281.465 192.48C280.655 192.48 279.485 192.435 277.865 192.21C277.595 192.165 277.46 192.705 277.73 192.795C280.115 193.65 280.475 194.01 280.655 195.36C280.745 196.08 280.88 196.26 281.51 196.26C282.455 196.26 283.4 195.945 284.075 195.36C284.75 194.775 285.2 193.785 285.56 192.3C286.145 189.825 286.415 185.505 286.505 179.385C287.405 178.755 287.63 178.53 287.63 178.17C287.63 177.765 287.405 177.495 286.82 177.135C285.245 175.965 284.84 175.785 284.57 175.785C284.255 175.785 284.03 176.01 283.04 177.675L277.325 179.745V169.125C278.54 168.585 278.765 168.315 278.765 168C278.765 167.415 278.225 167.19 274.04 166.695C274.265 168.72 274.265 170.61 274.265 177.36V180.87L268.775 182.895V174.075C269.99 173.535 270.215 173.265 270.215 172.86C270.215 172.275 269.36 171.96 265.4 171.555C265.625 173.535 265.67 175.965 265.67 182.85V184.02L262.97 185.01C261.935 185.37 261.17 185.595 259.64 185.865L260.63 187.305C261.485 186.81 262.34 186.45 263.375 186.045L265.67 185.19C265.67 192.21 265.58 196.35 265.58 201.48C265.58 205.53 266.885 206.43 276.425 206.43C283.085 206.43 285.74 206.205 287.675 205.62C289.115 205.125 289.7 204.45 289.7 203.55C289.7 202.875 289.475 202.515 288.8 202.245C288.17 201.975 288.035 201.795 288.035 200.985C288.035 199.86 288.125 198.015 288.215 196.62C288.215 196.35 287.72 196.26 287.63 196.53C286.64 200.31 285.92 201.84 285.11 202.47C284.345 203.145 282.68 203.415 275.525 203.415C269.54 203.415 268.775 203.235 268.775 201.165V184.065L274.265 182.085C274.22 191.76 274.13 195.135 274.085 197.745C274.085 198.645 274.49 199.005 275.435 199.005C276.875 199.005 277.505 198.555 277.505 197.43C277.505 195.81 277.37 191.085 277.325 180.96L283.445 178.71ZM257.345 181.14H263.375C263.825 181.14 263.96 181.005 263.96 180.735C263.96 180.465 263.78 180.15 263.105 179.475C261.575 178.125 261.26 177.9 260.945 177.9C260.675 177.9 260.36 178.125 259.055 180.015H257.345V169.845C258.65 169.26 258.92 168.99 258.92 168.585C258.92 168.09 258.38 167.73 254.06 167.28C254.24 169.17 254.24 171.24 254.24 175.38V180.015H251.09C250.055 180.015 249.38 179.925 248.255 179.655L248.705 181.41C249.74 181.23 250.325 181.14 251.18 181.14H254.24V196.305C253.205 196.62 252.215 196.89 251.27 197.115C250.145 197.385 249.2 197.52 248.3 197.655C249.65 201.48 250.145 202.2 250.685 202.2C251.18 202.2 251.405 201.795 251.54 200.4C255.725 198.645 259.64 196.44 263.33 193.695C263.555 193.515 263.33 193.02 263.105 193.11C261.26 193.92 259.28 194.685 257.345 195.36V181.14Z" fill="white"/>
<path d="M323.09 178.125C321.515 179.61 320.525 180.87 319.67 181.905C319.445 182.175 319.4 182.31 319.4 182.49C319.4 182.67 319.67 182.895 319.85 182.895C320.03 182.895 320.165 182.85 320.39 182.625C322.505 180.69 323.945 179.475 325.16 179.025C326.015 178.71 326.825 178.53 328.04 178.53C328.76 178.53 329.975 178.665 330.605 178.665C331.775 178.665 332.405 178.44 332.405 177.315C332.405 176.325 331.775 175.335 328.67 175.335C326.195 175.335 324.125 175.605 321.875 176.19C319.625 176.865 317.24 177.9 315.8 178.89C315.44 179.115 315.26 179.295 315.26 179.61C315.26 179.925 315.53 180.105 315.8 180.105C315.935 180.105 316.205 180.015 316.475 179.88C318.05 179.16 320.345 178.395 322.775 177.9C323.18 177.81 323.225 177.99 323.09 178.125ZM314.495 192.93C314.495 195 315.26 196.89 316.745 198.195C319.445 200.625 323.855 200.895 327.59 200.895C330.155 200.895 332.495 200.715 333.845 200.31C334.565 200.085 334.97 199.68 334.97 198.96C334.97 198.42 334.565 197.745 333.755 197.43C333.17 197.205 332.27 197.07 331.91 197.07C331.415 197.07 330.65 197.16 330.2 197.295C329.885 197.385 329.39 197.52 328.535 197.655C327.545 197.79 326.78 197.835 325.34 197.835C322.73 197.835 319.49 197.565 317.645 195.99C316.34 194.865 315.98 193.47 315.98 191.76C315.98 190.275 316.43 189.06 316.43 188.79C316.43 188.52 316.205 188.385 315.935 188.385C315.71 188.385 315.575 188.52 315.395 188.835C314.765 190.185 314.495 191.715 314.495 192.93ZM309.68 187.53C308.6 190.32 307.52 193.245 306.485 195.9C306.395 196.125 306.26 196.215 306.17 196.215C306.035 196.215 305.9 196.125 305.855 195.9C305.63 195.045 305.54 193.875 305.54 192.255C305.54 188.205 306.8 183.165 307.79 180.645C308.195 179.655 308.465 179.07 308.825 178.665C309.185 178.305 309.455 177.855 309.455 177.18C309.455 176.145 308.96 175.155 308.24 174.075C307.385 172.86 306.035 171.69 304.955 171.69C304.73 171.69 304.55 171.825 304.55 172.005C304.55 172.14 304.595 172.275 304.775 172.455C305.72 173.58 306.125 174.435 306.125 175.65C306.125 176.415 305.855 177.675 305.45 179.34C304.415 183.48 303.425 188.565 303.425 192.57C303.425 195.675 304.055 198.96 304.91 201.075C305.585 202.695 306.17 203.19 306.98 203.19C307.565 203.19 308.06 202.83 308.06 201.93C308.06 201.3 307.925 199.815 307.925 199.005C307.925 198.15 308.15 197.07 308.375 196.125C308.78 194.37 309.635 191.535 310.715 187.935C310.76 187.755 310.805 187.62 310.805 187.485C310.805 187.215 310.49 186.99 310.265 186.99C310.04 186.99 309.815 187.125 309.68 187.53Z" fill="white"/>
<path d="M354.05 195.27C350.855 195.27 348.11 198.015 348.11 201.21C348.11 204.405 350.855 207.15 354.05 207.15C357.245 207.15 359.99 204.405 359.99 201.21C359.99 198.015 357.245 195.27 354.05 195.27ZM354.05 196.845C356.39 196.845 358.415 198.87 358.415 201.21C358.415 203.55 356.39 205.575 354.05 205.575C351.71 205.575 349.685 203.55 349.685 201.21C349.685 198.87 351.71 196.845 354.05 196.845Z" fill="white"/>
</svg>
